<svg width="45" height="51" viewBox="0 0 45 51" fill="none" xmlns="http://www.w3.org/2000/svg">
<path d="M33.3613 4.00586V4.00684L43.3965 6.84473V27.2617C43.3963 35.7266 38.1816 41.329 32.791 44.8721C30.1023 46.6393 27.406 47.8672 25.3779 48.6533C24.3655 49.0458 23.5232 49.3269 22.9375 49.5088C22.6544 49.5967 22.4314 49.6611 22.2783 49.7041C22.1241 49.6629 21.8987 49.6008 21.6123 49.5156C21.0222 49.3401 20.1734 49.0681 19.1533 48.6855C17.1099 47.9193 14.3932 46.7157 11.6846 44.9648C6.2569 41.4563 1.00009 35.8549 1 27.2617V6.83105L10.3594 4.00684L22.2754 1.03223L33.3613 4.00586Z" fill="#FD86CD" stroke="#1A1A1A" stroke-width="2"/>
</svg>
