<svg width="51" height="50" viewBox="0 0 51 50" fill="none" xmlns="http://www.w3.org/2000/svg">
<path d="M38.3926 5C42.6123 4.99982 46.1047 7.79074 47.915 11.7598C49.7233 15.7244 49.7703 20.7155 47.2051 24.8652C44.174 29.7685 38.6508 34.7441 33.8037 38.5322C31.394 40.4155 29.1768 41.9856 27.5625 43.085C26.7558 43.6344 26.1001 44.0662 25.6475 44.3594C25.5913 44.3958 25.5371 44.4288 25.4873 44.4609C25.4494 44.4355 25.4088 44.4089 25.3672 44.3809C24.9435 44.0953 24.3298 43.6744 23.5732 43.1367C22.0589 42.0604 19.9757 40.5177 17.7041 38.6533C13.1379 34.9057 7.89884 29.9309 4.92773 24.8838C2.63675 20.9918 2.42806 15.9744 4.08789 11.9434C5.73187 7.9508 9.16543 5 14.1885 5C18.2429 5.00009 21.0628 6.28567 22.8604 7.54395C23.7633 8.17601 24.4132 8.80555 24.833 9.26953C25.0427 9.50134 25.1948 9.69098 25.291 9.81836C25.339 9.88197 25.373 9.93036 25.3936 9.95996C25.4038 9.97465 25.4105 9.98496 25.4141 9.99023C25.4156 9.99261 25.4168 9.99382 25.417 9.99414L26.3643 11.4688L27.1475 9.90332L27.1484 9.90137C27.1504 9.8977 27.1548 9.88903 27.1621 9.87598C27.1768 9.8497 27.2028 9.80524 27.2402 9.74512C27.3152 9.62479 27.4375 9.44217 27.6143 9.21777C27.968 8.76884 28.5394 8.15265 29.3867 7.53125C31.0691 6.29751 33.895 5.00021 38.3926 5Z" fill="#FC5B03" stroke="#1A1A1A" stroke-width="2"/>
</svg>
