<svg width="50" height="49" viewBox="0 0 50 49" fill="none" xmlns="http://www.w3.org/2000/svg">
<rect x="18.9688" y="29.9062" width="12.8438" height="12.8438" rx="6.42188" fill="#FC5B03"/>
<rect x="18.9688" y="29.9062" width="12.8438" height="12.8438" rx="6.42188" stroke="#1A1A1A" stroke-width="2"/>
<mask id="path-2-inside-1_2_972" fill="white">
<path d="M9.375 35.9375C9.375 33.8856 9.77915 31.8538 10.5644 29.9581C11.3496 28.0624 12.5005 26.3399 13.9515 24.889C15.4024 23.438 17.1249 22.2871 19.0206 21.5019C20.9163 20.7167 22.9481 20.3125 25 20.3125C27.0519 20.3125 29.0837 20.7167 30.9794 21.5019C32.8751 22.2871 34.5976 23.438 36.0486 24.889C37.4995 26.3399 38.6504 28.0624 39.4356 29.9581C40.2209 31.8538 40.625 33.8856 40.625 35.9375L35.1471 35.9375C35.1471 34.605 34.8846 33.2855 34.3747 32.0544C33.8648 30.8233 33.1173 29.7047 32.1751 28.7624C31.2328 27.8202 30.1142 27.0727 28.8831 26.5628C27.652 26.0529 26.3325 25.7904 25 25.7904C23.6675 25.7904 22.348 26.0529 21.1169 26.5628C19.8858 27.0727 18.7672 27.8202 17.8249 28.7624C16.8827 29.7047 16.1352 30.8233 15.6253 32.0544C15.1154 33.2855 14.8529 34.605 14.8529 35.9375L9.375 35.9375Z"/>
</mask>
<path d="M9.375 35.9375C9.375 33.8856 9.77915 31.8538 10.5644 29.9581C11.3496 28.0624 12.5005 26.3399 13.9515 24.889C15.4024 23.438 17.1249 22.2871 19.0206 21.5019C20.9163 20.7167 22.9481 20.3125 25 20.3125C27.0519 20.3125 29.0837 20.7167 30.9794 21.5019C32.8751 22.2871 34.5976 23.438 36.0486 24.889C37.4995 26.3399 38.6504 28.0624 39.4356 29.9581C40.2209 31.8538 40.625 33.8856 40.625 35.9375L35.1471 35.9375C35.1471 34.605 34.8846 33.2855 34.3747 32.0544C33.8648 30.8233 33.1173 29.7047 32.1751 28.7624C31.2328 27.8202 30.1142 27.0727 28.8831 26.5628C27.652 26.0529 26.3325 25.7904 25 25.7904C23.6675 25.7904 22.348 26.0529 21.1169 26.5628C19.8858 27.0727 18.7672 27.8202 17.8249 28.7624C16.8827 29.7047 16.1352 30.8233 15.6253 32.0544C15.1154 33.2855 14.8529 34.605 14.8529 35.9375L9.375 35.9375Z" fill="#FC5B03" stroke="#1A1A1A" stroke-width="4" mask="url(#path-2-inside-1_2_972)"/>
<mask id="path-3-inside-2_2_972" fill="white">
<path d="M-5.51212e-06 35.1562C-5.23408e-06 31.9758 0.64664 28.8265 1.90301 25.8881C3.15938 22.9498 5.00087 20.2799 7.32233 18.031C9.6438 15.7821 12.3998 13.9981 15.4329 12.781C18.4661 11.5639 21.717 10.9375 25 10.9375C28.2831 10.9375 31.534 11.5639 34.5671 12.7811C37.6002 13.9982 40.3562 15.7821 42.6777 18.031C44.9991 20.2799 46.8406 22.9498 48.097 25.8882C49.3534 28.8265 50 31.9758 50 35.1563L44.7055 35.1563C44.7055 32.6494 44.1958 30.167 43.2056 27.8509C42.2153 25.5349 40.7638 23.4304 38.9339 21.6578C37.1041 19.8851 34.9318 18.479 32.541 17.5196C30.1502 16.5603 27.5878 16.0665 25 16.0665C22.4122 16.0665 19.8498 16.5603 17.459 17.5196C15.0682 18.479 12.8959 19.8851 11.0661 21.6578C9.23625 23.4304 7.78475 25.5348 6.79445 27.8509C5.80416 30.167 5.29446 32.6493 5.29446 35.1562L-5.51212e-06 35.1562Z"/>
</mask>
<path d="M-5.51212e-06 35.1562C-5.23408e-06 31.9758 0.64664 28.8265 1.90301 25.8881C3.15938 22.9498 5.00087 20.2799 7.32233 18.031C9.6438 15.7821 12.3998 13.9981 15.4329 12.781C18.4661 11.5639 21.717 10.9375 25 10.9375C28.2831 10.9375 31.534 11.5639 34.5671 12.7811C37.6002 13.9982 40.3562 15.7821 42.6777 18.031C44.9991 20.2799 46.8406 22.9498 48.097 25.8882C49.3534 28.8265 50 31.9758 50 35.1563L44.7055 35.1563C44.7055 32.6494 44.1958 30.167 43.2056 27.8509C42.2153 25.5349 40.7638 23.4304 38.9339 21.6578C37.1041 19.8851 34.9318 18.479 32.541 17.5196C30.1502 16.5603 27.5878 16.0665 25 16.0665C22.4122 16.0665 19.8498 16.5603 17.459 17.5196C15.0682 18.479 12.8959 19.8851 11.0661 21.6578C9.23625 23.4304 7.78475 25.5348 6.79445 27.8509C5.80416 30.167 5.29446 32.6493 5.29446 35.1562L-5.51212e-06 35.1562Z" fill="#FC5B03" stroke="#1A1A1A" stroke-width="4" mask="url(#path-3-inside-2_2_972)"/>
</svg>
