<svg width="55" height="51" viewBox="0 0 55 51" fill="none" xmlns="http://www.w3.org/2000/svg">
<mask id="path-1-inside-1_2_945" fill="white">
<path d="M50.4504 25.2252C50.4504 39.1567 39.1567 50.4504 25.2252 50.4504C11.2937 50.4504 0 39.1567 0 25.2252C0 11.2937 11.2937 0 25.2252 0C39.1567 0 50.4504 11.2937 50.4504 25.2252ZM9.92193 25.2252C9.92193 33.677 16.7734 40.5285 25.2252 40.5285C33.677 40.5285 40.5285 33.677 40.5285 25.2252C40.5285 16.7734 33.677 9.92193 25.2252 9.92193C16.7734 9.92193 9.92193 16.7734 9.92193 25.2252Z"/>
</mask>
<path d="M50.4504 25.2252C50.4504 39.1567 39.1567 50.4504 25.2252 50.4504C11.2937 50.4504 0 39.1567 0 25.2252C0 11.2937 11.2937 0 25.2252 0C39.1567 0 50.4504 11.2937 50.4504 25.2252ZM9.92193 25.2252C9.92193 33.677 16.7734 40.5285 25.2252 40.5285C33.677 40.5285 40.5285 33.677 40.5285 25.2252C40.5285 16.7734 33.677 9.92193 25.2252 9.92193C16.7734 9.92193 9.92193 16.7734 9.92193 25.2252Z" fill="#FC5B03" stroke="#1A1A1A" stroke-width="4" mask="url(#path-1-inside-1_2_945)"/>
<circle cx="25.1396" cy="25.2251" r="8.45946" fill="#FC5B03" stroke="#1A1A1A" stroke-width="2"/>
<path d="M24.7456 25.2249L54.1027 12.6672" stroke="#1A1A1A" stroke-width="2"/>
</svg>
