<svg width="50" height="50" viewBox="0 0 50 50" fill="none" xmlns="http://www.w3.org/2000/svg">
<path d="M26.5449 1.14355C26.6822 1.25345 26.8556 1.39905 27.0605 1.58789C27.6305 2.11316 28.3973 2.89702 29.2959 3.90137C31.0908 5.90745 33.3762 8.75298 35.624 12.083C40.15 18.788 44.3916 27.2677 44.3916 34.7656C44.3916 42.2496 37.0038 49 26.5664 49C16.0852 48.9998 8.3916 42.6044 8.3916 34.7656C8.3916 26.4847 12.7245 18.0033 17.3213 11.5156C19.608 8.28833 21.9325 5.59292 23.7559 3.71094C24.6686 2.7689 25.447 2.03997 26.0244 1.55371C26.2311 1.37961 26.406 1.24506 26.5449 1.14355Z" fill="#1463CC" stroke="#1A1A1A" stroke-width="2"/>
<line x1="20" y1="28" x2="32" y2="28" stroke="#1A1A1A" stroke-width="2" stroke-linecap="round"/>
<line x1="26" y1="22" x2="26" y2="34" stroke="#1A1A1A" stroke-width="2" stroke-linecap="round"/>
</svg>
