<svg width="50" height="50" viewBox="0 0 50 50" fill="none" xmlns="http://www.w3.org/2000/svg">
<path d="M10.1257 34.7384C15.4433 34.7384 19.7541 30.4307 19.7541 25.117C19.7541 19.8033 15.4433 15.4956 10.1257 15.4956C4.8081 15.4956 0.497314 19.8033 0.497314 25.117C0.497314 30.4307 4.8081 34.7384 10.1257 34.7384Z" fill="white"/>
<path d="M10.1258 35.2354C4.54309 35.2354 0 30.6971 0 25.117C0 19.5369 4.54165 15 10.1258 15C15.71 15 20.2516 19.5383 20.2516 25.117C20.2516 30.6956 15.71 35.2354 10.1258 35.2354ZM10.1258 15.9941C5.0911 15.9941 0.994797 20.0874 0.994797 25.117C0.994797 30.1466 5.0911 34.2413 10.1258 34.2413C15.1605 34.2413 19.2568 30.148 19.2568 25.117C19.2568 20.0859 15.1605 15.9941 10.1258 15.9941Z" fill="#1A1A1A"/>
<path d="M0.499023 25.117C0.499023 30.4298 4.80932 34.7384 10.1274 34.7384V15.4971C4.81077 15.4971 0.499023 19.8042 0.499023 25.1185V25.117Z" fill="#1A1A1A"/>
<path d="M39.8752 34.7384C45.1929 34.7384 49.5036 30.4307 49.5036 25.117C49.5036 19.8033 45.1929 15.4956 39.8752 15.4956C34.5576 15.4956 30.2468 19.8033 30.2468 25.117C30.2468 30.4307 34.5576 34.7384 39.8752 34.7384Z" fill="white"/>
<path d="M39.8753 35.2354C34.2926 35.2354 29.7495 30.6971 29.7495 25.117C29.7495 19.5369 34.2912 15 39.8753 15C45.4595 15 49.9997 19.5383 49.9997 25.117C49.9997 30.6956 45.458 35.2354 39.8753 35.2354ZM39.8753 15.9941C34.8406 15.9941 30.7443 20.0874 30.7443 25.117C30.7443 30.1466 34.8406 34.2413 39.8753 34.2413C44.91 34.2413 49.0063 30.148 49.0063 25.117C49.0063 20.0859 44.91 15.9941 39.8753 15.9941Z" fill="#1A1A1A"/>
<path d="M30.2471 25.117C30.2471 30.4298 34.5574 34.7384 39.8755 34.7384V15.4971C34.5588 15.4971 30.2471 19.8042 30.2471 25.1185V25.117Z" fill="#1A1A1A"/>
</svg>
