<svg width="50" height="50" viewBox="0 0 50 50" fill="none" xmlns="http://www.w3.org/2000/svg">
<mask id="path-1-inside-1_2_860" fill="white">
<path d="M46 23C46 35.7025 35.7025 46 23 46C10.2975 46 0 35.7025 0 23C0 10.2975 10.2975 0 23 0C35.7025 0 46 10.2975 46 23ZM9.04667 23C9.04667 30.7062 15.2938 36.9533 23 36.9533C30.7062 36.9533 36.9533 30.7062 36.9533 23C36.9533 15.2938 30.7062 9.04667 23 9.04667C15.2938 9.04667 9.04667 15.2938 9.04667 23Z"/>
</mask>
<path d="M46 23C46 35.7025 35.7025 46 23 46C10.2975 46 0 35.7025 0 23C0 10.2975 10.2975 0 23 0C35.7025 0 46 10.2975 46 23ZM9.04667 23C9.04667 30.7062 15.2938 36.9533 23 36.9533C30.7062 36.9533 36.9533 30.7062 36.9533 23C36.9533 15.2938 30.7062 9.04667 23 9.04667C15.2938 9.04667 9.04667 15.2938 9.04667 23Z" stroke="#FFFFF3" stroke-width="4" mask="url(#path-1-inside-1_2_860)"/>
<circle cx="23" cy="23" r="8" stroke="#FFFFF3" stroke-width="2"/>
<path d="M23.3594 23L49.33 11.5503" stroke="white" stroke-width="2"/>
</svg>
