<svg width="223" height="154" viewBox="0 0 223 154" fill="none" xmlns="http://www.w3.org/2000/svg">
<rect x="1" y="1" width="220" height="152" rx="15" fill="#97E191" stroke="#1A1A1A" stroke-width="2"/>
<path d="M133.595 39H119.108V53.3955L101.191 62.8418V39H86.0098L112.046 18.625L133.595 39Z" fill="#1463CC" stroke="#1A1A1A" stroke-width="2"/>
<path d="M118.608 79H101.108V71.084L118.608 61.2119V79Z" fill="#1463CC" stroke="#1A1A1A" stroke-width="2"/>
<path d="M57.546 100.56C57.546 96.62 60.106 93.84 63.886 93.84C65.726 93.84 67.026 94.48 67.786 95.18C68.346 95.66 68.646 96.24 68.646 96.6C68.646 97.36 67.766 97.52 67.706 97.46C67.046 96.08 65.566 95.16 63.866 95.16C61.046 95.16 59.106 97.34 59.106 100.54C59.106 103.7 61.066 105.9 63.906 105.9C65.966 105.9 67.346 104.74 67.826 103.32C67.866 103.26 68.826 103.4 68.826 104.16C68.826 104.56 68.506 105.24 67.846 105.84C67.066 106.56 65.686 107.22 63.846 107.22C60.066 107.22 57.546 104.48 57.546 100.56ZM74.618 97.24C75.478 97.24 76.038 97.66 76.038 98.28C76.038 98.86 75.638 99.1 75.598 99.06C75.358 98.82 74.978 98.66 74.458 98.66C72.898 98.66 72.178 100.2 72.178 102.6V106.38C72.178 106.88 71.918 107.06 71.558 107.06H71.398C70.998 107.06 70.738 106.9 70.738 106.38V97.54C70.738 97.5 70.958 97.38 71.258 97.38C71.658 97.38 72.018 97.58 72.098 98.34C72.118 98.68 72.138 99.02 72.138 99.38C72.518 97.94 73.398 97.24 74.618 97.24ZM76.5247 102.28C76.5247 99.38 78.5047 97.24 81.2447 97.24C83.9047 97.24 85.6247 99.12 85.6247 101.94V102.08C85.6247 102.42 85.4847 102.54 85.1247 102.54H77.9047C77.9047 102.62 77.9047 102.72 77.9247 102.82C78.1047 104.74 79.4847 106.02 81.4047 106.02C83.1847 106.02 84.0247 105.18 84.5047 104.26C84.5847 104.22 85.3247 104.38 85.3247 105.02C85.3247 105.32 85.0847 105.78 84.5647 106.2C83.9647 106.72 82.8647 107.22 81.3847 107.22C78.4847 107.22 76.5247 105.2 76.5247 102.28ZM84.2047 101.5C84.1247 99.64 82.9847 98.4 81.2447 98.4C79.5047 98.4 78.2047 99.68 77.9447 101.5H84.2047ZM87.4339 106.22C87.0339 105.88 86.8539 105.56 86.8539 105.26C86.8539 104.76 87.4139 104.54 87.4739 104.56C88.0739 105.42 89.1539 106.06 90.7139 106.06C92.2139 106.06 93.0939 105.42 93.0939 104.48C93.0939 103.36 92.0539 103.14 90.4339 102.78C88.9739 102.48 87.1339 102.06 87.1339 100.12C87.1339 98.42 88.5539 97.24 90.7539 97.24C92.2939 97.24 93.3339 97.74 93.8739 98.32C94.0939 98.54 94.2339 98.84 94.2339 99.08C94.2339 99.58 93.6539 99.84 93.6139 99.8C93.0939 99 92.0539 98.38 90.7739 98.38C89.3139 98.38 88.4739 99.04 88.4739 99.96C88.4739 101 89.4739 101.24 91.0539 101.6C92.6139 101.94 94.4939 102.36 94.4939 104.32C94.4939 106.06 93.0339 107.22 90.6939 107.22C89.1339 107.22 88.0539 106.76 87.4339 106.22ZM95.8802 102.2C95.8802 99.34 97.8802 97.24 100.7 97.24C102.2 97.24 103.24 97.78 103.88 98.4C104.42 98.9 104.66 99.48 104.66 99.84C104.66 100.48 103.8 100.6 103.74 100.52C103.32 99.42 102.46 98.48 100.72 98.48C98.7202 98.48 97.3002 100.04 97.3002 102.2C97.3002 104.4 98.7002 105.98 100.72 105.98C102.44 105.98 103.32 105.04 103.74 103.94C103.78 103.86 104.66 103.96 104.66 104.64C104.66 104.96 104.42 105.52 103.88 106.04C103.26 106.7 102.2 107.22 100.68 107.22C97.8802 107.22 95.8802 105.12 95.8802 102.2ZM106.478 94.46C106.478 93.86 106.818 93.54 107.398 93.54C107.978 93.54 108.318 93.86 108.318 94.46C108.318 95.04 107.958 95.36 107.378 95.36C106.818 95.36 106.478 95.04 106.478 94.46ZM106.658 106.38V98.08C106.658 97.56 106.918 97.38 107.298 97.38H107.458C107.838 97.38 108.098 97.54 108.098 98.08V106.38C108.098 106.9 107.838 107.06 107.458 107.06H107.298C106.918 107.06 106.658 106.9 106.658 106.38ZM121.678 97.24C124.018 97.24 125.218 98.74 125.218 101.26V106.38C125.218 106.9 124.958 107.06 124.578 107.06H124.418C124.038 107.06 123.778 106.9 123.778 106.38V101.38C123.778 99.54 122.958 98.52 121.378 98.52C120.258 98.52 119.178 99.24 118.718 100.42V106.38C118.718 106.9 118.438 107.06 118.078 107.06H117.918C117.538 107.06 117.278 106.9 117.278 106.38V101.26C117.278 99.52 116.478 98.52 114.878 98.52C113.778 98.52 112.698 99.24 112.198 100.42V106.38C112.198 106.9 111.938 107.06 111.578 107.06H111.398C111.038 107.06 110.758 106.9 110.758 106.38V97.54C110.758 97.5 110.998 97.38 111.278 97.38C111.718 97.38 112.118 97.6 112.158 98.56L112.178 99.04C112.798 97.98 113.878 97.24 115.198 97.24C116.818 97.24 117.898 98.06 118.358 99.36C118.938 98.12 120.098 97.24 121.678 97.24ZM127.091 102.28C127.091 99.38 129.071 97.24 131.811 97.24C134.471 97.24 136.191 99.12 136.191 101.94V102.08C136.191 102.42 136.051 102.54 135.691 102.54H128.471C128.471 102.62 128.471 102.72 128.491 102.82C128.671 104.74 130.051 106.02 131.971 106.02C133.751 106.02 134.591 105.18 135.071 104.26C135.151 104.22 135.891 104.38 135.891 105.02C135.891 105.32 135.651 105.78 135.131 106.2C134.531 106.72 133.431 107.22 131.951 107.22C129.051 107.22 127.091 105.2 127.091 102.28ZM134.771 101.5C134.691 99.64 133.551 98.4 131.811 98.4C130.071 98.4 128.771 99.68 128.511 101.5H134.771ZM142.82 97.24C145.28 97.24 146.48 98.94 146.48 101.38V106.38C146.48 106.9 146.22 107.06 145.86 107.06H145.68C145.3 107.06 145.04 106.9 145.04 106.38V101.5C145.04 99.66 144.16 98.52 142.54 98.52C141.14 98.52 140.1 99.3 139.58 100.44V106.38C139.58 106.9 139.32 107.06 138.96 107.06H138.78C138.4 107.06 138.14 106.9 138.14 106.38V97.54C138.14 97.5 138.38 97.38 138.66 97.38C139.1 97.38 139.5 97.6 139.54 98.58V99.14C140.18 98 141.3 97.24 142.82 97.24ZM152.201 107.22C150.441 107.22 149.581 106.24 149.581 104.22V98.68H148.641C148.181 98.68 148.021 98.48 148.021 98.14V98C148.021 97.66 148.181 97.46 148.641 97.46H149.581V95.78C149.581 95.28 149.841 95.08 150.221 95.08H150.381C150.761 95.08 151.001 95.26 151.001 95.78V97.46H153.421C153.861 97.46 154.041 97.64 154.041 98V98.12C154.041 98.48 153.861 98.68 153.401 98.68H150.981V104C150.981 105.4 151.401 106 152.401 106C153.041 106 153.521 105.7 153.821 105.26C153.881 105.22 154.221 105.42 154.221 105.92C154.221 106.16 154.121 106.42 153.861 106.66C153.521 106.98 152.981 107.22 152.201 107.22ZM155.216 102.22C155.216 99.32 157.216 97.24 160.076 97.24C162.896 97.24 164.896 99.34 164.896 102.26C164.896 105.14 162.896 107.22 160.056 107.22C157.196 107.22 155.216 105.12 155.216 102.22ZM163.496 102.26C163.496 100.06 162.076 98.46 160.076 98.46C158.076 98.46 156.616 100.02 156.616 102.22C156.616 104.42 158.076 106 160.076 106C162.056 106 163.496 104.44 163.496 102.26ZM74.7289 131.22C74.3289 130.88 74.1489 130.56 74.1489 130.26C74.1489 129.76 74.7089 129.54 74.7689 129.56C75.3689 130.42 76.4489 131.06 78.0089 131.06C79.5089 131.06 80.3889 130.42 80.3889 129.48C80.3889 128.36 79.3489 128.14 77.7289 127.78C76.2689 127.48 74.4289 127.06 74.4289 125.12C74.4289 123.42 75.8489 122.24 78.0489 122.24C79.5889 122.24 80.6289 122.74 81.1689 123.32C81.3889 123.54 81.5289 123.84 81.5289 124.08C81.5289 124.58 80.9489 124.84 80.9089 124.8C80.3889 124 79.3489 123.38 78.0689 123.38C76.6089 123.38 75.7689 124.04 75.7689 124.96C75.7689 126 76.7689 126.24 78.3489 126.6C79.9089 126.94 81.7889 127.36 81.7889 129.32C81.7889 131.06 80.3289 132.22 77.9889 132.22C76.4289 132.22 75.3489 131.76 74.7289 131.22ZM83.1751 129.54C83.1751 127.38 85.2151 126.46 89.7151 126.4H89.9351V126C89.9351 124.38 88.9951 123.48 87.3551 123.48C85.8351 123.48 84.9151 124.22 84.4351 125.18C84.3951 125.2 83.5551 125.16 83.5551 124.44C83.5551 124.16 83.7551 123.74 84.1351 123.38C84.7551 122.78 85.8551 122.24 87.4351 122.24C89.9751 122.24 91.3551 123.66 91.3551 126.02V131.92C91.3551 131.98 91.0951 132.08 90.8351 132.08C90.4151 132.08 90.0751 131.88 89.9951 131.16C89.9751 130.88 89.9551 130.58 89.9551 130.28C89.3151 131.44 88.0151 132.2 86.4151 132.2C84.4151 132.2 83.1751 131.16 83.1751 129.54ZM89.9351 128.26V127.34L89.5951 127.36C86.1151 127.44 84.6151 128.04 84.6151 129.5C84.6151 130.5 85.4151 131.12 86.6951 131.12C88.5351 131.12 89.9351 129.88 89.9351 128.26ZM101.454 122.38C101.834 122.38 102.094 122.54 102.094 123.06V131.92C102.094 131.96 101.854 132.08 101.574 132.08C101.174 132.08 100.814 131.88 100.734 131.14C100.714 130.88 100.694 130.62 100.694 130.36C100.054 131.42 98.9537 132.22 97.4137 132.22C94.9537 132.22 93.7537 130.52 93.7537 128.06V123.06C93.7537 122.54 94.0137 122.38 94.3937 122.38H94.5537C94.9337 122.38 95.1937 122.54 95.1937 123.06V127.96C95.1937 129.8 96.0937 130.94 97.7137 130.94C99.0937 130.94 100.134 130.16 100.654 129V123.06C100.654 122.54 100.914 122.38 101.274 122.38H101.454ZM108.454 132.22C105.934 132.22 104.054 130.22 104.054 127.22C104.054 124.26 105.934 122.24 108.494 122.24C110.194 122.24 111.394 123.1 111.934 124.08V118.52C111.934 118.46 112.154 118.36 112.434 118.36C112.914 118.36 113.374 118.6 113.374 119.64V131.38C113.374 131.9 113.114 132.06 112.734 132.06H112.594C112.234 132.06 111.974 131.9 111.974 131.42C111.954 131.02 111.954 130.62 111.954 130.18C111.274 131.4 110.134 132.22 108.454 132.22ZM111.934 127.88V125.74C111.414 124.36 110.354 123.46 108.734 123.46C106.814 123.46 105.494 124.96 105.494 127.22C105.494 129.44 106.834 131 108.714 131C110.494 131 111.934 129.66 111.934 127.88ZM118.223 121.02C118.083 121.02 118.043 120.98 118.043 120.94C118.043 120.74 119.903 117.72 121.083 117.72C121.443 117.72 121.703 118 121.703 118.36C121.703 119.5 118.423 121.02 118.223 121.02ZM115.343 129.54C115.343 127.38 117.383 126.46 121.883 126.4H122.103V126C122.103 124.38 121.163 123.48 119.523 123.48C118.003 123.48 117.083 124.22 116.603 125.18C116.563 125.2 115.723 125.16 115.723 124.44C115.723 124.16 115.923 123.74 116.303 123.38C116.923 122.78 118.023 122.24 119.603 122.24C122.143 122.24 123.523 123.66 123.523 126.02V131.92C123.523 131.98 123.263 132.08 123.003 132.08C122.583 132.08 122.243 131.88 122.163 131.16C122.143 130.88 122.123 130.58 122.123 130.28C121.483 131.44 120.183 132.2 118.583 132.2C116.583 132.2 115.343 131.16 115.343 129.54ZM122.103 128.26V127.34L121.763 127.36C118.283 127.44 116.783 128.04 116.783 129.5C116.783 130.5 117.583 131.12 118.863 131.12C120.703 131.12 122.103 129.88 122.103 128.26ZM128.365 131.64L124.865 122.8C124.865 122.68 125.205 122.36 125.625 122.36C126.005 122.38 126.325 122.58 126.565 123.26L129.305 130.72L132.065 123.26C132.305 122.56 132.665 122.36 133.005 122.38C133.425 122.4 133.725 122.68 133.725 122.8L130.225 131.6C130.105 131.96 129.825 132.1 129.285 132.1C128.745 132.1 128.505 131.98 128.365 131.64ZM134.659 127.28C134.659 124.38 136.639 122.24 139.379 122.24C142.039 122.24 143.759 124.12 143.759 126.94V127.08C143.759 127.42 143.619 127.54 143.259 127.54H136.039C136.039 127.62 136.039 127.72 136.059 127.82C136.239 129.74 137.619 131.02 139.539 131.02C141.319 131.02 142.159 130.18 142.639 129.26C142.719 129.22 143.459 129.38 143.459 130.02C143.459 130.32 143.219 130.78 142.699 131.2C142.099 131.72 140.999 132.22 139.519 132.22C136.619 132.22 134.659 130.2 134.659 127.28ZM142.339 126.5C142.259 124.64 141.119 123.4 139.379 123.4C137.639 123.4 136.339 124.68 136.079 126.5H142.339ZM146.449 132.06C146.069 132.06 145.809 131.9 145.809 131.38V118.52C145.809 118.46 146.049 118.36 146.329 118.36C146.789 118.36 147.249 118.6 147.249 119.64V131.38C147.249 131.9 146.989 132.06 146.609 132.06H146.449Z" fill="#1A1A1A"/>
</svg>
