<svg width="223" height="154" viewBox="0 0 223 154" fill="none" xmlns="http://www.w3.org/2000/svg">
<rect x="1" y="1" width="220" height="152" rx="15" fill="#9DC8FF" stroke="#1A1A1A" stroke-width="2"/>
<path d="M125.261 20.8018V20.8027L138.108 24.4365V50.3867C138.108 61.1893 131.449 68.3256 124.613 72.8184C121.202 75.0604 117.784 76.6171 115.214 77.6133C113.931 78.1107 112.863 78.4673 112.119 78.6982C111.747 78.8137 111.456 78.8974 111.261 78.9521C111.243 78.9571 111.226 78.9614 111.21 78.9658C111.194 78.9616 111.177 78.9569 111.159 78.9521C110.962 78.8996 110.669 78.8194 110.294 78.708C109.545 78.4851 108.469 78.1401 107.176 77.6553C104.586 76.6843 101.142 75.158 97.7051 72.9365C90.8213 68.4868 84.1084 61.3512 84.1084 50.3867V24.4229L96.0996 20.8047L111.208 17.0322L125.261 20.8018Z" fill="#FD86CD" stroke="#1A1A1A" stroke-width="2"/>
<path d="M40 106.38V94.86C40 94.34 40.36 94 40.9 94H41.3C41.94 94 42.1 94.24 42.36 94.84L45.86 102.16L49.36 94.84C49.6 94.22 49.8 94 50.38 94H50.76C51.34 94 51.68 94.34 51.68 94.86V106.38C51.68 106.82 51.5 107.06 51.06 107.06H50.88C50.46 107.06 50.26 106.82 50.26 106.38V102.86L50.28 95.82L46.86 102.98C46.68 103.42 46.48 103.7 45.84 103.7C45.16 103.7 45 103.42 44.8 102.98L41.4 95.84L41.42 102.82V106.38C41.42 106.82 41.24 107.06 40.8 107.06H40.58C40.16 107.06 40 106.82 40 106.38ZM53.8489 104.54C53.8489 102.38 55.8889 101.46 60.3889 101.4H60.6089V101C60.6089 99.38 59.6689 98.48 58.0289 98.48C56.5089 98.48 55.5889 99.22 55.1089 100.18C55.0689 100.2 54.2289 100.16 54.2289 99.44C54.2289 99.16 54.4289 98.74 54.8089 98.38C55.4289 97.78 56.5289 97.24 58.1089 97.24C60.6489 97.24 62.0289 98.66 62.0289 101.02V106.92C62.0289 106.98 61.7689 107.08 61.5089 107.08C61.0889 107.08 60.7489 106.88 60.6689 106.16C60.6489 105.88 60.6289 105.58 60.6289 105.28C59.9889 106.44 58.6889 107.2 57.0889 107.2C55.0889 107.2 53.8489 106.16 53.8489 104.54ZM60.6089 103.26V102.34L60.2689 102.36C56.7889 102.44 55.2889 103.04 55.2889 104.5C55.2889 105.5 56.0889 106.12 57.3689 106.12C59.2089 106.12 60.6089 104.88 60.6089 103.26ZM64.4275 94.46C64.4275 93.86 64.7675 93.54 65.3475 93.54C65.9275 93.54 66.2675 93.86 66.2675 94.46C66.2675 95.04 65.9075 95.36 65.3275 95.36C64.7675 95.36 64.4275 95.04 64.4275 94.46ZM64.6075 106.38V98.08C64.6075 97.56 64.8675 97.38 65.2475 97.38H65.4075C65.7875 97.38 66.0475 97.54 66.0475 98.08V106.38C66.0475 106.9 65.7875 107.06 65.4075 107.06H65.2475C64.8675 107.06 64.6075 106.9 64.6075 106.38ZM68.5668 106.22C68.1668 105.88 67.9868 105.56 67.9868 105.26C67.9868 104.76 68.5468 104.54 68.6068 104.56C69.2068 105.42 70.2868 106.06 71.8468 106.06C73.3468 106.06 74.2268 105.42 74.2268 104.48C74.2268 103.36 73.1868 103.14 71.5668 102.78C70.1068 102.48 68.2668 102.06 68.2668 100.12C68.2668 98.42 69.6868 97.24 71.8868 97.24C73.4268 97.24 74.4668 97.74 75.0068 98.32C75.2268 98.54 75.3668 98.84 75.3668 99.08C75.3668 99.58 74.7868 99.84 74.7468 99.8C74.2268 99 73.1868 98.38 71.9068 98.38C70.4468 98.38 69.6068 99.04 69.6068 99.96C69.6068 101 70.6068 101.24 72.1868 101.6C73.7468 101.94 75.6268 102.36 75.6268 104.32C75.6268 106.06 74.1668 107.22 71.8268 107.22C70.2668 107.22 69.1868 106.76 68.5668 106.22ZM80.951 94.46C80.951 93.86 81.291 93.54 81.871 93.54C82.451 93.54 82.791 93.86 82.791 94.46C82.791 95.04 82.431 95.36 81.851 95.36C81.291 95.36 80.951 95.04 80.951 94.46ZM81.131 106.38V98.08C81.131 97.56 81.391 97.38 81.771 97.38H81.931C82.311 97.38 82.571 97.54 82.571 98.08V106.38C82.571 106.9 82.311 107.06 81.931 107.06H81.771C81.391 107.06 81.131 106.9 81.131 106.38ZM96.1502 97.24C98.4902 97.24 99.6902 98.74 99.6902 101.26V106.38C99.6902 106.9 99.4302 107.06 99.0502 107.06H98.8902C98.5102 107.06 98.2502 106.9 98.2502 106.38V101.38C98.2502 99.54 97.4302 98.52 95.8502 98.52C94.7302 98.52 93.6502 99.24 93.1902 100.42V106.38C93.1902 106.9 92.9102 107.06 92.5502 107.06H92.3902C92.0102 107.06 91.7502 106.9 91.7502 106.38V101.26C91.7502 99.52 90.9502 98.52 89.3502 98.52C88.2502 98.52 87.1702 99.24 86.6702 100.42V106.38C86.6702 106.9 86.4102 107.06 86.0502 107.06H85.8702C85.5102 107.06 85.2302 106.9 85.2302 106.38V97.54C85.2302 97.5 85.4702 97.38 85.7502 97.38C86.1902 97.38 86.5902 97.6 86.6302 98.56L86.6502 99.04C87.2702 97.98 88.3502 97.24 89.6702 97.24C91.2902 97.24 92.3702 98.06 92.8302 99.36C93.4102 98.12 94.5702 97.24 96.1502 97.24ZM109.784 97.38C110.164 97.38 110.424 97.54 110.424 98.06V106.92C110.424 106.96 110.184 107.08 109.904 107.08C109.504 107.08 109.144 106.88 109.064 106.14C109.044 105.88 109.024 105.62 109.024 105.36C108.384 106.42 107.284 107.22 105.744 107.22C103.284 107.22 102.084 105.52 102.084 103.06V98.06C102.084 97.54 102.344 97.38 102.724 97.38H102.884C103.264 97.38 103.524 97.54 103.524 98.06V102.96C103.524 104.8 104.424 105.94 106.044 105.94C107.424 105.94 108.464 105.16 108.984 104V98.06C108.984 97.54 109.244 97.38 109.604 97.38H109.784ZM117.664 97.24C120.124 97.24 121.324 98.94 121.324 101.38V106.38C121.324 106.9 121.064 107.06 120.704 107.06H120.524C120.144 107.06 119.884 106.9 119.884 106.38V101.5C119.884 99.66 119.004 98.52 117.384 98.52C115.984 98.52 114.944 99.3 114.424 100.44V106.38C114.424 106.9 114.164 107.06 113.804 107.06H113.624C113.244 107.06 112.984 106.9 112.984 106.38V97.54C112.984 97.5 113.224 97.38 113.504 97.38C113.944 97.38 114.344 97.6 114.384 98.58V99.14C115.024 98 116.144 97.24 117.664 97.24ZM123.724 94.46C123.724 93.86 124.064 93.54 124.644 93.54C125.224 93.54 125.564 93.86 125.564 94.46C125.564 95.04 125.204 95.36 124.624 95.36C124.064 95.36 123.724 95.04 123.724 94.46ZM123.904 106.38V98.08C123.904 97.56 124.164 97.38 124.544 97.38H124.704C125.084 97.38 125.344 97.54 125.344 98.08V106.38C125.344 106.9 125.084 107.06 124.704 107.06H124.544C124.164 107.06 123.904 106.9 123.904 106.38ZM131.804 107.22C129.284 107.22 127.404 105.22 127.404 102.22C127.404 99.26 129.284 97.24 131.844 97.24C133.544 97.24 134.744 98.1 135.284 99.08V93.52C135.284 93.46 135.504 93.36 135.784 93.36C136.264 93.36 136.724 93.6 136.724 94.64V106.38C136.724 106.9 136.464 107.06 136.084 107.06H135.944C135.584 107.06 135.324 106.9 135.324 106.42C135.304 106.02 135.304 105.62 135.304 105.18C134.624 106.4 133.484 107.22 131.804 107.22ZM135.284 102.88V100.74C134.764 99.36 133.704 98.46 132.084 98.46C130.164 98.46 128.844 99.96 128.844 102.22C128.844 104.44 130.184 106 132.064 106C133.844 106 135.284 104.66 135.284 102.88ZM138.693 104.54C138.693 102.38 140.733 101.46 145.233 101.4H145.453V101C145.453 99.38 144.513 98.48 142.873 98.48C141.353 98.48 140.433 99.22 139.953 100.18C139.913 100.2 139.073 100.16 139.073 99.44C139.073 99.16 139.273 98.74 139.653 98.38C140.273 97.78 141.373 97.24 142.953 97.24C145.493 97.24 146.873 98.66 146.873 101.02V106.92C146.873 106.98 146.613 107.08 146.353 107.08C145.933 107.08 145.593 106.88 145.513 106.16C145.493 105.88 145.473 105.58 145.473 105.28C144.833 106.44 143.533 107.2 141.933 107.2C139.933 107.2 138.693 106.16 138.693 104.54ZM145.453 103.26V102.34L145.113 102.36C141.633 102.44 140.133 103.04 140.133 104.5C140.133 105.5 140.933 106.12 142.213 106.12C144.053 106.12 145.453 104.88 145.453 103.26ZM153.151 107.22C150.631 107.22 148.751 105.22 148.751 102.22C148.751 99.26 150.631 97.24 153.191 97.24C154.891 97.24 156.091 98.1 156.631 99.08V93.52C156.631 93.46 156.851 93.36 157.131 93.36C157.611 93.36 158.071 93.6 158.071 94.64V106.38C158.071 106.9 157.811 107.06 157.431 107.06H157.291C156.931 107.06 156.671 106.9 156.671 106.42C156.651 106.02 156.651 105.62 156.651 105.18C155.971 106.4 154.831 107.22 153.151 107.22ZM156.631 102.88V100.74C156.111 99.36 155.051 98.46 153.431 98.46C151.511 98.46 150.191 99.96 150.191 102.22C150.191 104.44 151.531 106 153.411 106C155.191 106 156.631 104.66 156.631 102.88ZM160.04 102.28C160.04 99.38 162.02 97.24 164.76 97.24C167.42 97.24 169.14 99.12 169.14 101.94V102.08C169.14 102.42 169 102.54 168.64 102.54H161.42C161.42 102.62 161.42 102.72 161.44 102.82C161.62 104.74 163 106.02 164.92 106.02C166.7 106.02 167.54 105.18 168.02 104.26C168.1 104.22 168.84 104.38 168.84 105.02C168.84 105.32 168.6 105.78 168.08 106.2C167.48 106.72 166.38 107.22 164.9 107.22C162 107.22 160.04 105.2 160.04 102.28ZM167.72 101.5C167.64 99.64 166.5 98.4 164.76 98.4C163.02 98.4 161.72 99.68 161.46 101.5H167.72ZM173.908 102.28C173.908 99.38 175.888 97.24 178.628 97.24C181.288 97.24 183.008 99.12 183.008 101.94V102.08C183.008 102.42 182.868 102.54 182.508 102.54H175.288C175.288 102.62 175.288 102.72 175.308 102.82C175.488 104.74 176.868 106.02 178.788 106.02C180.568 106.02 181.408 105.18 181.888 104.26C181.968 104.22 182.708 104.38 182.708 105.02C182.708 105.32 182.468 105.78 181.948 106.2C181.348 106.72 180.248 107.22 178.768 107.22C175.868 107.22 173.908 105.2 173.908 102.28ZM181.588 101.5C181.508 99.64 180.368 98.4 178.628 98.4C176.888 98.4 175.588 99.68 175.328 101.5H181.588ZM47.8388 132.22C45.3188 132.22 43.4388 130.22 43.4388 127.22C43.4388 124.26 45.3188 122.24 47.8788 122.24C49.5788 122.24 50.7788 123.1 51.3188 124.08V118.52C51.3188 118.46 51.5388 118.36 51.8188 118.36C52.2988 118.36 52.7588 118.6 52.7588 119.64V131.38C52.7588 131.9 52.4988 132.06 52.1188 132.06H51.9788C51.6188 132.06 51.3588 131.9 51.3588 131.42C51.3388 131.02 51.3388 130.62 51.3388 130.18C50.6588 131.4 49.5188 132.22 47.8388 132.22ZM51.3188 127.88V125.74C50.7988 124.36 49.7388 123.46 48.1188 123.46C46.1988 123.46 44.8788 124.96 44.8788 127.22C44.8788 129.44 46.2188 131 48.0988 131C49.8788 131 51.3188 129.66 51.3188 127.88ZM54.7279 127.28C54.7279 124.38 56.7079 122.24 59.4479 122.24C62.1079 122.24 63.8279 124.12 63.8279 126.94V127.08C63.8279 127.42 63.6879 127.54 63.3279 127.54H56.1079C56.1079 127.62 56.1079 127.72 56.1279 127.82C56.3079 129.74 57.6879 131.02 59.6079 131.02C61.3879 131.02 62.2279 130.18 62.7079 129.26C62.7879 129.22 63.5279 129.38 63.5279 130.02C63.5279 130.32 63.2879 130.78 62.7679 131.2C62.1679 131.72 61.0679 132.22 59.5879 132.22C56.6879 132.22 54.7279 130.2 54.7279 127.28ZM62.4079 126.5C62.3279 124.64 61.1879 123.4 59.4479 123.4C57.7079 123.4 56.4079 124.68 56.1479 126.5H62.4079ZM66.6371 131.38V123.68H65.2971C64.8371 123.68 64.6771 123.48 64.6771 123.12V123C64.6771 122.64 64.8371 122.46 65.2971 122.46H66.6371V121.5C66.6371 119.28 67.6571 118.18 69.4171 118.18C70.1771 118.18 70.6971 118.36 71.0371 118.66C71.2571 118.84 71.3571 119.08 71.3571 119.34C71.3571 119.78 71.0371 120.02 70.9971 119.98C70.7171 119.66 70.1371 119.4 69.5571 119.4C68.5171 119.4 68.0171 120.06 68.0171 121.62V122.46H69.8571C70.3171 122.46 70.4971 122.66 70.4971 123V123.12C70.4971 123.48 70.3171 123.68 69.8571 123.68H68.0571V131.38C68.0571 131.88 67.8171 132.06 67.4371 132.06H67.2771C66.8971 132.06 66.6371 131.9 66.6371 131.38ZM71.2122 127.28C71.2122 124.38 73.1922 122.24 75.9322 122.24C78.5922 122.24 80.3122 124.12 80.3122 126.94V127.08C80.3122 127.42 80.1722 127.54 79.8122 127.54H72.5922C72.5922 127.62 72.5922 127.72 72.6122 127.82C72.7922 129.74 74.1722 131.02 76.0922 131.02C77.8722 131.02 78.7122 130.18 79.1922 129.26C79.2722 129.22 80.0122 129.38 80.0122 130.02C80.0122 130.32 79.7722 130.78 79.2522 131.2C78.6522 131.72 77.5522 132.22 76.0722 132.22C73.1722 132.22 71.2122 130.2 71.2122 127.28ZM78.8922 126.5C78.8122 124.64 77.6722 123.4 75.9322 123.4C74.1922 123.4 72.8922 124.68 72.6322 126.5H78.8922ZM82.1214 131.22C81.7214 130.88 81.5414 130.56 81.5414 130.26C81.5414 129.76 82.1014 129.54 82.1614 129.56C82.7614 130.42 83.8414 131.06 85.4014 131.06C86.9014 131.06 87.7814 130.42 87.7814 129.48C87.7814 128.36 86.7414 128.14 85.1214 127.78C83.6614 127.48 81.8214 127.06 81.8214 125.12C81.8214 123.42 83.2414 122.24 85.4414 122.24C86.9814 122.24 88.0214 122.74 88.5614 123.32C88.7814 123.54 88.9214 123.84 88.9214 124.08C88.9214 124.58 88.3414 124.84 88.3014 124.8C87.7814 124 86.7414 123.38 85.4614 123.38C84.0014 123.38 83.1614 124.04 83.1614 124.96C83.1614 126 84.1614 126.24 85.7414 126.6C87.3014 126.94 89.1814 127.36 89.1814 129.32C89.1814 131.06 87.7214 132.22 85.3814 132.22C83.8214 132.22 82.7414 131.76 82.1214 131.22ZM90.5677 129.54C90.5677 127.38 92.6077 126.46 97.1077 126.4H97.3277V126C97.3277 124.38 96.3877 123.48 94.7477 123.48C93.2277 123.48 92.3077 124.22 91.8277 125.18C91.7877 125.2 90.9477 125.16 90.9477 124.44C90.9477 124.16 91.1477 123.74 91.5277 123.38C92.1477 122.78 93.2477 122.24 94.8277 122.24C97.3677 122.24 98.7477 123.66 98.7477 126.02V131.92C98.7477 131.98 98.4877 132.08 98.2277 132.08C97.8077 132.08 97.4677 131.88 97.3877 131.16C97.3677 130.88 97.3477 130.58 97.3477 130.28C96.7077 131.44 95.4077 132.2 93.8077 132.2C91.8077 132.2 90.5677 131.16 90.5677 129.54ZM97.3277 128.26V127.34L96.9877 127.36C93.5077 127.44 92.0077 128.04 92.0077 129.5C92.0077 130.5 92.8077 131.12 94.0877 131.12C95.9277 131.12 97.3277 129.88 97.3277 128.26ZM108.444 132.22C105.924 132.22 104.044 130.22 104.044 127.22C104.044 124.26 105.924 122.24 108.484 122.24C110.184 122.24 111.384 123.1 111.924 124.08V118.52C111.924 118.46 112.144 118.36 112.424 118.36C112.904 118.36 113.364 118.6 113.364 119.64V131.38C113.364 131.9 113.104 132.06 112.724 132.06H112.584C112.224 132.06 111.964 131.9 111.964 131.42C111.944 131.02 111.944 130.62 111.944 130.18C111.264 131.4 110.124 132.22 108.444 132.22ZM111.924 127.88V125.74C111.404 124.36 110.344 123.46 108.724 123.46C106.804 123.46 105.484 124.96 105.484 127.22C105.484 129.44 106.824 131 108.704 131C110.484 131 111.924 129.66 111.924 127.88ZM115.333 127.22C115.333 124.32 117.333 122.24 120.193 122.24C123.013 122.24 125.013 124.34 125.013 127.26C125.013 130.14 123.013 132.22 120.173 132.22C117.313 132.22 115.333 130.12 115.333 127.22ZM123.613 127.26C123.613 125.06 122.193 123.46 120.193 123.46C118.193 123.46 116.733 125.02 116.733 127.22C116.733 129.42 118.193 131 120.193 131C122.173 131 123.613 129.44 123.613 127.26ZM129.806 127.2C129.806 124.34 131.806 122.24 134.626 122.24C136.126 122.24 137.166 122.78 137.806 123.4C138.346 123.9 138.586 124.48 138.586 124.84C138.586 125.48 137.726 125.6 137.666 125.52C137.246 124.42 136.386 123.48 134.646 123.48C132.646 123.48 131.226 125.04 131.226 127.2C131.226 129.4 132.626 130.98 134.646 130.98C136.366 130.98 137.246 130.04 137.666 128.94C137.706 128.86 138.586 128.96 138.586 129.64C138.586 129.96 138.346 130.52 137.806 131.04C137.186 131.7 136.126 132.22 134.606 132.22C131.806 132.22 129.806 130.12 129.806 127.2ZM139.884 127.22C139.884 124.32 141.884 122.24 144.744 122.24C147.564 122.24 149.564 124.34 149.564 127.26C149.564 130.14 147.564 132.22 144.724 132.22C141.864 132.22 139.884 130.12 139.884 127.22ZM148.164 127.26C148.164 125.06 146.744 123.46 144.744 123.46C142.744 123.46 141.284 125.02 141.284 127.22C141.284 129.42 142.744 131 144.744 131C146.724 131 148.164 129.44 148.164 127.26ZM155.419 122.24C156.279 122.24 156.839 122.66 156.839 123.28C156.839 123.86 156.439 124.1 156.399 124.06C156.159 123.82 155.779 123.66 155.259 123.66C153.699 123.66 152.979 125.2 152.979 127.6V131.38C152.979 131.88 152.719 132.06 152.359 132.06H152.199C151.799 132.06 151.539 131.9 151.539 131.38V122.54C151.539 122.5 151.759 122.38 152.059 122.38C152.459 122.38 152.819 122.58 152.899 123.34C152.919 123.68 152.939 124.02 152.939 124.38C153.319 122.94 154.199 122.24 155.419 122.24ZM163.314 122.24C165.814 122.24 167.714 124.22 167.714 127.2C167.714 130.18 165.854 132.22 163.274 132.22C161.534 132.22 160.334 131.26 159.834 130.22V135.18C159.834 135.68 159.574 135.86 159.214 135.86H159.054C158.674 135.86 158.414 135.68 158.414 135.18V122.54C158.414 122.5 158.634 122.38 158.914 122.38C159.334 122.38 159.734 122.62 159.794 123.46C159.794 123.7 159.814 124.02 159.814 124.28C160.514 123.04 161.654 122.24 163.314 122.24ZM163.014 131C164.974 131 166.294 129.48 166.294 127.22C166.294 125 164.914 123.46 163.054 123.46C161.454 123.46 160.354 124.38 159.814 125.76V127.88C159.814 129.64 161.254 131 163.014 131ZM169.083 127.22C169.083 124.32 171.083 122.24 173.943 122.24C176.763 122.24 178.763 124.34 178.763 127.26C178.763 130.14 176.763 132.22 173.923 132.22C171.063 132.22 169.083 130.12 169.083 127.22ZM177.363 127.26C177.363 125.06 175.943 123.46 173.943 123.46C171.943 123.46 170.483 125.02 170.483 127.22C170.483 129.42 171.943 131 173.943 131C175.923 131 177.363 129.44 177.363 127.26Z" fill="#1A1A1A"/>
</svg>
