<svg width="223" height="154" viewBox="0 0 223 154" fill="none" xmlns="http://www.w3.org/2000/svg">
<rect x="1" y="1" width="220" height="152" rx="15" fill="#97E191" stroke="#1A1A1A" stroke-width="2"/>
<path d="M113.653 36.2031L113.403 37.0078L114.153 37.3906L139.285 50.2236L106.639 76.7236L115.531 55.3848L115.878 54.5537L115.087 54.1221L88.9941 39.8896L119.155 18.5244L113.653 36.2031Z" fill="#1463CC" stroke="#1A1A1A" stroke-width="2"/>
<path d="M27.8878 100.56C27.8878 96.62 30.4478 93.84 34.2278 93.84C36.0678 93.84 37.3678 94.48 38.1278 95.18C38.6878 95.66 38.9878 96.24 38.9878 96.6C38.9878 97.36 38.1078 97.52 38.0478 97.46C37.3878 96.08 35.9078 95.16 34.2078 95.16C31.3878 95.16 29.4478 97.34 29.4478 100.54C29.4478 103.7 31.4078 105.9 34.2478 105.9C36.3078 105.9 37.6878 104.74 38.1678 103.32C38.2078 103.26 39.1678 103.4 39.1678 104.16C39.1678 104.56 38.8478 105.24 38.1878 105.84C37.4078 106.56 36.0278 107.22 34.1878 107.22C30.4078 107.22 27.8878 104.48 27.8878 100.56ZM40.4798 102.22C40.4798 99.32 42.4798 97.24 45.3398 97.24C48.1598 97.24 50.1598 99.34 50.1598 102.26C50.1598 105.14 48.1598 107.22 45.3198 107.22C42.4598 107.22 40.4798 105.12 40.4798 102.22ZM48.7598 102.26C48.7598 100.06 47.3398 98.46 45.3398 98.46C43.3398 98.46 41.8798 100.02 41.8798 102.22C41.8798 104.42 43.3398 106 45.3398 106C47.3198 106 48.7598 104.44 48.7598 102.26ZM63.0545 97.24C65.3945 97.24 66.5945 98.74 66.5945 101.26V106.38C66.5945 106.9 66.3345 107.06 65.9545 107.06H65.7945C65.4145 107.06 65.1545 106.9 65.1545 106.38V101.38C65.1545 99.54 64.3345 98.52 62.7545 98.52C61.6345 98.52 60.5545 99.24 60.0945 100.42V106.38C60.0945 106.9 59.8145 107.06 59.4545 107.06H59.2945C58.9145 107.06 58.6545 106.9 58.6545 106.38V101.26C58.6545 99.52 57.8545 98.52 56.2545 98.52C55.1545 98.52 54.0745 99.24 53.5745 100.42V106.38C53.5745 106.9 53.3145 107.06 52.9545 107.06H52.7745C52.4145 107.06 52.1345 106.9 52.1345 106.38V97.54C52.1345 97.5 52.3745 97.38 52.6545 97.38C53.0945 97.38 53.4945 97.6 53.5345 98.56L53.5545 99.04C54.1745 97.98 55.2545 97.24 56.5745 97.24C58.1945 97.24 59.2745 98.06 59.7345 99.36C60.3145 98.12 61.4745 97.24 63.0545 97.24ZM70.4881 105.24V106.44C70.4681 106.9 70.2281 107.06 69.8881 107.06H69.7281C69.3481 107.06 69.0881 106.9 69.0881 106.34V93.52C69.0881 93.46 69.3081 93.36 69.5881 93.36C70.0481 93.36 70.5081 93.6 70.5081 94.64V99.22C71.2481 98.02 72.3881 97.24 74.0281 97.24C76.4881 97.24 78.3881 99.22 78.3881 102.2C78.3881 105.18 76.5281 107.22 73.9481 107.22C72.1881 107.22 70.9881 106.3 70.4881 105.24ZM76.9681 102.22C76.9681 100 75.5881 98.46 73.7481 98.46C72.1281 98.46 71.0281 99.38 70.4881 100.76V102.92C70.5081 104.66 71.9281 106 73.7081 106C75.6481 106 76.9681 104.48 76.9681 102.22ZM79.7571 104.54C79.7571 102.38 81.7971 101.46 86.2971 101.4H86.5171V101C86.5171 99.38 85.5771 98.48 83.9371 98.48C82.4171 98.48 81.4971 99.22 81.0171 100.18C80.9771 100.2 80.1371 100.16 80.1371 99.44C80.1371 99.16 80.3371 98.74 80.7171 98.38C81.3371 97.78 82.4371 97.24 84.0171 97.24C86.5571 97.24 87.9371 98.66 87.9371 101.02V106.92C87.9371 106.98 87.6771 107.08 87.4171 107.08C86.9971 107.08 86.6571 106.88 86.5771 106.16C86.5571 105.88 86.5371 105.58 86.5371 105.28C85.8971 106.44 84.5971 107.2 82.9971 107.2C80.9971 107.2 79.7571 106.16 79.7571 104.54ZM86.5171 103.26V102.34L86.1771 102.36C82.6971 102.44 81.1971 103.04 81.1971 104.5C81.1971 105.5 81.9971 106.12 83.2771 106.12C85.1171 106.12 86.5171 104.88 86.5171 103.26ZM93.5386 107.22C91.7786 107.22 90.9186 106.24 90.9186 104.22V98.68H89.9786C89.5186 98.68 89.3586 98.48 89.3586 98.14V98C89.3586 97.66 89.5186 97.46 89.9786 97.46H90.9186V95.78C90.9186 95.28 91.1786 95.08 91.5586 95.08H91.7186C92.0986 95.08 92.3386 95.26 92.3386 95.78V97.46H94.7586C95.1986 97.46 95.3786 97.64 95.3786 98V98.12C95.3786 98.48 95.1986 98.68 94.7386 98.68H92.3186V104C92.3186 105.4 92.7386 106 93.7386 106C94.3786 106 94.8586 105.7 95.1586 105.26C95.2186 105.22 95.5586 105.42 95.5586 105.92C95.5586 106.16 95.4586 106.42 95.1986 106.66C94.8586 106.98 94.3186 107.22 93.5386 107.22ZM96.554 102.28C96.554 99.38 98.534 97.24 101.274 97.24C103.934 97.24 105.654 99.12 105.654 101.94V102.08C105.654 102.42 105.514 102.54 105.154 102.54H97.934C97.934 102.62 97.934 102.72 97.954 102.82C98.134 104.74 99.514 106.02 101.434 106.02C103.214 106.02 104.054 105.18 104.534 104.26C104.614 104.22 105.354 104.38 105.354 105.02C105.354 105.32 105.114 105.78 104.594 106.2C103.994 106.72 102.894 107.22 101.414 107.22C98.514 107.22 96.554 105.2 96.554 102.28ZM104.234 101.5C104.154 99.64 103.014 98.4 101.274 98.4C99.534 98.4 98.234 99.68 97.974 101.5H104.234ZM110.421 102.22C110.421 99.32 112.421 97.24 115.281 97.24C118.101 97.24 120.101 99.34 120.101 102.26C120.101 105.14 118.101 107.22 115.261 107.22C112.401 107.22 110.421 105.12 110.421 102.22ZM118.701 102.26C118.701 100.06 117.281 98.46 115.281 98.46C113.281 98.46 111.821 100.02 111.821 102.22C111.821 104.42 113.281 106 115.281 106C117.261 106 118.701 104.44 118.701 102.26ZM124.894 102.2C124.894 99.34 126.894 97.24 129.714 97.24C131.214 97.24 132.254 97.78 132.894 98.4C133.434 98.9 133.674 99.48 133.674 99.84C133.674 100.48 132.814 100.6 132.754 100.52C132.334 99.42 131.474 98.48 129.734 98.48C127.734 98.48 126.314 100.04 126.314 102.2C126.314 104.4 127.714 105.98 129.734 105.98C131.454 105.98 132.334 105.04 132.754 103.94C132.794 103.86 133.674 103.96 133.674 104.64C133.674 104.96 133.434 105.52 132.894 106.04C132.274 106.7 131.214 107.22 129.694 107.22C126.894 107.22 124.894 105.12 124.894 102.2ZM134.972 104.54C134.972 102.38 137.012 101.46 141.512 101.4H141.732V101C141.732 99.38 140.792 98.48 139.152 98.48C137.632 98.48 136.712 99.22 136.232 100.18C136.192 100.2 135.352 100.16 135.352 99.44C135.352 99.16 135.552 98.74 135.932 98.38C136.552 97.78 137.652 97.24 139.232 97.24C141.772 97.24 143.152 98.66 143.152 101.02V106.92C143.152 106.98 142.892 107.08 142.632 107.08C142.212 107.08 141.872 106.88 141.792 106.16C141.772 105.88 141.752 105.58 141.752 105.28C141.112 106.44 139.812 107.2 138.212 107.2C136.212 107.2 134.972 106.16 134.972 104.54ZM141.732 103.26V102.34L141.392 102.36C137.912 102.44 136.412 103.04 136.412 104.5C136.412 105.5 137.212 106.12 138.492 106.12C140.332 106.12 141.732 104.88 141.732 103.26ZM150.311 97.24C152.771 97.24 153.971 98.94 153.971 101.38V106.38C153.971 106.9 153.711 107.06 153.351 107.06H153.171C152.791 107.06 152.531 106.9 152.531 106.38V101.5C152.531 99.66 151.651 98.52 150.031 98.52C148.631 98.52 147.591 99.3 147.071 100.44V106.38C147.071 106.9 146.811 107.06 146.451 107.06H146.271C145.891 107.06 145.631 106.9 145.631 106.38V97.54C145.631 97.5 145.871 97.38 146.151 97.38C146.591 97.38 146.991 97.6 147.031 98.58V99.14C147.671 98 148.791 97.24 150.311 97.24ZM156.311 106.22C155.911 105.88 155.731 105.56 155.731 105.26C155.731 104.76 156.291 104.54 156.351 104.56C156.951 105.42 158.031 106.06 159.591 106.06C161.091 106.06 161.971 105.42 161.971 104.48C161.971 103.36 160.931 103.14 159.311 102.78C157.851 102.48 156.011 102.06 156.011 100.12C156.011 98.42 157.431 97.24 159.631 97.24C161.171 97.24 162.211 97.74 162.751 98.32C162.971 98.54 163.111 98.84 163.111 99.08C163.111 99.58 162.531 99.84 162.491 99.8C161.971 99 160.931 98.38 159.651 98.38C158.191 98.38 157.351 99.04 157.351 99.96C157.351 101 158.351 101.24 159.931 101.6C161.491 101.94 163.371 102.36 163.371 104.32C163.371 106.06 161.911 107.22 159.571 107.22C158.011 107.22 156.931 106.76 156.311 106.22ZM164.757 104.54C164.757 102.38 166.797 101.46 171.297 101.4H171.517V101C171.517 99.38 170.577 98.48 168.937 98.48C167.417 98.48 166.497 99.22 166.017 100.18C165.977 100.2 165.137 100.16 165.137 99.44C165.137 99.16 165.337 98.74 165.717 98.38C166.337 97.78 167.437 97.24 169.017 97.24C171.557 97.24 172.937 98.66 172.937 101.02V106.92C172.937 106.98 172.677 107.08 172.417 107.08C171.997 107.08 171.657 106.88 171.577 106.16C171.557 105.88 171.537 105.58 171.537 105.28C170.897 106.44 169.597 107.2 167.997 107.2C165.997 107.2 164.757 106.16 164.757 104.54ZM171.517 103.26V102.34L171.177 102.36C167.697 102.44 166.197 103.04 166.197 104.5C166.197 105.5 166.997 106.12 168.277 106.12C170.117 106.12 171.517 104.88 171.517 103.26ZM179.076 111.4C177.856 111.4 177.136 110.62 177.136 110.06C177.136 109.66 177.316 109.48 177.636 109.44C177.816 109.68 178.256 110.22 178.936 110.22C179.556 110.22 180.116 109.94 180.116 109.14C180.116 108.32 179.116 107.38 178.276 107.04C176.196 106.5 174.816 104.64 174.816 102.2C174.816 99.34 176.816 97.24 179.636 97.24C181.136 97.24 182.176 97.78 182.816 98.4C183.356 98.9 183.596 99.48 183.596 99.84C183.596 100.48 182.736 100.6 182.676 100.52C182.256 99.42 181.396 98.48 179.656 98.48C177.656 98.48 176.236 100.04 176.236 102.2C176.236 104.4 177.636 105.98 179.656 105.98C181.376 105.98 182.256 105.04 182.676 103.94C182.716 103.86 183.596 103.96 183.596 104.64C183.596 104.96 183.376 105.5 182.856 106.02C182.356 106.52 181.636 106.96 180.636 107.14C180.396 107.18 180.156 107.2 179.896 107.2C180.616 107.68 181.296 108.5 181.296 109.5C181.296 110.86 180.156 111.4 179.076 111.4ZM184.874 102.22C184.874 99.32 186.874 97.24 189.734 97.24C192.554 97.24 194.554 99.34 194.554 102.26C194.554 105.14 192.554 107.22 189.714 107.22C186.854 107.22 184.874 105.12 184.874 102.22ZM193.154 102.26C193.154 100.06 191.734 98.46 189.734 98.46C187.734 98.46 186.274 100.02 186.274 102.22C186.274 104.42 187.734 106 189.734 106C191.714 106 193.154 104.44 193.154 102.26ZM46.9544 127.28C46.9544 124.38 48.9344 122.24 51.6744 122.24C54.3344 122.24 56.0544 124.12 56.0544 126.94V127.08C56.0544 127.42 55.9144 127.54 55.5544 127.54H48.3344C48.3344 127.62 48.3344 127.72 48.3544 127.82C48.5344 129.74 49.9144 131.02 51.8344 131.02C53.6144 131.02 54.4544 130.18 54.9344 129.26C55.0144 129.22 55.7544 129.38 55.7544 130.02C55.7544 130.32 55.5144 130.78 54.9944 131.2C54.3944 131.72 53.2944 132.22 51.8144 132.22C48.9144 132.22 46.9544 130.2 46.9544 127.28ZM54.6344 126.5C54.5544 124.64 53.4144 123.4 51.6744 123.4C49.9344 123.4 48.6344 124.68 48.3744 126.5H54.6344ZM65.2216 132.22C62.7016 132.22 60.8216 130.22 60.8216 127.22C60.8216 124.26 62.7016 122.24 65.2616 122.24C66.9616 122.24 68.1616 123.1 68.7016 124.08V118.52C68.7016 118.46 68.9216 118.36 69.2016 118.36C69.6816 118.36 70.1416 118.6 70.1416 119.64V131.38C70.1416 131.9 69.8816 132.06 69.5016 132.06H69.3616C69.0016 132.06 68.7416 131.9 68.7416 131.42C68.7216 131.02 68.7216 130.62 68.7216 130.18C68.0416 131.4 66.9016 132.22 65.2216 132.22ZM68.7016 127.88V125.74C68.1816 124.36 67.1216 123.46 65.5016 123.46C63.5816 123.46 62.2616 124.96 62.2616 127.22C62.2616 129.44 63.6016 131 65.4816 131C67.2616 131 68.7016 129.66 68.7016 127.88ZM74.9907 121.02C74.8507 121.02 74.8107 120.98 74.8107 120.94C74.8107 120.74 76.6707 117.72 77.8507 117.72C78.2107 117.72 78.4707 118 78.4707 118.36C78.4707 119.5 75.1907 121.02 74.9907 121.02ZM72.1107 129.54C72.1107 127.38 74.1507 126.46 78.6507 126.4H78.8707V126C78.8707 124.38 77.9307 123.48 76.2907 123.48C74.7707 123.48 73.8507 124.22 73.3707 125.18C73.3307 125.2 72.4907 125.16 72.4907 124.44C72.4907 124.16 72.6907 123.74 73.0707 123.38C73.6907 122.78 74.7907 122.24 76.3707 122.24C78.9107 122.24 80.2907 123.66 80.2907 126.02V131.92C80.2907 131.98 80.0307 132.08 79.7707 132.08C79.3507 132.08 79.0107 131.88 78.9307 131.16C78.9107 130.88 78.8907 130.58 78.8907 130.28C78.2507 131.44 76.9507 132.2 75.3507 132.2C73.3507 132.2 72.1107 131.16 72.1107 129.54ZM78.8707 128.26V127.34L78.5307 127.36C75.0507 127.44 73.5507 128.04 73.5507 129.5C73.5507 130.5 74.3507 131.12 75.6307 131.12C77.4707 131.12 78.8707 129.88 78.8707 128.26ZM89.9872 132.22C87.4672 132.22 85.5872 130.22 85.5872 127.22C85.5872 124.26 87.4672 122.24 90.0272 122.24C91.7272 122.24 92.9272 123.1 93.4672 124.08V118.52C93.4672 118.46 93.6872 118.36 93.9672 118.36C94.4472 118.36 94.9072 118.6 94.9072 119.64V131.38C94.9072 131.9 94.6472 132.06 94.2672 132.06H94.1272C93.7672 132.06 93.5072 131.9 93.5072 131.42C93.4872 131.02 93.4872 130.62 93.4872 130.18C92.8072 131.4 91.6672 132.22 89.9872 132.22ZM93.4672 127.88V125.74C92.9472 124.36 91.8872 123.46 90.2672 123.46C88.3472 123.46 87.0272 124.96 87.0272 127.22C87.0272 129.44 88.3672 131 90.2472 131C92.0272 131 93.4672 129.66 93.4672 127.88ZM97.4158 119.46C97.4158 118.86 97.7558 118.54 98.3358 118.54C98.9158 118.54 99.2558 118.86 99.2558 119.46C99.2558 120.04 98.8958 120.36 98.3158 120.36C97.7558 120.36 97.4158 120.04 97.4158 119.46ZM97.5958 131.38V123.08C97.5958 122.56 97.8558 122.38 98.2358 122.38H98.3958C98.7758 122.38 99.0358 122.54 99.0358 123.08V131.38C99.0358 131.9 98.7758 132.06 98.3958 132.06H98.2358C97.8558 132.06 97.5958 131.9 97.5958 131.38ZM101.555 131.22C101.155 130.88 100.975 130.56 100.975 130.26C100.975 129.76 101.535 129.54 101.595 129.56C102.195 130.42 103.275 131.06 104.835 131.06C106.335 131.06 107.215 130.42 107.215 129.48C107.215 128.36 106.175 128.14 104.555 127.78C103.095 127.48 101.255 127.06 101.255 125.12C101.255 123.42 102.675 122.24 104.875 122.24C106.415 122.24 107.455 122.74 107.995 123.32C108.215 123.54 108.355 123.84 108.355 124.08C108.355 124.58 107.775 124.84 107.735 124.8C107.215 124 106.175 123.38 104.895 123.38C103.435 123.38 102.595 124.04 102.595 124.96C102.595 126 103.595 126.24 105.175 126.6C106.735 126.94 108.615 127.36 108.615 129.32C108.615 131.06 107.155 132.22 104.815 132.22C103.255 132.22 102.175 131.76 101.555 131.22ZM115.521 122.24C118.021 122.24 119.921 124.22 119.921 127.2C119.921 130.18 118.061 132.22 115.481 132.22C113.741 132.22 112.541 131.26 112.041 130.22V135.18C112.041 135.68 111.781 135.86 111.421 135.86H111.261C110.881 135.86 110.621 135.68 110.621 135.18V122.54C110.621 122.5 110.841 122.38 111.121 122.38C111.541 122.38 111.941 122.62 112.001 123.46C112.001 123.7 112.021 124.02 112.021 124.28C112.721 123.04 113.861 122.24 115.521 122.24ZM115.221 131C117.181 131 118.501 129.48 118.501 127.22C118.501 125 117.121 123.46 115.261 123.46C113.661 123.46 112.561 124.38 112.021 125.76V127.88C112.021 129.64 113.461 131 115.221 131ZM121.29 127.22C121.29 124.32 123.29 122.24 126.15 122.24C128.97 122.24 130.97 124.34 130.97 127.26C130.97 130.14 128.97 132.22 126.13 132.22C123.27 132.22 121.29 130.12 121.29 127.22ZM129.57 127.26C129.57 125.06 128.15 123.46 126.15 123.46C124.15 123.46 122.69 125.02 122.69 127.22C122.69 129.42 124.15 131 126.15 131C128.13 131 129.57 129.44 129.57 127.26ZM132.805 131.22C132.405 130.88 132.225 130.56 132.225 130.26C132.225 129.76 132.785 129.54 132.845 129.56C133.445 130.42 134.525 131.06 136.085 131.06C137.585 131.06 138.465 130.42 138.465 129.48C138.465 128.36 137.425 128.14 135.805 127.78C134.345 127.48 132.505 127.06 132.505 125.12C132.505 123.42 133.925 122.24 136.125 122.24C137.665 122.24 138.705 122.74 139.245 123.32C139.465 123.54 139.605 123.84 139.605 124.08C139.605 124.58 139.025 124.84 138.985 124.8C138.465 124 137.425 123.38 136.145 123.38C134.685 123.38 133.845 124.04 133.845 124.96C133.845 126 134.845 126.24 136.425 126.6C137.985 126.94 139.865 127.36 139.865 129.32C139.865 131.06 138.405 132.22 136.065 132.22C134.505 132.22 133.425 131.76 132.805 131.22ZM141.771 119.46C141.771 118.86 142.111 118.54 142.691 118.54C143.271 118.54 143.611 118.86 143.611 119.46C143.611 120.04 143.251 120.36 142.671 120.36C142.111 120.36 141.771 120.04 141.771 119.46ZM141.951 131.38V123.08C141.951 122.56 142.211 122.38 142.591 122.38H142.751C143.131 122.38 143.391 122.54 143.391 123.08V131.38C143.391 131.9 143.131 132.06 142.751 132.06H142.591C142.211 132.06 141.951 131.9 141.951 131.38ZM149.711 136.4C148.491 136.4 147.771 135.62 147.771 135.06C147.771 134.66 147.951 134.48 148.271 134.44C148.451 134.68 148.891 135.22 149.571 135.22C150.191 135.22 150.751 134.94 150.751 134.14C150.751 133.32 149.751 132.38 148.911 132.04C146.831 131.5 145.451 129.64 145.451 127.2C145.451 124.34 147.451 122.24 150.271 122.24C151.771 122.24 152.811 122.78 153.451 123.4C153.991 123.9 154.231 124.48 154.231 124.84C154.231 125.48 153.371 125.6 153.311 125.52C152.891 124.42 152.031 123.48 150.291 123.48C148.291 123.48 146.871 125.04 146.871 127.2C146.871 129.4 148.271 130.98 150.291 130.98C152.011 130.98 152.891 130.04 153.311 128.94C153.351 128.86 154.231 128.96 154.231 129.64C154.231 129.96 154.011 130.5 153.491 131.02C152.991 131.52 152.271 131.96 151.271 132.14C151.031 132.18 150.791 132.2 150.531 132.2C151.251 132.68 151.931 133.5 151.931 134.5C151.931 135.86 150.791 136.4 149.711 136.4ZM157.509 120.68C157.329 120.68 157.189 120.62 157.049 120.5C156.989 120.38 156.989 120.18 156.989 120C157.089 119.04 157.649 118.26 158.529 118.26C159.129 118.26 159.569 118.6 159.969 118.94C160.409 119.34 160.709 119.6 161.049 119.78C161.629 119.52 161.589 118.38 162.149 118.38C162.329 118.38 162.489 118.44 162.589 118.54C162.649 118.7 162.669 118.9 162.669 119.08C162.569 120.04 162.009 120.78 161.129 120.78C160.529 120.78 160.109 120.48 159.689 120.12C159.269 119.76 158.989 119.46 158.629 119.28C158.089 119.56 158.069 120.68 157.509 120.68ZM155.509 129.54C155.509 127.38 157.549 126.46 162.049 126.4H162.269V126C162.269 124.38 161.329 123.48 159.689 123.48C158.169 123.48 157.249 124.22 156.769 125.18C156.729 125.2 155.889 125.16 155.889 124.44C155.889 124.16 156.089 123.74 156.469 123.38C157.089 122.78 158.189 122.24 159.769 122.24C162.309 122.24 163.689 123.66 163.689 126.02V131.92C163.689 131.98 163.429 132.08 163.169 132.08C162.749 132.08 162.409 131.88 162.329 131.16C162.309 130.88 162.289 130.58 162.289 130.28C161.649 131.44 160.349 132.2 158.749 132.2C156.749 132.2 155.509 131.16 155.509 129.54ZM162.269 128.26V127.34L161.929 127.36C158.449 127.44 156.949 128.04 156.949 129.5C156.949 130.5 157.749 131.12 159.029 131.12C160.869 131.12 162.269 129.88 162.269 128.26ZM165.568 127.22C165.568 124.32 167.568 122.24 170.428 122.24C173.248 122.24 175.248 124.34 175.248 127.26C175.248 130.14 173.248 132.22 170.408 132.22C167.548 132.22 165.568 130.12 165.568 127.22ZM173.848 127.26C173.848 125.06 172.428 123.46 170.428 123.46C168.428 123.46 166.968 125.02 166.968 127.22C166.968 129.42 168.428 131 170.428 131C172.408 131 173.848 129.44 173.848 127.26Z" fill="#1A1A1A"/>
</svg>
