<svg width="223" height="154" viewBox="0 0 223 154" fill="none" xmlns="http://www.w3.org/2000/svg">
<rect x="1" y="1" width="220" height="152" rx="15" fill="#FFE57B" stroke="#1A1A1A" stroke-width="2"/>
<path d="M125.588 22C131.146 21.9998 135.718 25.6771 138.077 30.8496C140.434 36.0175 140.5 42.5292 137.15 47.9492C133.228 54.2924 126.099 60.7084 119.869 65.5771C116.768 68.0007 113.915 70.0209 111.838 71.4355C110.8 72.1427 109.955 72.6985 109.372 73.0762C109.238 73.1634 109.116 73.2397 109.01 73.3076C108.918 73.2462 108.814 73.1774 108.7 73.1006C108.154 72.7326 107.363 72.1914 106.389 71.499C104.44 70.1138 101.76 68.128 98.8361 65.7285C92.9654 60.9104 86.2039 54.495 82.3615 47.9678C79.3709 42.8876 79.1 36.3488 81.2638 31.0938C83.4117 25.8774 87.9149 22 94.5001 22C99.7726 22 103.451 23.6735 105.802 25.3193C106.981 26.1451 107.833 26.9679 108.384 27.5771C108.659 27.8815 108.859 28.132 108.987 28.3018C109.051 28.3865 109.098 28.4512 109.126 28.4922C109.14 28.5124 109.15 28.5269 109.155 28.5352C109.157 28.537 109.158 28.5388 109.158 28.54V28.541L110.109 30.0186L110.894 28.4463H110.895C110.898 28.4396 110.905 28.4267 110.915 28.4082C110.936 28.3706 110.972 28.3098 111.023 28.2285C111.124 28.0658 111.287 27.8226 111.522 27.5254C111.99 26.9312 112.741 26.1218 113.853 25.3066C116.063 23.6854 119.752 22.0003 125.588 22Z" fill="#FC5B03" stroke="#1A1A1A" stroke-width="2"/>
<path d="M33.8379 106.38V94.86C33.8379 94.34 34.1979 94 34.7379 94H35.1379C35.7779 94 35.9379 94.24 36.1979 94.84L39.6979 102.16L43.1979 94.84C43.4379 94.22 43.6379 94 44.2179 94H44.5979C45.1779 94 45.5179 94.34 45.5179 94.86V106.38C45.5179 106.82 45.3379 107.06 44.8979 107.06H44.7179C44.2979 107.06 44.0979 106.82 44.0979 106.38V102.86L44.1179 95.82L40.6979 102.98C40.5179 103.42 40.3179 103.7 39.6779 103.7C38.9979 103.7 38.8379 103.42 38.6379 102.98L35.2379 95.84L35.2579 102.82V106.38C35.2579 106.82 35.0779 107.06 34.6379 107.06H34.4179C33.9979 107.06 33.8379 106.82 33.8379 106.38ZM47.6868 104.54C47.6868 102.38 49.7268 101.46 54.2268 101.4H54.4468V101C54.4468 99.38 53.5068 98.48 51.8668 98.48C50.3468 98.48 49.4268 99.22 48.9468 100.18C48.9068 100.2 48.0668 100.16 48.0668 99.44C48.0668 99.16 48.2668 98.74 48.6468 98.38C49.2668 97.78 50.3668 97.24 51.9468 97.24C54.4868 97.24 55.8668 98.66 55.8668 101.02V106.92C55.8668 106.98 55.6068 107.08 55.3468 107.08C54.9268 107.08 54.5868 106.88 54.5068 106.16C54.4868 105.88 54.4668 105.58 54.4668 105.28C53.8268 106.44 52.5268 107.2 50.9268 107.2C48.9268 107.2 47.6868 106.16 47.6868 104.54ZM54.4468 103.26V102.34L54.1068 102.36C50.6268 102.44 49.1268 103.04 49.1268 104.5C49.1268 105.5 49.9268 106.12 51.2068 106.12C53.0468 106.12 54.4468 104.88 54.4468 103.26ZM63.0254 97.24C65.4854 97.24 66.6854 98.94 66.6854 101.38V106.38C66.6854 106.9 66.4254 107.06 66.0654 107.06H65.8854C65.5054 107.06 65.2454 106.9 65.2454 106.38V101.5C65.2454 99.66 64.3654 98.52 62.7454 98.52C61.3454 98.52 60.3054 99.3 59.7854 100.44V106.38C59.7854 106.9 59.5254 107.06 59.1654 107.06H58.9854C58.6054 107.06 58.3454 106.9 58.3454 106.38V97.54C58.3454 97.5 58.5854 97.38 58.8654 97.38C59.3054 97.38 59.7054 97.6 59.7454 98.58V99.14C60.3854 98 61.5054 97.24 63.0254 97.24ZM72.4057 107.22C70.6457 107.22 69.7857 106.24 69.7857 104.22V98.68H68.8457C68.3857 98.68 68.2257 98.48 68.2257 98.14V98C68.2257 97.66 68.3857 97.46 68.8457 97.46H69.7857V95.78C69.7857 95.28 70.0457 95.08 70.4257 95.08H70.5857C70.9657 95.08 71.2057 95.26 71.2057 95.78V97.46H73.6257C74.0657 97.46 74.2457 97.64 74.2457 98V98.12C74.2457 98.48 74.0657 98.68 73.6057 98.68H71.1857V104C71.1857 105.4 71.6057 106 72.6057 106C73.2457 106 73.7257 105.7 74.0257 105.26C74.0857 105.22 74.4257 105.42 74.4257 105.92C74.4257 106.16 74.3257 106.42 74.0657 106.66C73.7257 106.98 73.1857 107.22 72.4057 107.22ZM78.7612 96.02C78.6212 96.02 78.5812 95.98 78.5812 95.94C78.5812 95.74 80.4412 92.72 81.6212 92.72C81.9812 92.72 82.2412 93 82.2412 93.36C82.2412 94.5 78.9612 96.02 78.7612 96.02ZM75.4212 102.28C75.4212 99.38 77.4012 97.24 80.1412 97.24C82.8012 97.24 84.5212 99.12 84.5212 101.94V102.08C84.5212 102.42 84.3812 102.54 84.0212 102.54H76.8012C76.8012 102.62 76.8012 102.72 76.8212 102.82C77.0012 104.74 78.3812 106.02 80.3012 106.02C82.0812 106.02 82.9212 105.18 83.4012 104.26C83.4812 104.22 84.2212 104.38 84.2212 105.02C84.2212 105.32 83.9812 105.78 83.4612 106.2C82.8612 106.72 81.7612 107.22 80.2812 107.22C77.3812 107.22 75.4212 105.2 75.4212 102.28ZM83.1012 101.5C83.0212 99.64 81.8812 98.4 80.1412 98.4C78.4012 98.4 77.1012 99.68 76.8412 101.5H83.1012ZM97.3904 97.24C99.7304 97.24 100.93 98.74 100.93 101.26V106.38C100.93 106.9 100.67 107.06 100.29 107.06H100.13C99.7504 107.06 99.4904 106.9 99.4904 106.38V101.38C99.4904 99.54 98.6704 98.52 97.0904 98.52C95.9704 98.52 94.8904 99.24 94.4304 100.42V106.38C94.4304 106.9 94.1504 107.06 93.7904 107.06H93.6304C93.2504 107.06 92.9904 106.9 92.9904 106.38V101.26C92.9904 99.52 92.1904 98.52 90.5904 98.52C89.4904 98.52 88.4104 99.24 87.9104 100.42V106.38C87.9104 106.9 87.6504 107.06 87.2904 107.06H87.1104C86.7504 107.06 86.4704 106.9 86.4704 106.38V97.54C86.4704 97.5 86.7104 97.38 86.9904 97.38C87.4304 97.38 87.8304 97.6 87.8704 98.56L87.8904 99.04C88.5104 97.98 89.5904 97.24 90.9104 97.24C92.5304 97.24 93.6104 98.06 94.0704 99.36C94.6504 98.12 95.8104 97.24 97.3904 97.24ZM106.222 102.22C106.222 99.32 108.222 97.24 111.082 97.24C113.902 97.24 115.902 99.34 115.902 102.26C115.902 105.14 113.902 107.22 111.062 107.22C108.202 107.22 106.222 105.12 106.222 102.22ZM114.502 102.26C114.502 100.06 113.082 98.46 111.082 98.46C109.082 98.46 107.622 100.02 107.622 102.22C107.622 104.42 109.082 106 111.082 106C113.062 106 114.502 104.44 114.502 102.26ZM125.175 97.24C126.035 97.24 126.595 97.66 126.595 98.28C126.595 98.86 126.195 99.1 126.155 99.06C125.915 98.82 125.535 98.66 125.015 98.66C123.455 98.66 122.735 100.2 122.735 102.6V106.38C122.735 106.88 122.475 107.06 122.115 107.06H121.955C121.555 107.06 121.295 106.9 121.295 106.38V97.54C121.295 97.5 121.515 97.38 121.815 97.38C122.215 97.38 122.575 97.58 122.655 98.34C122.675 98.68 122.695 99.02 122.695 99.38C123.075 97.94 123.955 97.24 125.175 97.24ZM128.07 94.46C128.07 93.86 128.41 93.54 128.99 93.54C129.57 93.54 129.91 93.86 129.91 94.46C129.91 95.04 129.55 95.36 128.97 95.36C128.41 95.36 128.07 95.04 128.07 94.46ZM128.25 106.38V98.08C128.25 97.56 128.51 97.38 128.89 97.38H129.05C129.43 97.38 129.69 97.54 129.69 98.08V106.38C129.69 106.9 129.43 107.06 129.05 107.06H128.89C128.51 107.06 128.25 106.9 128.25 106.38ZM135.589 107.22C133.829 107.22 132.969 106.24 132.969 104.22V98.68H132.029C131.569 98.68 131.409 98.48 131.409 98.14V98C131.409 97.66 131.569 97.46 132.029 97.46H132.969V95.78C132.969 95.28 133.229 95.08 133.609 95.08H133.769C134.149 95.08 134.389 95.26 134.389 95.78V97.46H136.809C137.249 97.46 137.429 97.64 137.429 98V98.12C137.429 98.48 137.249 98.68 136.789 98.68H134.369V104C134.369 105.4 134.789 106 135.789 106C136.429 106 136.909 105.7 137.209 105.26C137.269 105.22 137.609 105.42 137.609 105.92C137.609 106.16 137.509 106.42 137.249 106.66C136.909 106.98 136.369 107.22 135.589 107.22ZM150.125 97.24C152.465 97.24 153.665 98.74 153.665 101.26V106.38C153.665 106.9 153.405 107.06 153.025 107.06H152.865C152.485 107.06 152.225 106.9 152.225 106.38V101.38C152.225 99.54 151.405 98.52 149.825 98.52C148.705 98.52 147.625 99.24 147.165 100.42V106.38C147.165 106.9 146.885 107.06 146.525 107.06H146.365C145.985 107.06 145.725 106.9 145.725 106.38V101.26C145.725 99.52 144.925 98.52 143.325 98.52C142.225 98.52 141.145 99.24 140.645 100.42V106.38C140.645 106.9 140.385 107.06 140.025 107.06H139.845C139.485 107.06 139.205 106.9 139.205 106.38V97.54C139.205 97.5 139.445 97.38 139.725 97.38C140.165 97.38 140.565 97.6 140.605 98.56L140.625 99.04C141.245 97.98 142.325 97.24 143.645 97.24C145.265 97.24 146.345 98.06 146.805 99.36C147.385 98.12 148.545 97.24 150.125 97.24ZM155.538 102.22C155.538 99.32 157.538 97.24 160.398 97.24C163.218 97.24 165.218 99.34 165.218 102.26C165.218 105.14 163.218 107.22 160.378 107.22C157.518 107.22 155.538 105.12 155.538 102.22ZM163.818 102.26C163.818 100.06 162.398 98.46 160.398 98.46C158.398 98.46 156.938 100.02 156.938 102.22C156.938 104.42 158.398 106 160.398 106C162.378 106 163.818 104.44 163.818 102.26ZM170.011 102.28C170.011 99.38 171.991 97.24 174.731 97.24C177.391 97.24 179.111 99.12 179.111 101.94V102.08C179.111 102.42 178.971 102.54 178.611 102.54H171.391C171.391 102.62 171.391 102.72 171.411 102.82C171.591 104.74 172.971 106.02 174.891 106.02C176.671 106.02 177.511 105.18 177.991 104.26C178.071 104.22 178.811 104.38 178.811 105.02C178.811 105.32 178.571 105.78 178.051 106.2C177.451 106.72 176.351 107.22 174.871 107.22C171.971 107.22 170.011 105.2 170.011 102.28ZM177.691 101.5C177.611 99.64 176.471 98.4 174.731 98.4C172.991 98.4 171.691 99.68 171.431 101.5H177.691ZM183.878 104.54C183.878 102.38 185.918 101.46 190.418 101.4H190.638V101C190.638 99.38 189.698 98.48 188.058 98.48C186.538 98.48 185.618 99.22 185.138 100.18C185.098 100.2 184.258 100.16 184.258 99.44C184.258 99.16 184.458 98.74 184.838 98.38C185.458 97.78 186.558 97.24 188.138 97.24C190.678 97.24 192.058 98.66 192.058 101.02V106.92C192.058 106.98 191.798 107.08 191.538 107.08C191.118 107.08 190.778 106.88 190.698 106.16C190.678 105.88 190.658 105.58 190.658 105.28C190.018 106.44 188.718 107.2 187.118 107.2C185.118 107.2 183.878 106.16 183.878 104.54ZM190.638 103.26V102.34L190.298 102.36C186.818 102.44 185.318 103.04 185.318 104.5C185.318 105.5 186.118 106.12 187.398 106.12C189.238 106.12 190.638 104.88 190.638 103.26ZM37.3656 131.22C36.9656 130.88 36.7856 130.56 36.7856 130.26C36.7856 129.76 37.3456 129.54 37.4056 129.56C38.0056 130.42 39.0856 131.06 40.6456 131.06C42.1456 131.06 43.0256 130.42 43.0256 129.48C43.0256 128.36 41.9856 128.14 40.3656 127.78C38.9056 127.48 37.0656 127.06 37.0656 125.12C37.0656 123.42 38.4856 122.24 40.6856 122.24C42.2256 122.24 43.2656 122.74 43.8056 123.32C44.0256 123.54 44.1656 123.84 44.1656 124.08C44.1656 124.58 43.5856 124.84 43.5456 124.8C43.0256 124 41.9856 123.38 40.7056 123.38C39.2456 123.38 38.4056 124.04 38.4056 124.96C38.4056 126 39.4056 126.24 40.9856 126.6C42.5456 126.94 44.4256 127.36 44.4256 129.32C44.4256 131.06 42.9656 132.22 40.6256 132.22C39.0656 132.22 37.9856 131.76 37.3656 131.22ZM45.8118 129.54C45.8118 127.38 47.8518 126.46 52.3518 126.4H52.5718V126C52.5718 124.38 51.6318 123.48 49.9918 123.48C48.4718 123.48 47.5518 124.22 47.0718 125.18C47.0318 125.2 46.1918 125.16 46.1918 124.44C46.1918 124.16 46.3918 123.74 46.7718 123.38C47.3918 122.78 48.4918 122.24 50.0718 122.24C52.6118 122.24 53.9918 123.66 53.9918 126.02V131.92C53.9918 131.98 53.7318 132.08 53.4718 132.08C53.0518 132.08 52.7118 131.88 52.6318 131.16C52.6118 130.88 52.5918 130.58 52.5918 130.28C51.9518 131.44 50.6518 132.2 49.0518 132.2C47.0518 132.2 45.8118 131.16 45.8118 129.54ZM52.5718 128.26V127.34L52.2318 127.36C48.7518 127.44 47.2518 128.04 47.2518 129.5C47.2518 130.5 48.0518 131.12 49.3318 131.12C51.1718 131.12 52.5718 129.88 52.5718 128.26ZM59.1704 121.02C59.0304 121.02 58.9904 120.98 58.9904 120.94C58.9904 120.74 60.8504 117.72 62.0304 117.72C62.3904 117.72 62.6504 118 62.6504 118.36C62.6504 119.5 59.3704 121.02 59.1704 121.02ZM64.0904 122.38C64.4704 122.38 64.7304 122.54 64.7304 123.06V131.92C64.7304 131.96 64.4904 132.08 64.2104 132.08C63.8104 132.08 63.4504 131.88 63.3704 131.14C63.3504 130.88 63.3304 130.62 63.3304 130.36C62.6904 131.42 61.5904 132.22 60.0504 132.22C57.5904 132.22 56.3904 130.52 56.3904 128.06V123.06C56.3904 122.54 56.6504 122.38 57.0304 122.38H57.1904C57.5704 122.38 57.8304 122.54 57.8304 123.06V127.96C57.8304 129.8 58.7304 130.94 60.3504 130.94C61.7304 130.94 62.7704 130.16 63.2904 129V123.06C63.2904 122.54 63.5504 122.38 63.9104 122.38H64.0904ZM71.0907 132.22C68.5707 132.22 66.6907 130.22 66.6907 127.22C66.6907 124.26 68.5707 122.24 71.1307 122.24C72.8307 122.24 74.0307 123.1 74.5707 124.08V118.52C74.5707 118.46 74.7907 118.36 75.0707 118.36C75.5507 118.36 76.0107 118.6 76.0107 119.64V131.38C76.0107 131.9 75.7507 132.06 75.3707 132.06H75.2307C74.8707 132.06 74.6107 131.9 74.6107 131.42C74.5907 131.02 74.5907 130.62 74.5907 130.18C73.9107 131.4 72.7707 132.22 71.0907 132.22ZM74.5707 127.88V125.74C74.0507 124.36 72.9907 123.46 71.3707 123.46C69.4507 123.46 68.1307 124.96 68.1307 127.22C68.1307 129.44 69.4707 131 71.3507 131C73.1307 131 74.5707 129.66 74.5707 127.88ZM77.9798 127.28C77.9798 124.38 79.9598 122.24 82.6998 122.24C85.3598 122.24 87.0798 124.12 87.0798 126.94V127.08C87.0798 127.42 86.9398 127.54 86.5798 127.54H79.3598C79.3598 127.62 79.3598 127.72 79.3798 127.82C79.5598 129.74 80.9398 131.02 82.8598 131.02C84.6398 131.02 85.4798 130.18 85.9598 129.26C86.0398 129.22 86.7798 129.38 86.7798 130.02C86.7798 130.32 86.5398 130.78 86.0198 131.2C85.4198 131.72 84.3198 132.22 82.8398 132.22C79.9398 132.22 77.9798 130.2 77.9798 127.28ZM85.6598 126.5C85.5798 124.64 84.4398 123.4 82.6998 123.4C80.9598 123.4 79.6598 124.68 79.3998 126.5H85.6598ZM96.247 132.22C93.727 132.22 91.847 130.22 91.847 127.22C91.847 124.26 93.727 122.24 96.287 122.24C97.987 122.24 99.187 123.1 99.727 124.08V118.52C99.727 118.46 99.947 118.36 100.227 118.36C100.707 118.36 101.167 118.6 101.167 119.64V131.38C101.167 131.9 100.907 132.06 100.527 132.06H100.387C100.027 132.06 99.767 131.9 99.767 131.42C99.747 131.02 99.747 130.62 99.747 130.18C99.067 131.4 97.927 132.22 96.247 132.22ZM99.727 127.88V125.74C99.207 124.36 98.147 123.46 96.527 123.46C94.607 123.46 93.287 124.96 93.287 127.22C93.287 129.44 94.627 131 96.507 131C98.287 131 99.727 129.66 99.727 127.88ZM103.136 127.22C103.136 124.32 105.136 122.24 107.996 122.24C110.816 122.24 112.816 124.34 112.816 127.26C112.816 130.14 110.816 132.22 107.976 132.22C105.116 132.22 103.136 130.12 103.136 127.22ZM111.416 127.26C111.416 125.06 109.996 123.46 107.996 123.46C105.996 123.46 104.536 125.02 104.536 127.22C104.536 129.42 105.996 131 107.996 131C109.976 131 111.416 129.44 111.416 127.26ZM117.609 127.2C117.609 124.34 119.609 122.24 122.429 122.24C123.929 122.24 124.969 122.78 125.609 123.4C126.149 123.9 126.389 124.48 126.389 124.84C126.389 125.48 125.529 125.6 125.469 125.52C125.049 124.42 124.189 123.48 122.449 123.48C120.449 123.48 119.029 125.04 119.029 127.2C119.029 129.4 120.429 130.98 122.449 130.98C124.169 130.98 125.049 130.04 125.469 128.94C125.509 128.86 126.389 128.96 126.389 129.64C126.389 129.96 126.149 130.52 125.609 131.04C124.989 131.7 123.929 132.22 122.409 132.22C119.609 132.22 117.609 130.12 117.609 127.2ZM127.687 127.22C127.687 124.32 129.687 122.24 132.547 122.24C135.367 122.24 137.367 124.34 137.367 127.26C137.367 130.14 135.367 132.22 132.527 132.22C129.667 132.22 127.687 130.12 127.687 127.22ZM135.967 127.26C135.967 125.06 134.547 123.46 132.547 123.46C130.547 123.46 129.087 125.02 129.087 127.22C129.087 129.42 130.547 131 132.547 131C134.527 131 135.967 129.44 135.967 127.26ZM143.222 122.24C144.082 122.24 144.642 122.66 144.642 123.28C144.642 123.86 144.242 124.1 144.202 124.06C143.962 123.82 143.582 123.66 143.062 123.66C141.502 123.66 140.782 125.2 140.782 127.6V131.38C140.782 131.88 140.522 132.06 140.162 132.06H140.002C139.602 132.06 139.342 131.9 139.342 131.38V122.54C139.342 122.5 139.562 122.38 139.862 122.38C140.262 122.38 140.622 122.58 140.702 123.34C140.722 123.68 140.742 124.02 140.742 124.38C141.122 122.94 142.002 122.24 143.222 122.24ZM145.441 129.54C145.441 127.38 147.481 126.46 151.981 126.4H152.201V126C152.201 124.38 151.261 123.48 149.621 123.48C148.101 123.48 147.181 124.22 146.701 125.18C146.661 125.2 145.821 125.16 145.821 124.44C145.821 124.16 146.021 123.74 146.401 123.38C147.021 122.78 148.121 122.24 149.701 122.24C152.241 122.24 153.621 123.66 153.621 126.02V131.92C153.621 131.98 153.361 132.08 153.101 132.08C152.681 132.08 152.341 131.88 152.261 131.16C152.241 130.88 152.221 130.58 152.221 130.28C151.581 131.44 150.281 132.2 148.681 132.2C146.681 132.2 145.441 131.16 145.441 129.54ZM152.201 128.26V127.34L151.861 127.36C148.381 127.44 146.881 128.04 146.881 129.5C146.881 130.5 147.681 131.12 148.961 131.12C150.801 131.12 152.201 129.88 152.201 128.26ZM159.759 136.4C158.539 136.4 157.819 135.62 157.819 135.06C157.819 134.66 157.999 134.48 158.319 134.44C158.499 134.68 158.939 135.22 159.619 135.22C160.239 135.22 160.799 134.94 160.799 134.14C160.799 133.32 159.799 132.38 158.959 132.04C156.879 131.5 155.499 129.64 155.499 127.2C155.499 124.34 157.499 122.24 160.319 122.24C161.819 122.24 162.859 122.78 163.499 123.4C164.039 123.9 164.279 124.48 164.279 124.84C164.279 125.48 163.419 125.6 163.359 125.52C162.939 124.42 162.079 123.48 160.339 123.48C158.339 123.48 156.919 125.04 156.919 127.2C156.919 129.4 158.319 130.98 160.339 130.98C162.059 130.98 162.939 130.04 163.359 128.94C163.399 128.86 164.279 128.96 164.279 129.64C164.279 129.96 164.059 130.5 163.539 131.02C163.039 131.52 162.319 131.96 161.319 132.14C161.079 132.18 160.839 132.2 160.579 132.2C161.299 132.68 161.979 133.5 161.979 134.5C161.979 135.86 160.839 136.4 159.759 136.4ZM167.558 120.68C167.378 120.68 167.238 120.62 167.098 120.5C167.038 120.38 167.038 120.18 167.038 120C167.138 119.04 167.698 118.26 168.578 118.26C169.178 118.26 169.618 118.6 170.018 118.94C170.458 119.34 170.758 119.6 171.098 119.78C171.678 119.52 171.638 118.38 172.198 118.38C172.378 118.38 172.538 118.44 172.638 118.54C172.698 118.7 172.718 118.9 172.718 119.08C172.618 120.04 172.058 120.78 171.178 120.78C170.578 120.78 170.158 120.48 169.738 120.12C169.318 119.76 169.038 119.46 168.678 119.28C168.138 119.56 168.118 120.68 167.558 120.68ZM165.558 129.54C165.558 127.38 167.598 126.46 172.098 126.4H172.318V126C172.318 124.38 171.378 123.48 169.738 123.48C168.218 123.48 167.298 124.22 166.818 125.18C166.778 125.2 165.938 125.16 165.938 124.44C165.938 124.16 166.138 123.74 166.518 123.38C167.138 122.78 168.238 122.24 169.818 122.24C172.358 122.24 173.738 123.66 173.738 126.02V131.92C173.738 131.98 173.478 132.08 173.218 132.08C172.798 132.08 172.458 131.88 172.378 131.16C172.358 130.88 172.338 130.58 172.338 130.28C171.698 131.44 170.398 132.2 168.798 132.2C166.798 132.2 165.558 131.16 165.558 129.54ZM172.318 128.26V127.34L171.978 127.36C168.498 127.44 166.998 128.04 166.998 129.5C166.998 130.5 167.798 131.12 169.078 131.12C170.918 131.12 172.318 129.88 172.318 128.26ZM175.617 127.22C175.617 124.32 177.617 122.24 180.477 122.24C183.297 122.24 185.297 124.34 185.297 127.26C185.297 130.14 183.297 132.22 180.457 132.22C177.597 132.22 175.617 130.12 175.617 127.22ZM183.897 127.26C183.897 125.06 182.477 123.46 180.477 123.46C178.477 123.46 177.017 125.02 177.017 127.22C177.017 129.42 178.477 131 180.477 131C182.457 131 183.897 129.44 183.897 127.26Z" fill="#1A1A1A"/>
</svg>
