<svg width="223" height="154" viewBox="0 0 223 154" fill="none" xmlns="http://www.w3.org/2000/svg">
<rect x="1.1084" y="1" width="220" height="152" rx="15" fill="#FD86CD" stroke="#1A1A1A" stroke-width="2"/>
<circle cx="114.459" cy="27.3418" r="10.3418" fill="#FD86CD" stroke="#FFFFF3" stroke-width="2"/>
<circle cx="87.1502" cy="62.5783" r="7.25859" fill="#FD86CD" stroke="#FFFFF3" stroke-width="2"/>
<circle cx="128.333" cy="39.0138" r="10.3418" fill="#FD86CD" stroke="#FFFFF3" stroke-width="2"/>
<circle cx="97.2808" cy="71.1675" r="7.25859" fill="#FD86CD" stroke="#FFFFF3" stroke-width="2"/>
<rect x="119.942" y="29.0681" width="10.7733" height="42.7065" transform="rotate(42.4468 119.942 29.0681)" fill="#FD86CD" stroke="#FFFFF3" stroke-width="2"/>
<rect x="88.9426" y="55.7746" width="19.681" height="9.17317" rx="3" transform="rotate(40.637 88.9426 55.7746)" fill="#FD86CD"/>
<rect x="115.638" y="21.7702" width="23.095" height="14.0256" rx="3" transform="rotate(40.637 115.638 21.7702)" fill="#FD86CD"/>
<path d="M41.2641 107.2C37.1041 107.2 34.5241 104.42 34.5241 100.34C34.5241 96.1 37.6041 92.8 41.6441 92.8C42.8041 92.8 43.5041 93.1 44.0841 93.1C44.5241 93.1 44.7241 92.84 45.0641 92.84C45.4441 92.84 45.5841 93.06 45.8241 93.9C45.9841 94.48 46.1841 95.22 46.3841 96.42C46.4641 96.8 46.3841 97.06 46.0841 97.1C45.7441 97.14 45.5641 96.84 45.2641 96.38C44.4041 95.04 43.2641 93.9 41.1641 93.9C38.2041 93.9 36.4441 96.54 36.4441 99.46C36.4441 103.16 38.6441 105.96 41.9041 105.96C43.9441 105.96 45.1641 105.1 46.1241 104.04C46.5241 103.6 46.9841 104.08 46.6041 104.68C46.0441 105.56 44.2641 107.2 41.2641 107.2ZM53.896 97.2C54.976 97.2 55.456 97.88 55.456 98.58C55.456 99.1 55.116 99.58 54.656 99.6C53.816 99.62 53.856 98.74 52.936 98.74C52.056 98.74 51.216 99.98 51.216 101.74V104.36C51.216 106.28 52.136 105.92 52.136 106.62C52.136 106.92 51.856 107 51.356 107H49.216C48.756 107 48.416 106.92 48.416 106.6C48.416 105.92 49.396 106.28 49.396 104.36V100.34C49.396 99.66 49.316 99.16 48.776 98.84C48.556 98.7 48.416 98.58 48.416 98.38C48.416 98.16 48.516 98.04 48.996 97.82C49.676 97.5 50.356 97.28 50.636 97.26C50.896 97.26 51.036 97.36 51.036 97.7L51.016 99.32C51.636 98.14 52.716 97.2 53.896 97.2ZM64.8987 104.42C65.2387 104.06 65.6787 104.28 65.4787 104.78C65.0587 105.76 63.5387 107.2 61.0187 107.2C58.2187 107.2 56.3387 105.18 56.3387 102.54C56.3387 99.52 58.4587 97.2 61.4187 97.2C63.5987 97.2 65.0587 98.46 65.4187 100.18C65.4987 100.54 65.4187 100.82 64.9587 101C62.7987 101.84 60.6787 102.56 58.3587 103.32C58.7387 104.48 59.8787 105.84 61.7387 105.84C63.0787 105.84 64.1787 105.18 64.8987 104.42ZM60.7987 98.14C58.9987 98.16 58.0987 99.8 58.0987 101.26C58.0987 101.76 58.1187 102.14 58.2187 102.48C59.8587 101.94 61.4187 101.42 62.8787 100.86C63.1987 100.74 63.3187 100.54 63.2587 100.18C63.0587 98.94 61.8987 98.1 60.7987 98.14ZM68.2665 107.2C67.9865 107.2 67.9465 107.08 67.7065 106.52C67.4065 105.72 67.2065 105.2 66.9665 104.4C66.9065 104.12 66.9665 103.94 67.1865 103.86C67.3865 103.78 67.6065 103.94 67.8665 104.22C69.4265 105.9 70.5065 106.28 71.5865 106.28C72.4865 106.28 73.2665 105.84 73.2665 104.96C73.2665 104.1 72.1465 103.56 70.5265 102.9C68.7865 102.22 67.1665 101.52 67.1665 99.88C67.1665 98.06 68.8265 97.2 70.3465 97.2C71.4065 97.2 72.0465 97.42 72.5665 97.44C72.8865 97.46 72.9665 97.2 73.2265 97.2C73.4865 97.2 73.6065 97.46 73.8465 97.86C74.1465 98.42 74.3065 98.78 74.4665 99.14C74.5865 99.46 74.5865 99.72 74.3865 99.84C74.0665 100.02 73.7865 99.66 73.1065 99.14C72.3265 98.56 71.3465 98.08 70.4065 98.08C69.3265 98.08 68.7265 98.62 68.7265 99.32C68.7265 100.2 69.6665 100.64 71.5065 101.38C73.4265 102.14 74.9865 102.9 74.9865 104.4C74.9865 105.88 73.5465 107.2 71.3465 107.2C70.0265 107.2 69.4265 106.82 69.0265 106.82C68.7065 106.82 68.6265 107.2 68.2665 107.2ZM80.9791 107.2C78.1591 107.2 76.3191 105.12 76.3191 102.54C76.3191 99.52 78.5191 97.22 81.3791 97.22C83.8591 97.22 85.2591 98.88 85.2591 100.46C85.2591 101.14 84.8591 101.54 84.3191 101.54C83.6991 101.54 83.4591 101.06 83.2991 100.52C82.9191 99.18 82.2591 98.18 80.8391 98.14C79.0991 98.14 78.0791 99.58 78.0791 101.5C78.0791 104.14 79.5591 105.86 81.7591 105.86C83.0791 105.86 83.9791 105.2 84.6991 104.44C85.0391 104.1 85.4791 104.3 85.2791 104.8C84.8591 105.8 83.5391 107.2 80.9791 107.2ZM88.1116 95.7C87.5716 95.66 87.1716 95.26 87.2116 94.7C87.2516 93.98 88.1516 93.14 88.9516 93.24C89.4916 93.28 89.8716 93.78 89.8516 94.28C89.7916 94.98 88.8916 95.76 88.1116 95.7ZM87.9316 104.36V100.4C87.9316 98.66 86.9516 99 86.9516 98.38C86.9516 98.18 87.0316 98.08 87.5116 97.86C88.4116 97.44 89.0916 97.22 89.3716 97.2C89.6316 97.18 89.7716 97.28 89.7716 97.64L89.7516 100.4V104.36C89.7516 106.28 90.6916 105.92 90.6916 106.62C90.6916 106.92 90.3916 107 89.9116 107H87.7716C87.2916 107 86.9716 106.92 86.9716 106.6C86.9716 105.92 87.9316 106.28 87.9316 104.36ZM109.014 101.4L109.634 104.92C109.854 106.16 110.694 106.02 110.694 106.62C110.694 106.92 110.394 107 109.914 107H107.774C107.314 107 106.994 106.92 106.994 106.6C106.994 106.02 108.034 106.16 107.814 104.86L107.234 101.54C106.954 99.96 106.714 98.4 104.914 98.42C103.674 98.44 102.314 99.52 102.234 101.84L102.254 104.36C102.254 106.28 103.194 105.92 103.194 106.62C103.194 106.92 102.894 107 102.414 107H100.274C99.7943 107 99.4743 106.92 99.4743 106.6C99.4743 105.92 100.434 106.28 100.434 104.36V101.58C100.434 99.78 99.9743 98.34 98.2343 98.38C96.8343 98.4 95.4543 99.6 95.4543 102.04V104.36C95.4543 106.28 96.3743 105.92 96.3743 106.62C96.3743 106.92 96.0943 107 95.5943 107H93.4543C92.9943 107 92.6543 106.92 92.6543 106.6C92.6543 105.92 93.6343 106.28 93.6343 104.36V100.34C93.6343 99.66 93.5543 99.16 93.0143 98.84C92.7943 98.7 92.6543 98.58 92.6543 98.38C92.6543 98.16 92.7543 98.04 93.2343 97.82C93.9143 97.5 94.5943 97.28 94.8743 97.26C95.1343 97.26 95.2743 97.36 95.2743 97.7L95.2543 99.4C96.0543 97.92 97.3743 97.2 98.7943 97.2C100.414 97.2 101.534 97.96 101.994 99.48C102.774 97.96 104.114 97.2 105.554 97.2C107.554 97.2 108.474 98.32 109.014 101.4ZM120.016 104.42C120.356 104.06 120.796 104.28 120.596 104.78C120.176 105.76 118.656 107.2 116.136 107.2C113.336 107.2 111.456 105.18 111.456 102.54C111.456 99.52 113.576 97.2 116.536 97.2C118.716 97.2 120.176 98.46 120.536 100.18C120.616 100.54 120.536 100.82 120.076 101C117.916 101.84 115.796 102.56 113.476 103.32C113.856 104.48 114.996 105.84 116.856 105.84C118.196 105.84 119.296 105.18 120.016 104.42ZM115.916 98.14C114.116 98.16 113.216 99.8 113.216 101.26C113.216 101.76 113.236 102.14 113.336 102.48C114.976 101.94 116.536 101.42 117.996 100.86C118.316 100.74 118.436 100.54 118.376 100.18C118.176 98.94 117.016 98.1 115.916 98.14ZM131.944 101.4L132.564 104.92C132.804 106.16 133.624 106.02 133.624 106.62C133.624 106.92 133.344 107 132.844 107H130.724C130.244 107 129.924 106.92 129.924 106.6C129.924 106.02 130.964 106.16 130.744 104.86L130.164 101.54C129.904 99.96 129.564 98.4 127.744 98.42C126.444 98.44 125.064 99.6 125.064 102.04V104.36C125.064 106.28 125.984 105.92 125.984 106.62C125.984 106.92 125.704 107 125.204 107H123.064C122.604 107 122.264 106.92 122.264 106.6C122.264 105.92 123.244 106.28 123.244 104.36V100.34C123.244 99.66 123.164 99.16 122.624 98.84C122.404 98.7 122.264 98.58 122.264 98.38C122.264 98.16 122.364 98.04 122.844 97.82C123.524 97.5 124.204 97.28 124.484 97.26C124.744 97.26 124.884 97.36 124.884 97.7L124.864 99.4C125.664 97.92 127.064 97.2 128.384 97.2C130.384 97.2 131.424 98.32 131.944 101.4ZM139.885 105.18C140.185 104.9 140.525 105.16 140.385 105.52C140.105 106.2 139.205 107.2 137.705 107.2C136.065 107.2 135.305 106.18 135.305 104.36V103.76C135.305 101.42 135.325 99.56 135.385 98.32H134.625C134.225 98.32 134.065 98.2 134.065 97.92C134.065 97.78 134.085 97.68 134.245 97.5C134.985 96.66 135.725 96.04 136.385 95.54C136.685 95.34 136.785 95.34 136.925 95.34C137.185 95.34 137.265 95.52 137.245 95.82C137.205 96.22 137.185 96.6 137.165 97.4H139.165C139.505 97.4 139.785 97.42 139.685 97.9C139.585 98.4 139.265 98.44 138.925 98.42L137.145 98.36L137.065 103.76C137.025 105.1 137.265 105.84 138.365 105.84C138.905 105.84 139.525 105.5 139.885 105.18ZM145.804 107.2C143.104 107.2 141.104 105.4 141.104 102.56C141.104 99.54 143.284 97.2 146.384 97.2C149.044 97.2 150.984 99.26 150.984 101.96C150.984 104.92 148.864 107.2 145.804 107.2ZM146.424 106.24C148.124 106.24 149.184 104.88 149.184 102.96C149.184 100.46 147.684 98.22 145.684 98.22C143.904 98.22 142.924 99.7 142.924 101.6C142.924 104.22 144.384 106.24 146.424 106.24ZM166.036 93.24L166.016 96L165.996 104.38C165.996 105.88 167.196 105.44 167.196 106.02C167.196 106.22 167.036 106.4 166.676 106.6C166.176 106.88 165.396 107.2 164.916 107.2C164.436 107.2 164.256 106.84 164.236 106.16L164.216 105.44C163.516 106.44 162.296 107.22 160.716 107.2C158.096 107.18 156.436 105.14 156.436 102.58C156.436 99.46 158.816 97.2 161.416 97.2C162.396 97.2 163.436 97.5 164.196 98.16V96C164.196 94.26 163.216 94.6 163.216 93.98C163.216 93.78 163.296 93.68 163.776 93.46C164.676 93.04 165.356 92.82 165.656 92.8C165.896 92.78 166.036 92.88 166.036 93.24ZM161.396 105.92C163.056 105.92 164.036 104.58 164.176 103.4V102.4C164.136 101.58 164.016 100.54 163.556 99.78C162.976 98.74 162.116 98.18 160.976 98.18C159.256 98.18 158.216 99.64 158.216 101.64C158.216 104.54 159.916 105.92 161.396 105.92ZM172.836 107.2C170.136 107.2 168.136 105.4 168.136 102.56C168.136 99.54 170.316 97.2 173.416 97.2C176.076 97.2 178.016 99.26 178.016 101.96C178.016 104.92 175.896 107.2 172.836 107.2ZM173.456 106.24C175.156 106.24 176.216 104.88 176.216 102.96C176.216 100.46 174.716 98.22 172.716 98.22C170.936 98.22 169.956 99.7 169.956 101.6C169.956 104.22 171.416 106.24 173.456 106.24ZM180.884 107.2C180.604 107.2 180.564 107.08 180.324 106.52C180.024 105.72 179.824 105.2 179.584 104.4C179.524 104.12 179.584 103.94 179.804 103.86C180.004 103.78 180.224 103.94 180.484 104.22C182.044 105.9 183.124 106.28 184.204 106.28C185.104 106.28 185.884 105.84 185.884 104.96C185.884 104.1 184.764 103.56 183.144 102.9C181.404 102.22 179.784 101.52 179.784 99.88C179.784 98.06 181.444 97.2 182.964 97.2C184.024 97.2 184.664 97.42 185.184 97.44C185.504 97.46 185.584 97.2 185.844 97.2C186.104 97.2 186.224 97.46 186.464 97.86C186.764 98.42 186.924 98.78 187.084 99.14C187.204 99.46 187.204 99.72 187.004 99.84C186.684 100.02 186.404 99.66 185.724 99.14C184.944 98.56 183.964 98.08 183.024 98.08C181.944 98.08 181.344 98.62 181.344 99.32C181.344 100.2 182.284 100.64 184.124 101.38C186.044 102.14 187.604 102.9 187.604 104.4C187.604 105.88 186.164 107.2 183.964 107.2C182.644 107.2 182.044 106.82 181.644 106.82C181.324 106.82 181.244 107.2 180.884 107.2ZM37.4645 133.2C34.7645 133.2 32.7645 131.4 32.7645 128.56C32.7645 125.54 34.9445 123.2 38.0445 123.2C40.7045 123.2 42.6445 125.26 42.6445 127.96C42.6445 130.92 40.5245 133.2 37.4645 133.2ZM38.0845 132.24C39.7845 132.24 40.8445 130.88 40.8445 128.96C40.8445 126.46 39.3445 124.22 37.3445 124.22C35.5645 124.22 34.5845 125.7 34.5845 127.6C34.5845 130.22 36.0445 132.24 38.0845 132.24ZM45.5126 133.2C45.2326 133.2 45.1926 133.08 44.9526 132.52C44.6526 131.72 44.4526 131.2 44.2126 130.4C44.1526 130.12 44.2126 129.94 44.4326 129.86C44.6326 129.78 44.8526 129.94 45.1126 130.22C46.6726 131.9 47.7526 132.28 48.8326 132.28C49.7326 132.28 50.5126 131.84 50.5126 130.96C50.5126 130.1 49.3926 129.56 47.7726 128.9C46.0326 128.22 44.4126 127.52 44.4126 125.88C44.4126 124.06 46.0726 123.2 47.5926 123.2C48.6526 123.2 49.2926 123.42 49.8126 123.44C50.1326 123.46 50.2126 123.2 50.4726 123.2C50.7326 123.2 50.8526 123.46 51.0926 123.86C51.3926 124.42 51.5526 124.78 51.7126 125.14C51.8326 125.46 51.8326 125.72 51.6326 125.84C51.3126 126.02 51.0326 125.66 50.3526 125.14C49.5726 124.56 48.5926 124.08 47.6526 124.08C46.5726 124.08 45.9726 124.62 45.9726 125.32C45.9726 126.2 46.9126 126.64 48.7526 127.38C50.6726 128.14 52.2326 128.9 52.2326 130.4C52.2326 131.88 50.7926 133.2 48.5926 133.2C47.2726 133.2 46.6726 132.82 46.2726 132.82C45.9526 132.82 45.8726 133.2 45.5126 133.2ZM55.0048 133.2C54.7248 133.2 54.6848 133.08 54.4448 132.52C54.1448 131.72 53.9448 131.2 53.7048 130.4C53.6448 130.12 53.7048 129.94 53.9248 129.86C54.1248 129.78 54.3448 129.94 54.6048 130.22C56.1648 131.9 57.2448 132.28 58.3248 132.28C59.2248 132.28 60.0048 131.84 60.0048 130.96C60.0048 130.1 58.8848 129.56 57.2648 128.9C55.5248 128.22 53.9048 127.52 53.9048 125.88C53.9048 124.06 55.5648 123.2 57.0848 123.2C58.1448 123.2 58.7848 123.42 59.3048 123.44C59.6248 123.46 59.7048 123.2 59.9648 123.2C60.2248 123.2 60.3448 123.46 60.5848 123.86C60.8848 124.42 61.0448 124.78 61.2048 125.14C61.3248 125.46 61.3248 125.72 61.1248 125.84C60.8048 126.02 60.5248 125.66 59.8448 125.14C59.0648 124.56 58.0848 124.08 57.1448 124.08C56.0648 124.08 55.4648 124.62 55.4648 125.32C55.4648 126.2 56.4048 126.64 58.2448 127.38C60.1648 128.14 61.7248 128.9 61.7248 130.4C61.7248 131.88 60.2848 133.2 58.0848 133.2C56.7648 133.2 56.1648 132.82 55.7648 132.82C55.4448 132.82 55.3648 133.2 55.0048 133.2ZM67.7574 133.2C65.0574 133.2 63.0574 131.4 63.0574 128.56C63.0574 125.54 65.2374 123.2 68.3374 123.2C70.9974 123.2 72.9374 125.26 72.9374 127.96C72.9374 130.92 70.8174 133.2 67.7574 133.2ZM68.3774 132.24C70.0774 132.24 71.1374 130.88 71.1374 128.96C71.1374 126.46 69.6374 124.22 67.6374 124.22C65.8574 124.22 64.8774 125.7 64.8774 127.6C64.8774 130.22 66.3374 132.24 68.3774 132.24ZM75.8055 133.2C75.5255 133.2 75.4855 133.08 75.2455 132.52C74.9455 131.72 74.7455 131.2 74.5055 130.4C74.4455 130.12 74.5055 129.94 74.7255 129.86C74.9255 129.78 75.1455 129.94 75.4055 130.22C76.9655 131.9 78.0455 132.28 79.1255 132.28C80.0255 132.28 80.8055 131.84 80.8055 130.96C80.8055 130.1 79.6855 129.56 78.0655 128.9C76.3255 128.22 74.7055 127.52 74.7055 125.88C74.7055 124.06 76.3655 123.2 77.8855 123.2C78.9455 123.2 79.5855 123.42 80.1055 123.44C80.4255 123.46 80.5055 123.2 80.7655 123.2C81.0255 123.2 81.1455 123.46 81.3855 123.86C81.6855 124.42 81.8455 124.78 82.0055 125.14C82.1255 125.46 82.1255 125.72 81.9255 125.84C81.6055 126.02 81.3255 125.66 80.6455 125.14C79.8655 124.56 78.8855 124.08 77.9455 124.08C76.8655 124.08 76.2655 124.62 76.2655 125.32C76.2655 126.2 77.2055 126.64 79.0455 127.38C80.9655 128.14 82.5255 128.9 82.5255 130.4C82.5255 131.88 81.0855 133.2 78.8855 133.2C77.5655 133.2 76.9655 132.82 76.5655 132.82C76.2455 132.82 76.1655 133.2 75.8055 133.2ZM104.542 127.4L105.162 130.92C105.382 132.16 106.222 132.02 106.222 132.62C106.222 132.92 105.922 133 105.442 133H103.302C102.842 133 102.522 132.92 102.522 132.6C102.522 132.02 103.562 132.16 103.342 130.86L102.762 127.54C102.482 125.96 102.242 124.4 100.442 124.42C99.2016 124.44 97.8416 125.52 97.7616 127.84L97.7816 130.36C97.7816 132.28 98.7216 131.92 98.7216 132.62C98.7216 132.92 98.4216 133 97.9416 133H95.8016C95.3216 133 95.0016 132.92 95.0016 132.6C95.0016 131.92 95.9616 132.28 95.9616 130.36V127.58C95.9616 125.78 95.5016 124.34 93.7616 124.38C92.3616 124.4 90.9816 125.6 90.9816 128.04V130.36C90.9816 132.28 91.9016 131.92 91.9016 132.62C91.9016 132.92 91.6216 133 91.1216 133H88.9816C88.5216 133 88.1816 132.92 88.1816 132.6C88.1816 131.92 89.1616 132.28 89.1616 130.36V126.34C89.1616 125.66 89.0816 125.16 88.5416 124.84C88.3216 124.7 88.1816 124.58 88.1816 124.38C88.1816 124.16 88.2816 124.04 88.7616 123.82C89.4416 123.5 90.1216 123.28 90.4016 123.26C90.6616 123.26 90.8016 123.36 90.8016 123.7L90.7816 125.4C91.5816 123.92 92.9016 123.2 94.3216 123.2C95.9416 123.2 97.0616 123.96 97.5216 125.48C98.3016 123.96 99.6416 123.2 101.082 123.2C103.082 123.2 104.002 124.32 104.542 127.4ZM116.8 131.76C117.02 131.76 117.2 131.78 117.2 132C117.2 132.5 116.42 133.14 115.52 133.14C114.58 133.14 114.32 132.56 114.14 131.6C113.3 132.64 111.92 133.2 110.76 133.2C108.32 133.2 106.92 131.84 106.92 130.14C106.92 128.22 108.64 126.9 111.08 126.9C111.92 126.9 112.48 126.98 113.24 127.16C112.84 125.56 112.58 124.42 110.84 124.42C109.7 124.42 108.96 124.78 108.12 125.26C107.74 125.5 107.42 125.2 107.68 124.8C108.16 124.1 109.6 123.22 111.42 123.22C113.62 123.22 114.48 124.6 114.86 126.34L115.78 130.68C116 131.7 116.42 131.76 116.8 131.76ZM111.22 132.2C112.6 132.2 114.04 131.14 113.88 130.26C113.8 129.8 113.64 129.28 113.46 128.4C113.38 127.92 112.06 127.74 111.44 127.74C109.68 127.74 108.74 128.58 108.76 129.92C108.82 131.22 109.72 132.2 111.22 132.2ZM119.596 121.7C119.056 121.66 118.656 121.26 118.696 120.7C118.736 119.98 119.636 119.14 120.436 119.24C120.976 119.28 121.356 119.78 121.336 120.28C121.276 120.98 120.376 121.76 119.596 121.7ZM119.416 130.36V126.4C119.416 124.66 118.436 125 118.436 124.38C118.436 124.18 118.516 124.08 118.996 123.86C119.896 123.44 120.576 123.22 120.856 123.2C121.116 123.18 121.256 123.28 121.256 123.64L121.236 126.4V130.36C121.236 132.28 122.176 131.92 122.176 132.62C122.176 132.92 121.876 133 121.396 133H119.256C118.776 133 118.456 132.92 118.456 132.6C118.456 131.92 119.416 132.28 119.416 130.36ZM125.259 133.2C124.979 133.2 124.939 133.08 124.699 132.52C124.399 131.72 124.199 131.2 123.959 130.4C123.899 130.12 123.959 129.94 124.179 129.86C124.379 129.78 124.599 129.94 124.859 130.22C126.419 131.9 127.499 132.28 128.579 132.28C129.479 132.28 130.259 131.84 130.259 130.96C130.259 130.1 129.139 129.56 127.519 128.9C125.779 128.22 124.159 127.52 124.159 125.88C124.159 124.06 125.819 123.2 127.339 123.2C128.399 123.2 129.039 123.42 129.559 123.44C129.879 123.46 129.959 123.2 130.219 123.2C130.479 123.2 130.599 123.46 130.839 123.86C131.139 124.42 131.299 124.78 131.459 125.14C131.579 125.46 131.579 125.72 131.379 125.84C131.059 126.02 130.779 125.66 130.099 125.14C129.319 124.56 128.339 124.08 127.399 124.08C126.319 124.08 125.719 124.62 125.719 125.32C125.719 126.2 126.659 126.64 128.499 127.38C130.419 128.14 131.979 128.9 131.979 130.4C131.979 131.88 130.539 133.2 128.339 133.2C127.019 133.2 126.419 132.82 126.019 132.82C125.699 132.82 125.619 133.2 125.259 133.2ZM141.355 119.82C140.675 119.82 140.075 120.38 140.075 121.7C140.075 122.32 140.195 123.4 140.555 123.4H142.835C143.175 123.4 143.575 123.42 143.475 123.9C143.375 124.4 143.055 124.44 142.715 124.42L140.555 124.36V130.38C140.555 132.46 141.895 131.9 141.895 132.62C141.895 132.92 141.595 133 141.115 133H138.595C138.135 133 137.815 132.92 137.815 132.6C137.815 132 138.775 132.32 138.775 130.38V124.3L138.195 124.28C137.855 124.26 137.515 124.24 137.575 123.82C137.655 123.44 137.915 123.4 138.255 123.4H138.775C138.775 120.06 140.035 118.8 141.975 118.8C143.515 118.8 144.275 119.82 144.275 120.86C144.275 121.42 143.895 121.84 143.395 121.84C142.955 121.84 142.695 121.54 142.575 121.14C142.355 120.28 142.055 119.82 141.355 119.82ZM148.48 133.2C145.78 133.2 143.78 131.4 143.78 128.56C143.78 125.54 145.96 123.2 149.06 123.2C151.72 123.2 153.66 125.26 153.66 127.96C153.66 130.92 151.54 133.2 148.48 133.2ZM149.1 132.24C150.8 132.24 151.86 130.88 151.86 128.96C151.86 126.46 150.36 124.22 148.36 124.22C146.58 124.22 145.6 125.7 145.6 127.6C145.6 130.22 147.06 132.24 149.1 132.24ZM160.888 123.2C161.968 123.2 162.448 123.88 162.448 124.58C162.448 125.1 162.108 125.58 161.648 125.6C160.808 125.62 160.848 124.74 159.928 124.74C159.048 124.74 158.208 125.98 158.208 127.74V130.36C158.208 132.28 159.128 131.92 159.128 132.62C159.128 132.92 158.848 133 158.348 133H156.208C155.748 133 155.408 132.92 155.408 132.6C155.408 131.92 156.388 132.28 156.388 130.36V126.34C156.388 125.66 156.308 125.16 155.768 124.84C155.548 124.7 155.408 124.58 155.408 124.38C155.408 124.16 155.508 124.04 155.988 123.82C156.668 123.5 157.348 123.28 157.628 123.26C157.888 123.26 158.028 123.36 158.028 123.7L158.008 125.32C158.628 124.14 159.708 123.2 160.888 123.2ZM169.416 131.18C169.716 130.9 170.056 131.16 169.916 131.52C169.636 132.2 168.736 133.2 167.236 133.2C165.596 133.2 164.836 132.18 164.836 130.36V129.76C164.836 127.42 164.856 125.56 164.916 124.32H164.156C163.756 124.32 163.596 124.2 163.596 123.92C163.596 123.78 163.616 123.68 163.776 123.5C164.516 122.66 165.256 122.04 165.916 121.54C166.216 121.34 166.316 121.34 166.456 121.34C166.716 121.34 166.796 121.52 166.776 121.82C166.736 122.22 166.716 122.6 166.696 123.4H168.696C169.036 123.4 169.316 123.42 169.216 123.9C169.116 124.4 168.796 124.44 168.456 124.42L166.676 124.36L166.596 129.76C166.556 131.1 166.796 131.84 167.896 131.84C168.436 131.84 169.056 131.5 169.416 131.18ZM179.196 130.42C179.536 130.06 179.976 130.28 179.776 130.78C179.356 131.76 177.836 133.2 175.316 133.2C172.516 133.2 170.636 131.18 170.636 128.54C170.636 125.52 172.756 123.2 175.716 123.2C177.896 123.2 179.356 124.46 179.716 126.18C179.796 126.54 179.716 126.82 179.256 127C177.096 127.84 174.976 128.56 172.656 129.32C173.036 130.48 174.176 131.84 176.036 131.84C177.376 131.84 178.476 131.18 179.196 130.42ZM175.096 124.14C173.296 124.16 172.396 125.8 172.396 127.26C172.396 127.76 172.416 128.14 172.516 128.48C174.156 127.94 175.716 127.42 177.176 126.86C177.496 126.74 177.616 126.54 177.556 126.18C177.356 124.94 176.196 124.1 175.096 124.14ZM182.563 133.2C182.283 133.2 182.243 133.08 182.003 132.52C181.703 131.72 181.503 131.2 181.263 130.4C181.203 130.12 181.263 129.94 181.483 129.86C181.683 129.78 181.903 129.94 182.163 130.22C183.723 131.9 184.803 132.28 185.883 132.28C186.783 132.28 187.563 131.84 187.563 130.96C187.563 130.1 186.443 129.56 184.823 128.9C183.083 128.22 181.463 127.52 181.463 125.88C181.463 124.06 183.123 123.2 184.643 123.2C185.703 123.2 186.343 123.42 186.863 123.44C187.183 123.46 187.263 123.2 187.523 123.2C187.783 123.2 187.903 123.46 188.143 123.86C188.443 124.42 188.603 124.78 188.763 125.14C188.883 125.46 188.883 125.72 188.683 125.84C188.363 126.02 188.083 125.66 187.403 125.14C186.623 124.56 185.643 124.08 184.703 124.08C183.623 124.08 183.023 124.62 183.023 125.32C183.023 126.2 183.963 126.64 185.803 127.38C187.723 128.14 189.283 128.9 189.283 130.4C189.283 131.88 187.843 133.2 185.643 133.2C184.323 133.2 183.723 132.82 183.323 132.82C183.003 132.82 182.923 133.2 182.563 133.2Z" fill="#FFFFF3"/>
</svg>
