<svg width="223" height="154" viewBox="0 0 223 154" fill="none" xmlns="http://www.w3.org/2000/svg">
<rect x="1" y="1" width="220" height="152" rx="15" fill="#FFE57B" stroke="#1A1A1A" stroke-width="2"/>
<path d="M32.92 106.38V94.86C32.92 94.34 33.28 94 33.82 94H34.22C34.86 94 35.02 94.24 35.28 94.84L38.78 102.16L42.28 94.84C42.52 94.22 42.72 94 43.3 94H43.68C44.26 94 44.6 94.34 44.6 94.86V106.38C44.6 106.82 44.42 107.06 43.98 107.06H43.8C43.38 107.06 43.18 106.82 43.18 106.38V102.86L43.2 95.82L39.78 102.98C39.6 103.42 39.4 103.7 38.76 103.7C38.08 103.7 37.92 103.42 37.72 102.98L34.32 95.84L34.34 102.82V106.38C34.34 106.82 34.16 107.06 33.72 107.06H33.5C33.08 107.06 32.92 106.82 32.92 106.38ZM46.7689 104.54C46.7689 102.38 48.8089 101.46 53.3089 101.4H53.5289V101C53.5289 99.38 52.5889 98.48 50.9489 98.48C49.4289 98.48 48.5089 99.22 48.0289 100.18C47.9889 100.2 47.1489 100.16 47.1489 99.44C47.1489 99.16 47.3489 98.74 47.7289 98.38C48.3489 97.78 49.4489 97.24 51.0289 97.24C53.5689 97.24 54.9489 98.66 54.9489 101.02V106.92C54.9489 106.98 54.6889 107.08 54.4289 107.08C54.0089 107.08 53.6689 106.88 53.5889 106.16C53.5689 105.88 53.5489 105.58 53.5489 105.28C52.9089 106.44 51.6089 107.2 50.0089 107.2C48.0089 107.2 46.7689 106.16 46.7689 104.54ZM53.5289 103.26V102.34L53.1889 102.36C49.7089 102.44 48.2089 103.04 48.2089 104.5C48.2089 105.5 49.0089 106.12 50.2889 106.12C52.1289 106.12 53.5289 104.88 53.5289 103.26ZM57.3475 94.46C57.3475 93.86 57.6875 93.54 58.2675 93.54C58.8475 93.54 59.1875 93.86 59.1875 94.46C59.1875 95.04 58.8275 95.36 58.2475 95.36C57.6875 95.36 57.3475 95.04 57.3475 94.46ZM57.5275 106.38V98.08C57.5275 97.56 57.7875 97.38 58.1675 97.38H58.3275C58.7075 97.38 58.9675 97.54 58.9675 98.08V106.38C58.9675 106.9 58.7075 107.06 58.3275 107.06H58.1675C57.7875 107.06 57.5275 106.9 57.5275 106.38ZM61.4867 106.22C61.0867 105.88 60.9067 105.56 60.9067 105.26C60.9067 104.76 61.4667 104.54 61.5267 104.56C62.1267 105.42 63.2067 106.06 64.7667 106.06C66.2667 106.06 67.1467 105.42 67.1467 104.48C67.1467 103.36 66.1067 103.14 64.4867 102.78C63.0267 102.48 61.1867 102.06 61.1867 100.12C61.1867 98.42 62.6067 97.24 64.8067 97.24C66.3467 97.24 67.3867 97.74 67.9267 98.32C68.1467 98.54 68.2867 98.84 68.2867 99.08C68.2867 99.58 67.7067 99.84 67.6667 99.8C67.1467 99 66.1067 98.38 64.8267 98.38C63.3667 98.38 62.5267 99.04 62.5267 99.96C62.5267 101 63.5267 101.24 65.1067 101.6C66.6667 101.94 68.5467 102.36 68.5467 104.32C68.5467 106.06 67.0867 107.22 64.7467 107.22C63.1867 107.22 62.1067 106.76 61.4867 106.22ZM73.3509 102.2C73.3509 99.34 75.3509 97.24 78.1709 97.24C79.6709 97.24 80.7109 97.78 81.3509 98.4C81.8909 98.9 82.1309 99.48 82.1309 99.84C82.1309 100.48 81.2709 100.6 81.2109 100.52C80.7909 99.42 79.9309 98.48 78.1909 98.48C76.1909 98.48 74.7709 100.04 74.7709 102.2C74.7709 104.4 76.1709 105.98 78.1909 105.98C79.9109 105.98 80.7909 105.04 81.2109 103.94C81.2509 103.86 82.1309 103.96 82.1309 104.64C82.1309 104.96 81.8909 105.52 81.3509 106.04C80.7309 106.7 79.6709 107.22 78.1509 107.22C75.3509 107.22 73.3509 105.12 73.3509 102.2ZM83.429 102.22C83.429 99.32 85.429 97.24 88.289 97.24C91.109 97.24 93.109 99.34 93.109 102.26C93.109 105.14 91.109 107.22 88.269 107.22C85.409 107.22 83.429 105.12 83.429 102.22ZM91.709 102.26C91.709 100.06 90.289 98.46 88.289 98.46C86.289 98.46 84.829 100.02 84.829 102.22C84.829 104.42 86.289 106 88.289 106C90.269 106 91.709 104.44 91.709 102.26ZM99.7637 97.24C102.224 97.24 103.424 98.94 103.424 101.38V106.38C103.424 106.9 103.164 107.06 102.804 107.06H102.624C102.244 107.06 101.984 106.9 101.984 106.38V101.5C101.984 99.66 101.104 98.52 99.4837 98.52C98.0837 98.52 97.0437 99.3 96.5237 100.44V106.38C96.5237 106.9 96.2637 107.06 95.9037 107.06H95.7237C95.3437 107.06 95.0837 106.9 95.0837 106.38V97.54C95.0837 97.5 95.3237 97.38 95.6037 97.38C96.0437 97.38 96.4437 97.6 96.4837 98.58V99.14C97.1237 98 98.2437 97.24 99.7637 97.24ZM105.304 102.2C105.304 99.34 107.304 97.24 110.124 97.24C111.624 97.24 112.664 97.78 113.304 98.4C113.844 98.9 114.084 99.48 114.084 99.84C114.084 100.48 113.224 100.6 113.164 100.52C112.744 99.42 111.884 98.48 110.144 98.48C108.144 98.48 106.724 100.04 106.724 102.2C106.724 104.4 108.124 105.98 110.144 105.98C111.864 105.98 112.744 105.04 113.164 103.94C113.204 103.86 114.084 103.96 114.084 104.64C114.084 104.96 113.844 105.52 113.304 106.04C112.684 106.7 111.624 107.22 110.104 107.22C107.304 107.22 105.304 105.12 105.304 102.2ZM115.382 102.28C115.382 99.38 117.362 97.24 120.102 97.24C122.762 97.24 124.482 99.12 124.482 101.94V102.08C124.482 102.42 124.342 102.54 123.982 102.54H116.762C116.762 102.62 116.762 102.72 116.782 102.82C116.962 104.74 118.342 106.02 120.262 106.02C122.042 106.02 122.882 105.18 123.362 104.26C123.442 104.22 124.182 104.38 124.182 105.02C124.182 105.32 123.942 105.78 123.422 106.2C122.822 106.72 121.722 107.22 120.242 107.22C117.342 107.22 115.382 105.2 115.382 102.28ZM123.062 101.5C122.982 99.64 121.842 98.4 120.102 98.4C118.362 98.4 117.062 99.68 116.802 101.5H123.062ZM131.111 97.24C133.571 97.24 134.771 98.94 134.771 101.38V106.38C134.771 106.9 134.511 107.06 134.151 107.06H133.971C133.591 107.06 133.331 106.9 133.331 106.38V101.5C133.331 99.66 132.451 98.52 130.831 98.52C129.431 98.52 128.391 99.3 127.871 100.44V106.38C127.871 106.9 127.611 107.06 127.251 107.06H127.071C126.691 107.06 126.431 106.9 126.431 106.38V97.54C126.431 97.5 126.671 97.38 126.951 97.38C127.391 97.38 127.791 97.6 127.831 98.58V99.14C128.471 98 129.591 97.24 131.111 97.24ZM140.492 107.22C138.732 107.22 137.872 106.24 137.872 104.22V98.68H136.932C136.472 98.68 136.312 98.48 136.312 98.14V98C136.312 97.66 136.472 97.46 136.932 97.46H137.872V95.78C137.872 95.28 138.132 95.08 138.512 95.08H138.672C139.052 95.08 139.292 95.26 139.292 95.78V97.46H141.712C142.152 97.46 142.332 97.64 142.332 98V98.12C142.332 98.48 142.152 98.68 141.692 98.68H139.272V104C139.272 105.4 139.692 106 140.692 106C141.332 106 141.812 105.7 142.112 105.26C142.172 105.22 142.512 105.42 142.512 105.92C142.512 106.16 142.412 106.42 142.152 106.66C141.812 106.98 141.272 107.22 140.492 107.22ZM147.987 97.24C148.847 97.24 149.407 97.66 149.407 98.28C149.407 98.86 149.007 99.1 148.967 99.06C148.727 98.82 148.347 98.66 147.827 98.66C146.267 98.66 145.547 100.2 145.547 102.6V106.38C145.547 106.88 145.287 107.06 144.927 107.06H144.767C144.367 107.06 144.107 106.9 144.107 106.38V97.54C144.107 97.5 144.327 97.38 144.627 97.38C145.027 97.38 145.387 97.58 145.467 98.34C145.487 98.68 145.507 99.02 145.507 99.38C145.887 97.94 146.767 97.24 147.987 97.24ZM150.206 104.54C150.206 102.38 152.246 101.46 156.746 101.4H156.966V101C156.966 99.38 156.026 98.48 154.386 98.48C152.866 98.48 151.946 99.22 151.466 100.18C151.426 100.2 150.586 100.16 150.586 99.44C150.586 99.16 150.786 98.74 151.166 98.38C151.786 97.78 152.886 97.24 154.466 97.24C157.006 97.24 158.386 98.66 158.386 101.02V106.92C158.386 106.98 158.126 107.08 157.866 107.08C157.446 107.08 157.106 106.88 157.026 106.16C157.006 105.88 156.986 105.58 156.986 105.28C156.346 106.44 155.046 107.2 153.446 107.2C151.446 107.2 150.206 106.16 150.206 104.54ZM156.966 103.26V102.34L156.626 102.36C153.146 102.44 151.646 103.04 151.646 104.5C151.646 105.5 152.446 106.12 153.726 106.12C155.566 106.12 156.966 104.88 156.966 103.26ZM164.525 111.4C163.305 111.4 162.585 110.62 162.585 110.06C162.585 109.66 162.765 109.48 163.085 109.44C163.265 109.68 163.705 110.22 164.385 110.22C165.005 110.22 165.565 109.94 165.565 109.14C165.565 108.32 164.565 107.38 163.725 107.04C161.645 106.5 160.265 104.64 160.265 102.2C160.265 99.34 162.265 97.24 165.085 97.24C166.585 97.24 167.625 97.78 168.265 98.4C168.805 98.9 169.045 99.48 169.045 99.84C169.045 100.48 168.185 100.6 168.125 100.52C167.705 99.42 166.845 98.48 165.105 98.48C163.105 98.48 161.685 100.04 161.685 102.2C161.685 104.4 163.085 105.98 165.105 105.98C166.825 105.98 167.705 105.04 168.125 103.94C168.165 103.86 169.045 103.96 169.045 104.64C169.045 104.96 168.825 105.5 168.305 106.02C167.805 106.52 167.085 106.96 166.085 107.14C165.845 107.18 165.605 107.2 165.345 107.2C166.065 107.68 166.745 108.5 166.745 109.5C166.745 110.86 165.605 111.4 164.525 111.4ZM172.324 95.68C172.144 95.68 172.004 95.62 171.864 95.5C171.804 95.38 171.804 95.18 171.804 95C171.904 94.04 172.464 93.26 173.344 93.26C173.944 93.26 174.384 93.6 174.784 93.94C175.224 94.34 175.524 94.6 175.864 94.78C176.444 94.52 176.404 93.38 176.964 93.38C177.144 93.38 177.304 93.44 177.404 93.54C177.464 93.7 177.484 93.9 177.484 94.08C177.384 95.04 176.824 95.78 175.944 95.78C175.344 95.78 174.924 95.48 174.504 95.12C174.084 94.76 173.804 94.46 173.444 94.28C172.904 94.56 172.884 95.68 172.324 95.68ZM170.324 104.54C170.324 102.38 172.364 101.46 176.864 101.4H177.084V101C177.084 99.38 176.144 98.48 174.504 98.48C172.984 98.48 172.064 99.22 171.584 100.18C171.544 100.2 170.704 100.16 170.704 99.44C170.704 99.16 170.904 98.74 171.284 98.38C171.904 97.78 173.004 97.24 174.584 97.24C177.124 97.24 178.504 98.66 178.504 101.02V106.92C178.504 106.98 178.244 107.08 177.984 107.08C177.564 107.08 177.224 106.88 177.144 106.16C177.124 105.88 177.104 105.58 177.104 105.28C176.464 106.44 175.164 107.2 173.564 107.2C171.564 107.2 170.324 106.16 170.324 104.54ZM177.084 103.26V102.34L176.744 102.36C173.264 102.44 171.764 103.04 171.764 104.5C171.764 105.5 172.564 106.12 173.844 106.12C175.684 106.12 177.084 104.88 177.084 103.26ZM180.382 102.22C180.382 99.32 182.382 97.24 185.242 97.24C188.062 97.24 190.062 99.34 190.062 102.26C190.062 105.14 188.062 107.22 185.222 107.22C182.362 107.22 180.382 105.12 180.382 102.22ZM188.662 102.26C188.662 100.06 187.242 98.46 185.242 98.46C183.242 98.46 181.782 100.02 181.782 102.22C181.782 104.42 183.242 106 185.242 106C187.222 106 188.662 104.44 188.662 102.26ZM50.2422 122.24C52.7022 122.24 53.9022 123.94 53.9022 126.38V131.38C53.9022 131.9 53.6422 132.06 53.2822 132.06H53.1022C52.7222 132.06 52.4622 131.9 52.4622 131.38V126.5C52.4622 124.66 51.5822 123.52 49.9622 123.52C48.5622 123.52 47.5222 124.3 47.0022 125.44V131.38C47.0022 131.9 46.7422 132.06 46.3822 132.06H46.2022C45.8222 132.06 45.5622 131.9 45.5622 131.38V122.54C45.5622 122.5 45.8022 122.38 46.0822 122.38C46.5222 122.38 46.9222 122.6 46.9622 123.58V124.14C47.6022 123 48.7222 122.24 50.2422 122.24ZM55.7825 129.54C55.7825 127.38 57.8225 126.46 62.3225 126.4H62.5425V126C62.5425 124.38 61.6025 123.48 59.9625 123.48C58.4425 123.48 57.5225 124.22 57.0425 125.18C57.0025 125.2 56.1625 125.16 56.1625 124.44C56.1625 124.16 56.3625 123.74 56.7425 123.38C57.3625 122.78 58.4625 122.24 60.0425 122.24C62.5825 122.24 63.9625 123.66 63.9625 126.02V131.92C63.9625 131.98 63.7025 132.08 63.4425 132.08C63.0225 132.08 62.6825 131.88 62.6025 131.16C62.5825 130.88 62.5625 130.58 62.5625 130.28C61.9225 131.44 60.6225 132.2 59.0225 132.2C57.0225 132.2 55.7825 131.16 55.7825 129.54ZM62.5425 128.26V127.34L62.2025 127.36C58.7225 127.44 57.2225 128.04 57.2225 129.5C57.2225 130.5 58.0225 131.12 59.3025 131.12C61.1425 131.12 62.5425 129.88 62.5425 128.26ZM66.3011 131.22C65.9011 130.88 65.7211 130.56 65.7211 130.26C65.7211 129.76 66.2811 129.54 66.3411 129.56C66.9411 130.42 68.0211 131.06 69.5811 131.06C71.0811 131.06 71.9611 130.42 71.9611 129.48C71.9611 128.36 70.9211 128.14 69.3011 127.78C67.8411 127.48 66.0011 127.06 66.0011 125.12C66.0011 123.42 67.4211 122.24 69.6211 122.24C71.1611 122.24 72.2011 122.74 72.7411 123.32C72.9611 123.54 73.1011 123.84 73.1011 124.08C73.1011 124.58 72.5211 124.84 72.4811 124.8C71.9611 124 70.9211 123.38 69.6411 123.38C68.1811 123.38 67.3411 124.04 67.3411 124.96C67.3411 126 68.3411 126.24 69.9211 126.6C71.4811 126.94 73.3611 127.36 73.3611 129.32C73.3611 131.06 71.9011 132.22 69.5611 132.22C68.0011 132.22 66.9211 131.76 66.3011 131.22ZM78.6254 131.22C78.2254 130.88 78.0454 130.56 78.0454 130.26C78.0454 129.76 78.6054 129.54 78.6654 129.56C79.2654 130.42 80.3454 131.06 81.9054 131.06C83.4054 131.06 84.2854 130.42 84.2854 129.48C84.2854 128.36 83.2454 128.14 81.6254 127.78C80.1654 127.48 78.3254 127.06 78.3254 125.12C78.3254 123.42 79.7454 122.24 81.9454 122.24C83.4854 122.24 84.5254 122.74 85.0654 123.32C85.2854 123.54 85.4254 123.84 85.4254 124.08C85.4254 124.58 84.8454 124.84 84.8054 124.8C84.2854 124 83.2454 123.38 81.9654 123.38C80.5054 123.38 79.6654 124.04 79.6654 124.96C79.6654 126 80.6654 126.24 82.2454 126.6C83.8054 126.94 85.6854 127.36 85.6854 129.32C85.6854 131.06 84.2254 132.22 81.8854 132.22C80.3254 132.22 79.2454 131.76 78.6254 131.22ZM95.2916 122.38C95.6716 122.38 95.9316 122.54 95.9316 123.06V131.92C95.9316 131.96 95.6916 132.08 95.4116 132.08C95.0116 132.08 94.6516 131.88 94.5716 131.14C94.5516 130.88 94.5316 130.62 94.5316 130.36C93.8916 131.42 92.7916 132.22 91.2516 132.22C88.7916 132.22 87.5916 130.52 87.5916 128.06V123.06C87.5916 122.54 87.8516 122.38 88.2316 122.38H88.3916C88.7716 122.38 89.0316 122.54 89.0316 123.06V127.96C89.0316 129.8 89.9316 130.94 91.5516 130.94C92.9316 130.94 93.9716 130.16 94.4916 129V123.06C94.4916 122.54 94.7516 122.38 95.1116 122.38H95.2916ZM97.5208 129.54C97.5208 127.38 99.5608 126.46 104.061 126.4H104.281V126C104.281 124.38 103.341 123.48 101.701 123.48C100.181 123.48 99.2608 124.22 98.7808 125.18C98.7408 125.2 97.9008 125.16 97.9008 124.44C97.9008 124.16 98.1008 123.74 98.4808 123.38C99.1008 122.78 100.201 122.24 101.781 122.24C104.321 122.24 105.701 123.66 105.701 126.02V131.92C105.701 131.98 105.441 132.08 105.181 132.08C104.761 132.08 104.421 131.88 104.341 131.16C104.321 130.88 104.301 130.58 104.301 130.28C103.661 131.44 102.361 132.2 100.761 132.2C98.7608 132.2 97.5208 131.16 97.5208 129.54ZM104.281 128.26V127.34L103.941 127.36C100.461 127.44 98.9608 128.04 98.9608 129.5C98.9608 130.5 99.7608 131.12 101.041 131.12C102.881 131.12 104.281 129.88 104.281 128.26ZM108.039 131.22C107.639 130.88 107.459 130.56 107.459 130.26C107.459 129.76 108.019 129.54 108.079 129.56C108.679 130.42 109.759 131.06 111.319 131.06C112.819 131.06 113.699 130.42 113.699 129.48C113.699 128.36 112.659 128.14 111.039 127.78C109.579 127.48 107.739 127.06 107.739 125.12C107.739 123.42 109.159 122.24 111.359 122.24C112.899 122.24 113.939 122.74 114.479 123.32C114.699 123.54 114.839 123.84 114.839 124.08C114.839 124.58 114.259 124.84 114.219 124.8C113.699 124 112.659 123.38 111.379 123.38C109.919 123.38 109.079 124.04 109.079 124.96C109.079 126 110.079 126.24 111.659 126.6C113.219 126.94 115.099 127.36 115.099 129.32C115.099 131.06 113.639 132.22 111.299 132.22C109.739 132.22 108.659 131.76 108.039 131.22ZM123.412 132.22C121.652 132.22 120.792 131.24 120.792 129.22V123.68H119.852C119.392 123.68 119.232 123.48 119.232 123.14V123C119.232 122.66 119.392 122.46 119.852 122.46H120.792V120.78C120.792 120.28 121.052 120.08 121.432 120.08H121.592C121.972 120.08 122.212 120.26 122.212 120.78V122.46H124.632C125.072 122.46 125.252 122.64 125.252 123V123.12C125.252 123.48 125.072 123.68 124.612 123.68H122.192V129C122.192 130.4 122.612 131 123.612 131C124.252 131 124.732 130.7 125.032 130.26C125.092 130.22 125.432 130.42 125.432 130.92C125.432 131.16 125.332 131.42 125.072 131.66C124.732 131.98 124.192 132.22 123.412 132.22ZM126.427 129.54C126.427 127.38 128.467 126.46 132.967 126.4H133.187V126C133.187 124.38 132.247 123.48 130.607 123.48C129.087 123.48 128.167 124.22 127.687 125.18C127.647 125.2 126.807 125.16 126.807 124.44C126.807 124.16 127.007 123.74 127.387 123.38C128.007 122.78 129.107 122.24 130.687 122.24C133.227 122.24 134.607 123.66 134.607 126.02V131.92C134.607 131.98 134.347 132.08 134.087 132.08C133.667 132.08 133.327 131.88 133.247 131.16C133.227 130.88 133.207 130.58 133.207 130.28C132.567 131.44 131.267 132.2 129.667 132.2C127.667 132.2 126.427 131.16 126.427 129.54ZM133.187 128.26V127.34L132.847 127.36C129.367 127.44 127.867 128.04 127.867 129.5C127.867 130.5 128.667 131.12 129.947 131.12C131.787 131.12 133.187 129.88 133.187 128.26ZM140.966 122.24C141.826 122.24 142.386 122.66 142.386 123.28C142.386 123.86 141.986 124.1 141.946 124.06C141.706 123.82 141.326 123.66 140.806 123.66C139.246 123.66 138.526 125.2 138.526 127.6V131.38C138.526 131.88 138.266 132.06 137.906 132.06H137.746C137.346 132.06 137.086 131.9 137.086 131.38V122.54C137.086 122.5 137.306 122.38 137.606 122.38C138.006 122.38 138.366 122.58 138.446 123.34C138.466 123.68 138.486 124.02 138.486 124.38C138.866 122.94 139.746 122.24 140.966 122.24ZM142.872 127.28C142.872 124.38 144.852 122.24 147.592 122.24C150.252 122.24 151.972 124.12 151.972 126.94V127.08C151.972 127.42 151.832 127.54 151.472 127.54H144.252C144.252 127.62 144.252 127.72 144.272 127.82C144.452 129.74 145.832 131.02 147.752 131.02C149.532 131.02 150.372 130.18 150.852 129.26C150.932 129.22 151.672 129.38 151.672 130.02C151.672 130.32 151.432 130.78 150.912 131.2C150.312 131.72 149.212 132.22 147.732 132.22C144.832 132.22 142.872 130.2 142.872 127.28ZM150.552 126.5C150.472 124.64 149.332 123.4 147.592 123.4C145.852 123.4 144.552 124.68 144.292 126.5H150.552ZM154.782 131.38V123.68H153.442C152.982 123.68 152.822 123.48 152.822 123.12V123C152.822 122.64 152.982 122.46 153.442 122.46H154.782V121.5C154.782 119.28 155.802 118.18 157.562 118.18C158.322 118.18 158.842 118.36 159.182 118.66C159.402 118.84 159.502 119.08 159.502 119.34C159.502 119.78 159.182 120.02 159.142 119.98C158.862 119.66 158.282 119.4 157.702 119.4C156.662 119.4 156.162 120.06 156.162 121.62V122.46H158.002C158.462 122.46 158.642 122.66 158.642 123V123.12C158.642 123.48 158.462 123.68 158.002 123.68H156.202V131.38C156.202 131.88 155.962 132.06 155.582 132.06H155.422C155.042 132.06 154.782 131.9 154.782 131.38ZM159.65 129.54C159.65 127.38 161.69 126.46 166.19 126.4H166.41V126C166.41 124.38 165.47 123.48 163.83 123.48C162.31 123.48 161.39 124.22 160.91 125.18C160.87 125.2 160.03 125.16 160.03 124.44C160.03 124.16 160.23 123.74 160.61 123.38C161.23 122.78 162.33 122.24 163.91 122.24C166.45 122.24 167.83 123.66 167.83 126.02V131.92C167.83 131.98 167.57 132.08 167.31 132.08C166.89 132.08 166.55 131.88 166.47 131.16C166.45 130.88 166.43 130.58 166.43 130.28C165.79 131.44 164.49 132.2 162.89 132.2C160.89 132.2 159.65 131.16 159.65 129.54ZM166.41 128.26V127.34L166.07 127.36C162.59 127.44 161.09 128.04 161.09 129.5C161.09 130.5 161.89 131.12 163.17 131.12C165.01 131.12 166.41 129.88 166.41 128.26ZM170.168 131.22C169.768 130.88 169.588 130.56 169.588 130.26C169.588 129.76 170.148 129.54 170.208 129.56C170.808 130.42 171.888 131.06 173.448 131.06C174.948 131.06 175.828 130.42 175.828 129.48C175.828 128.36 174.788 128.14 173.168 127.78C171.708 127.48 169.868 127.06 169.868 125.12C169.868 123.42 171.288 122.24 173.488 122.24C175.028 122.24 176.068 122.74 176.608 123.32C176.828 123.54 176.968 123.84 176.968 124.08C176.968 124.58 176.388 124.84 176.348 124.8C175.828 124 174.788 123.38 173.508 123.38C172.048 123.38 171.208 124.04 171.208 124.96C171.208 126 172.208 126.24 173.788 126.6C175.348 126.94 177.228 127.36 177.228 129.32C177.228 131.06 175.768 132.22 173.428 132.22C171.868 132.22 170.788 131.76 170.168 131.22Z" fill="#1A1A1A"/>
<mask id="path-3-inside-1_2_1999" fill="white">
<path d="M143.108 48C143.108 65.6731 128.782 80 111.108 80C93.4353 80 79.1084 65.6731 79.1084 48C79.1084 30.3269 93.4353 16 111.108 16C128.782 16 143.108 30.3269 143.108 48ZM91.6951 48C91.6951 58.7217 100.387 67.4133 111.108 67.4133C121.83 67.4133 130.522 58.7217 130.522 48C130.522 37.2783 121.83 28.5867 111.108 28.5867C100.387 28.5867 91.6951 37.2783 91.6951 48Z"/>
</mask>
<path d="M143.108 48C143.108 65.6731 128.782 80 111.108 80C93.4353 80 79.1084 65.6731 79.1084 48C79.1084 30.3269 93.4353 16 111.108 16C128.782 16 143.108 30.3269 143.108 48ZM91.6951 48C91.6951 58.7217 100.387 67.4133 111.108 67.4133C121.83 67.4133 130.522 58.7217 130.522 48C130.522 37.2783 121.83 28.5867 111.108 28.5867C100.387 28.5867 91.6951 37.2783 91.6951 48Z" fill="#FC5B03" stroke="#1A1A1A" stroke-width="4" mask="url(#path-3-inside-1_2_1999)"/>
<circle cx="111.108" cy="48" r="11" fill="#FC5B03" stroke="#1A1A1A" stroke-width="2"/>
<path d="M111.608 47.9999L147.741 32.0699" stroke="#1A1A1A" stroke-width="2"/>
</svg>
