<svg width="223" height="154" viewBox="0 0 223 154" fill="none" xmlns="http://www.w3.org/2000/svg">
<rect x="1" y="1" width="220" height="152" rx="15" fill="#97E191" stroke="#1A1A1A" stroke-width="2"/>
<path d="M110.953 17.1133C111.159 17.2665 111.439 17.5021 111.79 17.8262C112.526 18.5065 113.511 19.517 114.661 20.8066C116.96 23.3835 119.885 27.0352 122.762 31.3086C128.544 39.9002 134 50.8137 134 60.5C134 70.2833 124.394 79 110.974 79C97.5091 79 87.5 70.7474 87.5 60.5C87.5 49.812 93.0714 38.8967 98.9492 30.5771C101.877 26.4337 104.853 22.9723 107.189 20.5537C108.359 19.3436 109.358 18.4035 110.104 17.7734C110.46 17.4731 110.744 17.2549 110.953 17.1133Z" fill="#1463CC" stroke="#1A1A1A" stroke-width="2"/>
<line x1="102" y1="52" x2="119" y2="52" stroke="#1A1A1A" stroke-width="2" stroke-linecap="round"/>
<line x1="111" y1="44" x2="111" y2="61" stroke="#1A1A1A" stroke-width="2" stroke-linecap="round"/>
<path d="M50.127 106.38V94.86C50.127 94.34 50.487 94 51.027 94H51.427C52.067 94 52.227 94.24 52.487 94.84L55.987 102.16L59.487 94.84C59.727 94.22 59.927 94 60.507 94H60.887C61.467 94 61.807 94.34 61.807 94.86V106.38C61.807 106.82 61.627 107.06 61.187 107.06H61.007C60.587 107.06 60.387 106.82 60.387 106.38V102.86L60.407 95.82L56.987 102.98C56.807 103.42 56.607 103.7 55.967 103.7C55.287 103.7 55.127 103.42 54.927 102.98L51.527 95.84L51.547 102.82V106.38C51.547 106.82 51.367 107.06 50.927 107.06H50.707C50.287 107.06 50.127 106.82 50.127 106.38ZM63.9759 104.54C63.9759 102.38 66.0159 101.46 70.5159 101.4H70.7359V101C70.7359 99.38 69.7959 98.48 68.1559 98.48C66.6359 98.48 65.7159 99.22 65.2359 100.18C65.1959 100.2 64.3559 100.16 64.3559 99.44C64.3559 99.16 64.5559 98.74 64.9359 98.38C65.5559 97.78 66.6559 97.24 68.2359 97.24C70.7759 97.24 72.1559 98.66 72.1559 101.02V106.92C72.1559 106.98 71.8959 107.08 71.6359 107.08C71.2159 107.08 70.8759 106.88 70.7959 106.16C70.7759 105.88 70.7559 105.58 70.7559 105.28C70.1159 106.44 68.8159 107.2 67.2159 107.2C65.2159 107.2 63.9759 106.16 63.9759 104.54ZM70.7359 103.26V102.34L70.3959 102.36C66.9159 102.44 65.4159 103.04 65.4159 104.5C65.4159 105.5 66.2159 106.12 67.4959 106.12C69.3359 106.12 70.7359 104.88 70.7359 103.26ZM74.5545 94.46C74.5545 93.86 74.8945 93.54 75.4745 93.54C76.0545 93.54 76.3945 93.86 76.3945 94.46C76.3945 95.04 76.0345 95.36 75.4545 95.36C74.8945 95.36 74.5545 95.04 74.5545 94.46ZM74.7345 106.38V98.08C74.7345 97.56 74.9945 97.38 75.3745 97.38H75.5345C75.9145 97.38 76.1745 97.54 76.1745 98.08V106.38C76.1745 106.9 75.9145 107.06 75.5345 107.06H75.3745C74.9945 107.06 74.7345 106.9 74.7345 106.38ZM78.6937 106.22C78.2937 105.88 78.1137 105.56 78.1137 105.26C78.1137 104.76 78.6737 104.54 78.7337 104.56C79.3337 105.42 80.4137 106.06 81.9737 106.06C83.4737 106.06 84.3537 105.42 84.3537 104.48C84.3537 103.36 83.3137 103.14 81.6937 102.78C80.2337 102.48 78.3937 102.06 78.3937 100.12C78.3937 98.42 79.8137 97.24 82.0137 97.24C83.5537 97.24 84.5937 97.74 85.1337 98.32C85.3537 98.54 85.4937 98.84 85.4937 99.08C85.4937 99.58 84.9137 99.84 84.8737 99.8C84.3537 99 83.3137 98.38 82.0337 98.38C80.5737 98.38 79.7337 99.04 79.7337 99.96C79.7337 101 80.7337 101.24 82.3137 101.6C83.8737 101.94 85.7537 102.36 85.7537 104.32C85.7537 106.06 84.2937 107.22 81.9537 107.22C80.3937 107.22 79.3137 106.76 78.6937 106.22ZM91.0179 106.22C90.6179 105.88 90.4379 105.56 90.4379 105.26C90.4379 104.76 90.9979 104.54 91.0579 104.56C91.6579 105.42 92.7379 106.06 94.2979 106.06C95.7979 106.06 96.6779 105.42 96.6779 104.48C96.6779 103.36 95.6379 103.14 94.0179 102.78C92.5579 102.48 90.7179 102.06 90.7179 100.12C90.7179 98.42 92.1379 97.24 94.3379 97.24C95.8779 97.24 96.9179 97.74 97.4579 98.32C97.6779 98.54 97.8179 98.84 97.8179 99.08C97.8179 99.58 97.2379 99.84 97.1979 99.8C96.6779 99 95.6379 98.38 94.3579 98.38C92.8979 98.38 92.0579 99.04 92.0579 99.96C92.0579 101 93.0579 101.24 94.6379 101.6C96.1979 101.94 98.0779 102.36 98.0779 104.32C98.0779 106.06 96.6179 107.22 94.2779 107.22C92.7179 107.22 91.6379 106.76 91.0179 106.22ZM99.4642 104.54C99.4642 102.38 101.504 101.46 106.004 101.4H106.224V101C106.224 99.38 105.284 98.48 103.644 98.48C102.124 98.48 101.204 99.22 100.724 100.18C100.684 100.2 99.8442 100.16 99.8442 99.44C99.8442 99.16 100.044 98.74 100.424 98.38C101.044 97.78 102.144 97.24 103.724 97.24C106.264 97.24 107.644 98.66 107.644 101.02V106.92C107.644 106.98 107.384 107.08 107.124 107.08C106.704 107.08 106.364 106.88 106.284 106.16C106.264 105.88 106.244 105.58 106.244 105.28C105.604 106.44 104.304 107.2 102.704 107.2C100.704 107.2 99.4642 106.16 99.4642 104.54ZM106.224 103.26V102.34L105.884 102.36C102.404 102.44 100.904 103.04 100.904 104.5C100.904 105.5 101.704 106.12 102.984 106.12C104.824 106.12 106.224 104.88 106.224 103.26ZM112.823 96.02C112.683 96.02 112.643 95.98 112.643 95.94C112.643 95.74 114.503 92.72 115.683 92.72C116.043 92.72 116.303 93 116.303 93.36C116.303 94.5 113.023 96.02 112.823 96.02ZM117.743 97.38C118.123 97.38 118.383 97.54 118.383 98.06V106.92C118.383 106.96 118.143 107.08 117.863 107.08C117.463 107.08 117.103 106.88 117.023 106.14C117.003 105.88 116.983 105.62 116.983 105.36C116.343 106.42 115.243 107.22 113.703 107.22C111.243 107.22 110.043 105.52 110.043 103.06V98.06C110.043 97.54 110.303 97.38 110.683 97.38H110.843C111.223 97.38 111.483 97.54 111.483 98.06V102.96C111.483 104.8 112.383 105.94 114.003 105.94C115.383 105.94 116.423 105.16 116.943 104V98.06C116.943 97.54 117.203 97.38 117.563 97.38H117.743ZM124.743 107.22C122.223 107.22 120.343 105.22 120.343 102.22C120.343 99.26 122.223 97.24 124.783 97.24C126.483 97.24 127.683 98.1 128.223 99.08V93.52C128.223 93.46 128.443 93.36 128.723 93.36C129.203 93.36 129.663 93.6 129.663 94.64V106.38C129.663 106.9 129.403 107.06 129.023 107.06H128.883C128.523 107.06 128.263 106.9 128.263 106.42C128.243 106.02 128.243 105.62 128.243 105.18C127.563 106.4 126.423 107.22 124.743 107.22ZM128.223 102.88V100.74C127.703 99.36 126.643 98.46 125.023 98.46C123.103 98.46 121.783 99.96 121.783 102.22C121.783 104.44 123.123 106 125.003 106C126.783 106 128.223 104.66 128.223 102.88ZM131.632 102.28C131.632 99.38 133.612 97.24 136.352 97.24C139.012 97.24 140.732 99.12 140.732 101.94V102.08C140.732 102.42 140.592 102.54 140.232 102.54H133.012C133.012 102.62 133.012 102.72 133.032 102.82C133.212 104.74 134.592 106.02 136.512 106.02C138.292 106.02 139.132 105.18 139.612 104.26C139.692 104.22 140.432 104.38 140.432 105.02C140.432 105.32 140.192 105.78 139.672 106.2C139.072 106.72 137.972 107.22 136.492 107.22C133.592 107.22 131.632 105.2 131.632 102.28ZM139.312 101.5C139.232 99.64 138.092 98.4 136.352 98.4C134.612 98.4 133.312 99.68 133.052 101.5H139.312ZM151.019 97.24C153.519 97.24 155.419 99.22 155.419 102.2C155.419 105.18 153.559 107.22 150.979 107.22C149.239 107.22 148.039 106.26 147.539 105.22V110.18C147.539 110.68 147.279 110.86 146.919 110.86H146.759C146.379 110.86 146.119 110.68 146.119 110.18V97.54C146.119 97.5 146.339 97.38 146.619 97.38C147.039 97.38 147.439 97.62 147.499 98.46C147.499 98.7 147.519 99.02 147.519 99.28C148.219 98.04 149.359 97.24 151.019 97.24ZM150.719 106C152.679 106 153.999 104.48 153.999 102.22C153.999 100 152.619 98.46 150.759 98.46C149.159 98.46 148.059 99.38 147.519 100.76V102.88C147.519 104.64 148.959 106 150.719 106ZM161.268 97.24C162.128 97.24 162.688 97.66 162.688 98.28C162.688 98.86 162.288 99.1 162.248 99.06C162.008 98.82 161.628 98.66 161.108 98.66C159.548 98.66 158.828 100.2 158.828 102.6V106.38C158.828 106.88 158.568 107.06 158.208 107.06H158.048C157.648 107.06 157.388 106.9 157.388 106.38V97.54C157.388 97.5 157.608 97.38 157.908 97.38C158.308 97.38 158.668 97.58 158.748 98.34C158.768 98.68 158.788 99.02 158.788 99.38C159.168 97.94 160.048 97.24 161.268 97.24ZM163.175 102.22C163.175 99.32 165.175 97.24 168.035 97.24C170.855 97.24 172.855 99.34 172.855 102.26C172.855 105.14 170.855 107.22 168.015 107.22C165.155 107.22 163.175 105.12 163.175 102.22ZM171.455 102.26C171.455 100.06 170.035 98.46 168.035 98.46C166.035 98.46 164.575 100.02 164.575 102.22C164.575 104.42 166.035 106 168.035 106C170.015 106 171.455 104.44 171.455 102.26ZM82.2191 131.22C81.8191 130.88 81.6391 130.56 81.6391 130.26C81.6391 129.76 82.1991 129.54 82.2591 129.56C82.8591 130.42 83.9391 131.06 85.4991 131.06C86.9991 131.06 87.8791 130.42 87.8791 129.48C87.8791 128.36 86.8391 128.14 85.2191 127.78C83.7591 127.48 81.9191 127.06 81.9191 125.12C81.9191 123.42 83.3391 122.24 85.5391 122.24C87.0791 122.24 88.1191 122.74 88.6591 123.32C88.8791 123.54 89.0191 123.84 89.0191 124.08C89.0191 124.58 88.4391 124.84 88.3991 124.8C87.8791 124 86.8391 123.38 85.5591 123.38C84.0991 123.38 83.2591 124.04 83.2591 124.96C83.2591 126 84.2591 126.24 85.8391 126.6C87.3991 126.94 89.2791 127.36 89.2791 129.32C89.2791 131.06 87.8191 132.22 85.4791 132.22C83.9191 132.22 82.8391 131.76 82.2191 131.22ZM90.6654 129.54C90.6654 127.38 92.7054 126.46 97.2054 126.4H97.4254V126C97.4254 124.38 96.4854 123.48 94.8454 123.48C93.3254 123.48 92.4054 124.22 91.9254 125.18C91.8854 125.2 91.0454 125.16 91.0454 124.44C91.0454 124.16 91.2454 123.74 91.6254 123.38C92.2454 122.78 93.3454 122.24 94.9254 122.24C97.4654 122.24 98.8454 123.66 98.8454 126.02V131.92C98.8454 131.98 98.5854 132.08 98.3254 132.08C97.9054 132.08 97.5654 131.88 97.4854 131.16C97.4654 130.88 97.4454 130.58 97.4454 130.28C96.8054 131.44 95.5054 132.2 93.9054 132.2C91.9054 132.2 90.6654 131.16 90.6654 129.54ZM97.4254 128.26V127.34L97.0854 127.36C93.6054 127.44 92.1054 128.04 92.1054 129.5C92.1054 130.5 92.9054 131.12 94.1854 131.12C96.0254 131.12 97.4254 129.88 97.4254 128.26ZM106.004 122.24C108.464 122.24 109.664 123.94 109.664 126.38V131.38C109.664 131.9 109.404 132.06 109.044 132.06H108.864C108.484 132.06 108.224 131.9 108.224 131.38V126.5C108.224 124.66 107.344 123.52 105.724 123.52C104.324 123.52 103.284 124.3 102.764 125.44V131.38C102.764 131.9 102.504 132.06 102.144 132.06H101.964C101.584 132.06 101.324 131.9 101.324 131.38V122.54C101.324 122.5 101.564 122.38 101.844 122.38C102.284 122.38 102.684 122.6 102.724 123.58V124.14C103.364 123 104.484 122.24 106.004 122.24ZM115.304 136.2C112.324 136.2 110.844 135.32 110.844 133.6C110.844 132.2 112.224 131.22 113.964 130.9C113.624 130.7 113.364 130.4 113.364 129.94C113.364 129.52 113.604 129.16 113.944 128.92C112.484 128.46 111.524 127.26 111.524 125.78C111.524 123.8 113.164 122.24 115.384 122.24C116.224 122.24 117.024 122.48 117.644 122.9L118.364 121.82C118.644 121.34 118.964 121.2 119.304 121.24C119.764 121.3 120.024 121.76 120.004 121.88L118.424 123.56C118.944 124.14 119.284 124.88 119.284 125.72C119.284 127.66 117.644 129.14 115.404 129.14C115.224 129.14 115.064 129.14 114.884 129.12C114.684 129.26 114.644 129.44 114.644 129.64C114.664 130.28 115.624 130.38 117.244 130.78C118.624 131.12 120.104 131.8 120.104 133.34C120.104 135.12 118.344 136.2 115.304 136.2ZM115.384 128.14C116.824 128.14 117.844 127.18 117.844 125.74C117.844 124.32 116.864 123.32 115.364 123.32C113.924 123.32 112.924 124.3 112.924 125.74C112.924 127.18 113.944 128.14 115.384 128.14ZM115.344 135.16C117.444 135.16 118.704 134.56 118.704 133.44C118.704 132.56 117.704 132.16 116.604 131.88C116.204 131.78 115.804 131.7 115.424 131.6C113.724 131.74 112.244 132.46 112.244 133.58C112.244 134.6 113.324 135.16 115.344 135.16ZM128.963 122.38C129.343 122.38 129.603 122.54 129.603 123.06V131.92C129.603 131.96 129.363 132.08 129.083 132.08C128.683 132.08 128.323 131.88 128.243 131.14C128.223 130.88 128.203 130.62 128.203 130.36C127.563 131.42 126.463 132.22 124.923 132.22C122.463 132.22 121.263 130.52 121.263 128.06V123.06C121.263 122.54 121.523 122.38 121.903 122.38H122.063C122.443 122.38 122.703 122.54 122.703 123.06V127.96C122.703 129.8 123.603 130.94 125.223 130.94C126.603 130.94 127.643 130.16 128.163 129V123.06C128.163 122.54 128.423 122.38 128.783 122.38H128.963ZM131.368 127.28C131.368 124.38 133.348 122.24 136.088 122.24C138.748 122.24 140.468 124.12 140.468 126.94V127.08C140.468 127.42 140.328 127.54 139.968 127.54H132.748C132.748 127.62 132.748 127.72 132.768 127.82C132.948 129.74 134.328 131.02 136.248 131.02C138.028 131.02 138.868 130.18 139.348 129.26C139.428 129.22 140.168 129.38 140.168 130.02C140.168 130.32 139.928 130.78 139.408 131.2C138.808 131.72 137.708 132.22 136.228 132.22C133.328 132.22 131.368 130.2 131.368 127.28ZM139.048 126.5C138.968 124.64 137.828 123.4 136.088 123.4C134.348 123.4 133.048 124.68 132.788 126.5H139.048Z" fill="#1A1A1A"/>
</svg>
