<svg width="223" height="154" viewBox="0 0 223 154" fill="none" xmlns="http://www.w3.org/2000/svg">
<rect x="1.1084" y="1" width="220" height="152" rx="15" fill="#1463CC" stroke="#1A1A1A" stroke-width="2"/>
<path d="M39.6198 95.28L39.9198 104.5C39.9598 106.12 41.0398 105.84 41.0398 106.56C41.0398 106.9 40.7598 107 40.1598 107H37.9798C37.2998 107 36.9798 106.9 36.9798 106.56C36.9798 105.86 38.1198 106.1 38.0798 104.5L37.8598 95.46L33.1598 105.7C33.0398 105.92 32.9198 106.04 32.6198 106.12C32.2398 106.2 32.0598 106.1 31.9798 105.9L27.6798 95.6L27.3598 104.6C27.2998 106.2 28.3398 105.92 28.3398 106.58C28.3398 106.92 28.0598 107 27.4398 107H26.0798C25.5198 107 25.1998 106.9 25.1998 106.58C25.1998 105.92 26.2998 106.2 26.3598 104.6L26.7198 95.28C26.7798 93.92 25.7598 93.92 25.7598 93.38C25.7598 93.1 25.9598 93 26.5398 93H28.1398C28.3998 93 28.5798 93.12 28.6798 93.38L33.0198 103.78L37.7598 93.38C37.8598 93.12 38.0398 93 38.2998 93H39.7998C40.3798 93 40.5798 93.1 40.5798 93.38C40.5798 93.98 39.5598 93.78 39.6198 95.28ZM51.9855 105.76C52.2055 105.76 52.3855 105.78 52.3855 106C52.3855 106.5 51.6055 107.14 50.7055 107.14C49.7655 107.14 49.5055 106.56 49.3255 105.6C48.4855 106.64 47.1055 107.2 45.9455 107.2C43.5055 107.2 42.1055 105.84 42.1055 104.14C42.1055 102.22 43.8255 100.9 46.2655 100.9C47.1055 100.9 47.6655 100.98 48.4255 101.16C48.0255 99.56 47.7655 98.42 46.0255 98.42C44.8855 98.42 44.1455 98.78 43.3055 99.26C42.9255 99.5 42.6055 99.2 42.8655 98.8C43.3455 98.1 44.7855 97.22 46.6055 97.22C48.8055 97.22 49.6655 98.6 50.0455 100.34L50.9655 104.68C51.1855 105.7 51.6055 105.76 51.9855 105.76ZM46.4055 106.2C47.7855 106.2 49.2255 105.14 49.0655 104.26C48.9855 103.8 48.8255 103.28 48.6455 102.4C48.5655 101.92 47.2455 101.74 46.6255 101.74C44.8655 101.74 43.9255 102.58 43.9455 103.92C44.0055 105.22 44.9055 106.2 46.4055 106.2ZM54.7816 95.7C54.2416 95.66 53.8416 95.26 53.8816 94.7C53.9216 93.98 54.8216 93.14 55.6216 93.24C56.1616 93.28 56.5416 93.78 56.5216 94.28C56.4616 94.98 55.5616 95.76 54.7816 95.7ZM54.6016 104.36V100.4C54.6016 98.66 53.6216 99 53.6216 98.38C53.6216 98.18 53.7016 98.08 54.1816 97.86C55.0816 97.44 55.7616 97.22 56.0416 97.2C56.3016 97.18 56.4416 97.28 56.4416 97.64L56.4216 100.4V104.36C56.4216 106.28 57.3616 105.92 57.3616 106.62C57.3616 106.92 57.0616 107 56.5816 107H54.4416C53.9616 107 53.6416 106.92 53.6416 106.6C53.6416 105.92 54.6016 106.28 54.6016 104.36ZM60.4442 107.2C60.1642 107.2 60.1242 107.08 59.8842 106.52C59.5842 105.72 59.3842 105.2 59.1442 104.4C59.0842 104.12 59.1442 103.94 59.3642 103.86C59.5642 103.78 59.7842 103.94 60.0442 104.22C61.6042 105.9 62.6842 106.28 63.7642 106.28C64.6642 106.28 65.4442 105.84 65.4442 104.96C65.4442 104.1 64.3242 103.56 62.7042 102.9C60.9642 102.22 59.3442 101.52 59.3442 99.88C59.3442 98.06 61.0042 97.2 62.5242 97.2C63.5842 97.2 64.2242 97.42 64.7442 97.44C65.0642 97.46 65.1442 97.2 65.4042 97.2C65.6642 97.2 65.7842 97.46 66.0242 97.86C66.3242 98.42 66.4842 98.78 66.6442 99.14C66.7642 99.46 66.7642 99.72 66.5642 99.84C66.2442 100.02 65.9642 99.66 65.2842 99.14C64.5042 98.56 63.5242 98.08 62.5842 98.08C61.5042 98.08 60.9042 98.62 60.9042 99.32C60.9042 100.2 61.8442 100.64 63.6842 101.38C65.6042 102.14 67.1642 102.9 67.1642 104.4C67.1642 105.88 65.7242 107.2 63.5242 107.2C62.2042 107.2 61.6042 106.82 61.2042 106.82C60.8842 106.82 60.8042 107.2 60.4442 107.2ZM77.1803 107.2C74.3603 107.2 72.5203 105.12 72.5203 102.54C72.5203 99.52 74.7203 97.22 77.5803 97.22C80.0603 97.22 81.4603 98.88 81.4603 100.46C81.4603 101.14 81.0603 101.54 80.5203 101.54C79.9003 101.54 79.6603 101.06 79.5003 100.52C79.1203 99.18 78.4603 98.18 77.0403 98.14C75.3003 98.14 74.2803 99.58 74.2803 101.5C74.2803 104.14 75.7603 105.86 77.9603 105.86C79.2803 105.86 80.1803 105.2 80.9003 104.44C81.2403 104.1 81.6803 104.3 81.4803 104.8C81.0603 105.8 79.7403 107.2 77.1803 107.2ZM87.5328 107.2C84.8328 107.2 82.8328 105.4 82.8328 102.56C82.8328 99.54 85.0128 97.2 88.1128 97.2C90.7728 97.2 92.7128 99.26 92.7128 101.96C92.7128 104.92 90.5928 107.2 87.5328 107.2ZM88.1528 106.24C89.8528 106.24 90.9128 104.88 90.9128 102.96C90.9128 100.46 89.4128 98.22 87.4128 98.22C85.6328 98.22 84.6528 99.7 84.6528 101.6C84.6528 104.22 86.1128 106.24 88.1528 106.24ZM104.141 101.4L104.761 104.92C105.001 106.16 105.821 106.02 105.821 106.62C105.821 106.92 105.541 107 105.041 107H102.921C102.441 107 102.121 106.92 102.121 106.6C102.121 106.02 103.161 106.16 102.941 104.86L102.361 101.54C102.101 99.96 101.761 98.4 99.9409 98.42C98.6409 98.44 97.2609 99.6 97.2609 102.04V104.36C97.2609 106.28 98.1809 105.92 98.1809 106.62C98.1809 106.92 97.9009 107 97.4009 107H95.2609C94.8009 107 94.4609 106.92 94.4609 106.6C94.4609 105.92 95.4409 106.28 95.4409 104.36V100.34C95.4409 99.66 95.3609 99.16 94.8209 98.84C94.6009 98.7 94.4609 98.58 94.4609 98.38C94.4609 98.16 94.5609 98.04 95.0409 97.82C95.7209 97.5 96.4009 97.28 96.6809 97.26C96.9409 97.26 97.0809 97.36 97.0809 97.7L97.0609 99.4C97.8609 97.92 99.2609 97.2 100.581 97.2C102.581 97.2 103.621 98.32 104.141 101.4ZM111.262 107.2C108.442 107.2 106.602 105.12 106.602 102.54C106.602 99.52 108.802 97.22 111.662 97.22C114.142 97.22 115.542 98.88 115.542 100.46C115.542 101.14 115.142 101.54 114.602 101.54C113.982 101.54 113.742 101.06 113.582 100.52C113.202 99.18 112.542 98.18 111.122 98.14C109.382 98.14 108.362 99.58 108.362 101.5C108.362 104.14 109.842 105.86 112.042 105.86C113.362 105.86 114.262 105.2 114.982 104.44C115.322 104.1 115.762 104.3 115.562 104.8C115.142 105.8 113.822 107.2 111.262 107.2ZM125.475 104.42C125.815 104.06 126.255 104.28 126.055 104.78C125.635 105.76 124.115 107.2 121.595 107.2C118.795 107.2 116.915 105.18 116.915 102.54C116.915 99.52 119.035 97.2 121.995 97.2C124.175 97.2 125.635 98.46 125.995 100.18C126.075 100.54 125.995 100.82 125.535 101C123.375 101.84 121.255 102.56 118.935 103.32C119.315 104.48 120.455 105.84 122.315 105.84C123.655 105.84 124.755 105.18 125.475 104.42ZM121.375 98.14C119.575 98.16 118.675 99.8 118.675 101.26C118.675 101.76 118.695 102.14 118.795 102.48C120.435 101.94 121.995 101.42 123.455 100.86C123.775 100.74 123.895 100.54 123.835 100.18C123.635 98.94 122.475 98.1 121.375 98.14ZM137.403 101.4L138.023 104.92C138.263 106.16 139.083 106.02 139.083 106.62C139.083 106.92 138.803 107 138.303 107H136.183C135.703 107 135.383 106.92 135.383 106.6C135.383 106.02 136.423 106.16 136.203 104.86L135.623 101.54C135.363 99.96 135.023 98.4 133.203 98.42C131.903 98.44 130.523 99.6 130.523 102.04V104.36C130.523 106.28 131.443 105.92 131.443 106.62C131.443 106.92 131.163 107 130.663 107H128.523C128.063 107 127.723 106.92 127.723 106.6C127.723 105.92 128.703 106.28 128.703 104.36V100.34C128.703 99.66 128.623 99.16 128.083 98.84C127.863 98.7 127.723 98.58 127.723 98.38C127.723 98.16 127.823 98.04 128.303 97.82C128.983 97.5 129.663 97.28 129.943 97.26C130.203 97.26 130.343 97.36 130.343 97.7L130.323 99.4C131.123 97.92 132.523 97.2 133.843 97.2C135.843 97.2 136.883 98.32 137.403 101.4ZM145.344 105.18C145.644 104.9 145.984 105.16 145.844 105.52C145.564 106.2 144.664 107.2 143.164 107.2C141.524 107.2 140.764 106.18 140.764 104.36V103.76C140.764 101.42 140.784 99.56 140.844 98.32H140.084C139.684 98.32 139.524 98.2 139.524 97.92C139.524 97.78 139.544 97.68 139.704 97.5C140.444 96.66 141.184 96.04 141.844 95.54C142.144 95.34 142.244 95.34 142.384 95.34C142.644 95.34 142.724 95.52 142.704 95.82C142.664 96.22 142.644 96.6 142.624 97.4H144.624C144.964 97.4 145.244 97.42 145.144 97.9C145.044 98.4 144.724 98.44 144.384 98.42L142.604 98.36L142.524 103.76C142.484 105.1 142.724 105.84 143.824 105.84C144.364 105.84 144.984 105.5 145.344 105.18ZM152.734 97.2C153.814 97.2 154.294 97.88 154.294 98.58C154.294 99.1 153.954 99.58 153.494 99.6C152.654 99.62 152.694 98.74 151.774 98.74C150.894 98.74 150.054 99.98 150.054 101.74V104.36C150.054 106.28 150.974 105.92 150.974 106.62C150.974 106.92 150.694 107 150.194 107H148.054C147.594 107 147.254 106.92 147.254 106.6C147.254 105.92 148.234 106.28 148.234 104.36V100.34C148.234 99.66 148.154 99.16 147.614 98.84C147.394 98.7 147.254 98.58 147.254 98.38C147.254 98.16 147.354 98.04 147.834 97.82C148.514 97.5 149.194 97.28 149.474 97.26C149.734 97.26 149.874 97.36 149.874 97.7L149.854 99.32C150.474 98.14 151.554 97.2 152.734 97.2ZM164.72 105.76C164.94 105.76 165.12 105.78 165.12 106C165.12 106.5 164.34 107.14 163.44 107.14C162.5 107.14 162.24 106.56 162.06 105.6C161.22 106.64 159.84 107.2 158.68 107.2C156.24 107.2 154.84 105.84 154.84 104.14C154.84 102.22 156.56 100.9 159 100.9C159.84 100.9 160.4 100.98 161.16 101.16C160.76 99.56 160.5 98.42 158.76 98.42C157.62 98.42 156.88 98.78 156.04 99.26C155.66 99.5 155.34 99.2 155.6 98.8C156.08 98.1 157.52 97.22 159.34 97.22C161.54 97.22 162.4 98.6 162.78 100.34L163.7 104.68C163.92 105.7 164.34 105.76 164.72 105.76ZM159.14 106.2C160.52 106.2 161.96 105.14 161.8 104.26C161.72 103.8 161.56 103.28 161.38 102.4C161.3 101.92 159.98 101.74 159.36 101.74C157.6 101.74 156.66 102.58 156.68 103.92C156.74 105.22 157.64 106.2 159.14 106.2ZM174.26 104.44C174.6 104.1 175.04 104.3 174.84 104.8C174.44 105.76 173.22 107.08 170.88 107.2L170.44 108.06C171.44 108.24 172.28 108.68 172.28 109.64C172.28 110.58 171.44 111.22 170.44 111.22C169.58 111.22 169.08 110.9 168.82 110.58C168.64 110.36 168.86 110.08 169.14 110.26C169.42 110.42 169.72 110.6 170.22 110.6C170.84 110.6 171.14 110.2 171.14 109.76C171.14 109.1 170.44 108.84 169.78 108.68C169.58 108.64 169.44 108.52 169.54 108.34L170.16 107.18C167.56 107 165.88 105 165.88 102.54C165.88 99.52 168.08 97.22 170.94 97.22C173.42 97.22 174.82 98.88 174.82 100.46C174.82 101.14 174.42 101.54 173.88 101.54C173.26 101.54 173.02 101.06 172.86 100.52C172.48 99.18 171.82 98.18 170.4 98.14C168.66 98.14 167.64 99.58 167.64 101.5C167.64 104.14 169.12 105.86 171.32 105.86C172.64 105.86 173.54 105.2 174.26 104.44ZM178.252 95.92C178.252 96.4 177.672 96.12 177.672 95.38C177.672 94.68 178.172 94.18 179.052 94.18C180.332 94.18 181.632 95.02 182.312 95.02C182.792 95.02 183.012 94.82 183.012 94.44C183.012 93.94 183.592 94.22 183.592 94.96C183.592 95.66 183.072 96.18 182.192 96.18C181.252 96.18 179.952 95.34 178.952 95.34C178.492 95.34 178.252 95.52 178.252 95.92ZM185.872 105.76C186.092 105.76 186.272 105.78 186.272 106C186.272 106.5 185.492 107.14 184.592 107.14C183.652 107.14 183.392 106.56 183.212 105.6C182.372 106.64 180.992 107.2 179.832 107.2C177.392 107.2 175.992 105.84 175.992 104.14C175.992 102.22 177.712 100.9 180.152 100.9C180.992 100.9 181.552 100.98 182.312 101.16C181.912 99.56 181.652 98.42 179.912 98.42C178.772 98.42 178.032 98.78 177.192 99.26C176.812 99.5 176.492 99.2 176.752 98.8C177.232 98.1 178.672 97.22 180.492 97.22C182.692 97.22 183.552 98.6 183.932 100.34L184.852 104.68C185.072 105.7 185.492 105.76 185.872 105.76ZM180.292 106.2C181.672 106.2 183.112 105.14 182.952 104.26C182.872 103.8 182.712 103.28 182.532 102.4C182.452 101.92 181.132 101.74 180.512 101.74C178.752 101.74 177.812 102.58 177.832 103.92C177.892 105.22 178.792 106.2 180.292 106.2ZM191.732 107.2C189.032 107.2 187.032 105.4 187.032 102.56C187.032 99.54 189.212 97.2 192.312 97.2C194.972 97.2 196.912 99.26 196.912 101.96C196.912 104.92 194.792 107.2 191.732 107.2ZM192.352 106.24C194.052 106.24 195.112 104.88 195.112 102.96C195.112 100.46 193.612 98.22 191.612 98.22C189.832 98.22 188.852 99.7 188.852 101.6C188.852 104.22 190.312 106.24 192.352 106.24ZM52.8186 130.42C53.1586 130.06 53.5986 130.28 53.3986 130.78C52.9786 131.76 51.4586 133.2 48.9386 133.2C46.1386 133.2 44.2586 131.18 44.2586 128.54C44.2586 125.52 46.3786 123.2 49.3386 123.2C51.5186 123.2 52.9786 124.46 53.3386 126.18C53.4186 126.54 53.3386 126.82 52.8786 127C50.7186 127.84 48.5986 128.56 46.2786 129.32C46.6586 130.48 47.7986 131.84 49.6586 131.84C50.9986 131.84 52.0986 131.18 52.8186 130.42ZM48.7186 124.14C46.9186 124.16 46.0186 125.8 46.0186 127.26C46.0186 127.76 46.0386 128.14 46.1386 128.48C47.7786 127.94 49.3386 127.42 50.7986 126.86C51.1186 126.74 51.2386 126.54 51.1786 126.18C50.9786 124.94 49.8186 124.1 48.7186 124.14ZM68.4503 131.76C68.6703 131.76 68.8503 131.78 68.8503 132C68.8503 132.5 68.0703 133.14 67.1703 133.14C66.2303 133.14 65.9703 132.56 65.7903 131.6C64.9503 132.64 63.5703 133.2 62.4103 133.2C59.9703 133.2 58.5703 131.84 58.5703 130.14C58.5703 128.22 60.2903 126.9 62.7303 126.9C63.5703 126.9 64.1303 126.98 64.8903 127.16C64.4903 125.56 64.2303 124.42 62.4903 124.42C61.3503 124.42 60.6103 124.78 59.7703 125.26C59.3903 125.5 59.0703 125.2 59.3303 124.8C59.8103 124.1 61.2503 123.22 63.0703 123.22C65.2703 123.22 66.1303 124.6 66.5103 126.34L67.4303 130.68C67.6503 131.7 68.0703 131.76 68.4503 131.76ZM62.8703 132.2C64.2503 132.2 65.6903 131.14 65.5303 130.26C65.4503 129.8 65.2903 129.28 65.1103 128.4C65.0303 127.92 63.7103 127.74 63.0903 127.74C61.3303 127.74 60.3903 128.58 60.4103 129.92C60.4703 131.22 61.3703 132.2 62.8703 132.2ZM76.1269 123.2C78.6269 123.2 80.1869 125.22 80.1869 127.96C80.1869 130.98 78.3269 133.18 75.8469 133.2C74.6669 133.22 73.4469 132.78 72.6869 132.14L72.7069 134.36C72.7069 136.28 73.6269 135.92 73.6269 136.62C73.6269 136.92 73.3469 137 72.8469 137H70.7069C70.2469 137 69.9269 136.92 69.9269 136.62C69.9269 135.92 70.8869 136.28 70.8869 134.36L70.8469 126.26C70.8469 125.6 70.7669 125.1 70.2469 124.78C70.0269 124.64 69.8869 124.52 69.8869 124.32C69.8869 124.08 69.9869 123.96 70.4669 123.74C71.1469 123.44 71.8269 123.22 72.1069 123.2C72.3669 123.18 72.5069 123.28 72.5069 123.64L72.4869 125.26C73.1269 124.18 74.3269 123.2 76.1269 123.2ZM75.8469 132.3C77.5869 132.28 78.3869 130.68 78.3869 128.76C78.3869 125.88 76.9869 124.46 75.4669 124.46C73.6269 124.46 72.6869 126.2 72.6869 127.66V129.06C72.6869 131.14 74.4469 132.32 75.8469 132.3ZM87.3823 123.2C88.4623 123.2 88.9423 123.88 88.9423 124.58C88.9423 125.1 88.6023 125.58 88.1423 125.6C87.3023 125.62 87.3423 124.74 86.4223 124.74C85.5423 124.74 84.7023 125.98 84.7023 127.74V130.36C84.7023 132.28 85.6223 131.92 85.6223 132.62C85.6223 132.92 85.3423 133 84.8423 133H82.7023C82.2423 133 81.9023 132.92 81.9023 132.6C81.9023 131.92 82.8823 132.28 82.8823 130.36V126.34C82.8823 125.66 82.8023 125.16 82.2623 124.84C82.0423 124.7 81.9023 124.58 81.9023 124.38C81.9023 124.16 82.0023 124.04 82.4823 123.82C83.1623 123.5 83.8423 123.28 84.1223 123.26C84.3823 123.26 84.5223 123.36 84.5223 123.7L84.5023 125.32C85.1223 124.14 86.2023 123.2 87.3823 123.2ZM98.385 130.42C98.725 130.06 99.165 130.28 98.965 130.78C98.545 131.76 97.025 133.2 94.505 133.2C91.705 133.2 89.825 131.18 89.825 128.54C89.825 125.52 91.945 123.2 94.905 123.2C97.085 123.2 98.545 124.46 98.905 126.18C98.985 126.54 98.905 126.82 98.445 127C96.285 127.84 94.165 128.56 91.845 129.32C92.225 130.48 93.365 131.84 95.225 131.84C96.565 131.84 97.665 131.18 98.385 130.42ZM94.285 124.14C92.485 124.16 91.585 125.8 91.585 127.26C91.585 127.76 91.605 128.14 91.705 128.48C93.345 127.94 94.905 127.42 96.365 126.86C96.685 126.74 96.805 126.54 96.745 126.18C96.545 124.94 95.385 124.1 94.285 124.14ZM110.313 127.4L110.933 130.92C111.173 132.16 111.993 132.02 111.993 132.62C111.993 132.92 111.713 133 111.213 133H109.093C108.613 133 108.293 132.92 108.293 132.6C108.293 132.02 109.333 132.16 109.113 130.86L108.533 127.54C108.273 125.96 107.933 124.4 106.113 124.42C104.813 124.44 103.433 125.6 103.433 128.04V130.36C103.433 132.28 104.353 131.92 104.353 132.62C104.353 132.92 104.073 133 103.573 133H101.433C100.973 133 100.633 132.92 100.633 132.6C100.633 131.92 101.613 132.28 101.613 130.36V126.34C101.613 125.66 101.533 125.16 100.993 124.84C100.773 124.7 100.633 124.58 100.633 124.38C100.633 124.16 100.733 124.04 101.213 123.82C101.893 123.5 102.573 123.28 102.853 123.26C103.113 123.26 103.253 123.36 103.253 123.7L103.233 125.4C104.033 123.92 105.433 123.2 106.753 123.2C108.753 123.2 109.793 124.32 110.313 127.4ZM122.374 119.24L122.354 122L122.334 130.38C122.334 131.88 123.534 131.44 123.534 132.02C123.534 132.22 123.374 132.4 123.014 132.6C122.514 132.88 121.734 133.2 121.254 133.2C120.774 133.2 120.594 132.84 120.574 132.16L120.554 131.44C119.854 132.44 118.634 133.22 117.054 133.2C114.434 133.18 112.774 131.14 112.774 128.58C112.774 125.46 115.154 123.2 117.754 123.2C118.734 123.2 119.774 123.5 120.534 124.16V122C120.534 120.26 119.554 120.6 119.554 119.98C119.554 119.78 119.634 119.68 120.114 119.46C121.014 119.04 121.694 118.82 121.994 118.8C122.234 118.78 122.374 118.88 122.374 119.24ZM117.734 131.92C119.394 131.92 120.374 130.58 120.514 129.4V128.4C120.474 127.58 120.354 126.54 119.894 125.78C119.314 124.74 118.454 124.18 117.314 124.18C115.594 124.18 114.554 125.64 114.554 127.64C114.554 130.54 116.254 131.92 117.734 131.92ZM125.993 121.7C125.453 121.66 125.053 121.26 125.093 120.7C125.132 119.98 126.033 119.14 126.833 119.24C127.373 119.28 127.753 119.78 127.733 120.28C127.673 120.98 126.773 121.76 125.993 121.7ZM125.813 130.36V126.4C125.813 124.66 124.833 125 124.833 124.38C124.833 124.18 124.913 124.08 125.393 123.86C126.293 123.44 126.973 123.22 127.253 123.2C127.513 123.18 127.653 123.28 127.653 123.64L127.633 126.4V130.36C127.633 132.28 128.573 131.92 128.573 132.62C128.573 132.92 128.273 133 127.793 133H125.653C125.173 133 124.853 132.92 124.853 132.6C124.853 131.92 125.813 132.28 125.813 130.36ZM138.775 130.12C138.975 130.2 138.955 130.46 138.895 130.8C138.835 131.3 138.735 131.66 138.615 132.06C138.455 132.66 138.175 133 137.555 133H130.835C130.395 133 130.235 132.72 130.495 132.36L136.395 124.24H134.215C132.955 124.24 131.995 124.76 131.275 125.7C131.055 126.02 130.875 126.22 130.595 126.14C130.395 126.06 130.335 125.8 130.415 125.46C130.495 125.06 130.615 124.7 130.735 124.32C130.915 123.72 131.235 123.4 131.855 123.4H138.375C138.795 123.4 138.975 123.68 138.715 124.04L132.815 132.16H135.195C136.455 132.16 137.415 131.64 138.095 130.58C138.315 130.26 138.495 130.04 138.775 130.12ZM150.052 131.76C150.272 131.76 150.452 131.78 150.452 132C150.452 132.5 149.672 133.14 148.772 133.14C147.832 133.14 147.572 132.56 147.392 131.6C146.552 132.64 145.172 133.2 144.012 133.2C141.572 133.2 140.172 131.84 140.172 130.14C140.172 128.22 141.892 126.9 144.332 126.9C145.172 126.9 145.732 126.98 146.492 127.16C146.092 125.56 145.832 124.42 144.092 124.42C142.952 124.42 142.212 124.78 141.372 125.26C140.992 125.5 140.672 125.2 140.932 124.8C141.412 124.1 142.852 123.22 144.672 123.22C146.872 123.22 147.732 124.6 148.112 126.34L149.032 130.68C149.252 131.7 149.672 131.76 150.052 131.76ZM144.472 132.2C145.852 132.2 147.292 131.14 147.132 130.26C147.052 129.8 146.892 129.28 146.712 128.4C146.632 127.92 145.312 127.74 144.692 127.74C142.932 127.74 141.992 128.58 142.012 129.92C142.072 131.22 142.972 132.2 144.472 132.2ZM160.812 119.24L160.792 122L160.772 130.38C160.772 131.88 161.972 131.44 161.972 132.02C161.972 132.22 161.812 132.4 161.452 132.6C160.952 132.88 160.172 133.2 159.692 133.2C159.212 133.2 159.032 132.84 159.012 132.16L158.992 131.44C158.292 132.44 157.072 133.22 155.492 133.2C152.872 133.18 151.212 131.14 151.212 128.58C151.212 125.46 153.592 123.2 156.192 123.2C157.172 123.2 158.212 123.5 158.972 124.16V122C158.972 120.26 157.992 120.6 157.992 119.98C157.992 119.78 158.072 119.68 158.552 119.46C159.452 119.04 160.132 118.82 160.432 118.8C160.672 118.78 160.812 118.88 160.812 119.24ZM156.172 131.92C157.832 131.92 158.812 130.58 158.952 129.4V128.4C158.912 127.58 158.792 126.54 158.332 125.78C157.752 124.74 156.892 124.18 155.752 124.18C154.032 124.18 152.992 125.64 152.992 127.64C152.992 130.54 154.692 131.92 156.172 131.92ZM167.611 133.2C164.911 133.2 162.911 131.4 162.911 128.56C162.911 125.54 165.091 123.2 168.191 123.2C170.851 123.2 172.791 125.26 172.791 127.96C172.791 130.92 170.671 133.2 167.611 133.2ZM168.231 132.24C169.931 132.24 170.991 130.88 170.991 128.96C170.991 126.46 169.491 124.22 167.491 124.22C165.711 124.22 164.731 125.7 164.731 127.6C164.731 130.22 166.191 132.24 168.231 132.24ZM175.979 128.12C175.819 128.12 175.739 128 175.719 127.76C175.519 123.96 174.779 121.26 174.779 120.14C174.779 119.32 175.299 118.8 175.979 118.8C176.679 118.8 177.219 119.32 177.219 120.14C177.219 121.26 176.439 123.96 176.239 127.76C176.219 128 176.159 128.12 175.979 128.12ZM175.959 133.2C175.359 133.2 174.839 132.84 174.839 132.12C174.839 131.34 175.479 130.86 176.079 130.86C176.659 130.86 177.199 131.26 177.199 131.98C177.199 132.74 176.599 133.2 175.959 133.2Z" fill="#FFFFF3"/>
<mask id="path-3-inside-1_2_1910" fill="white">
<path d="M142.892 48C142.892 65.6731 128.565 80 110.892 80C93.2185 80 78.8916 65.6731 78.8916 48C78.8916 30.3269 93.2185 16 110.892 16C128.565 16 142.892 30.3269 142.892 48ZM91.4783 48C91.4783 58.7217 100.17 67.4133 110.892 67.4133C121.613 67.4133 130.305 58.7217 130.305 48C130.305 37.2783 121.613 28.5867 110.892 28.5867C100.17 28.5867 91.4783 37.2783 91.4783 48Z"/>
</mask>
<path d="M142.892 48C142.892 65.6731 128.565 80 110.892 80C93.2185 80 78.8916 65.6731 78.8916 48C78.8916 30.3269 93.2185 16 110.892 16C128.565 16 142.892 30.3269 142.892 48ZM91.4783 48C91.4783 58.7217 100.17 67.4133 110.892 67.4133C121.613 67.4133 130.305 58.7217 130.305 48C130.305 37.2783 121.613 28.5867 110.892 28.5867C100.17 28.5867 91.4783 37.2783 91.4783 48Z" stroke="#FFFFF3" stroke-width="4" mask="url(#path-3-inside-1_2_1910)"/>
<circle cx="110.892" cy="48" r="11" stroke="#FFFFF3" stroke-width="2"/>
<path d="M111.392 47.9999L147.525 32.0699" stroke="white" stroke-width="2"/>
</svg>
