<svg width="223" height="154" viewBox="0 0 223 154" fill="none" xmlns="http://www.w3.org/2000/svg">
<rect x="1.1084" y="1" width="220" height="152" rx="15" fill="#FC5B03" stroke="#1A1A1A" stroke-width="2"/>
<path d="M41.3675 103.38L40.8675 104.64C40.2475 106.26 41.3675 105.98 41.3675 106.58C41.3675 106.92 41.0475 107 40.6275 107H39.0075C38.5075 107 38.1675 106.92 38.1675 106.62C38.1675 105.96 39.1675 106.32 39.8275 104.64L43.6075 95.02C44.0475 93.92 42.9075 94.06 42.9075 93.42C42.9075 93.16 43.0275 93 43.4675 93H45.2875C45.5475 93 45.7275 93.12 45.8075 93.36L50.2475 104.62C50.9075 106.26 51.7275 105.96 51.7275 106.56C51.7275 106.9 51.4475 107 50.7475 107H48.4075C47.9275 107 47.6075 106.9 47.6075 106.62C47.6075 105.96 48.8475 106.18 48.2275 104.62L47.7275 103.36C47.5075 102.78 47.5075 102.78 44.6275 102.78C41.5875 102.78 41.5875 102.78 41.3675 103.38ZM44.6475 101.92C47.1675 101.92 47.1675 101.92 46.9675 101.4L44.5275 95.2L42.1075 101.46C41.9275 101.92 41.9275 101.92 44.6475 101.92ZM54.5584 95.7C54.0184 95.66 53.6184 95.26 53.6584 94.7C53.6984 93.98 54.5984 93.14 55.3984 93.24C55.9384 93.28 56.3184 93.78 56.2984 94.28C56.2384 94.98 55.3384 95.76 54.5584 95.7ZM54.1384 107.48V100.38C54.1384 98.64 53.1584 98.98 53.1584 98.36C53.1584 98.16 53.2584 98.06 53.7384 97.84C54.6184 97.42 55.2984 97.2 55.5984 97.18C55.8584 97.16 55.9984 97.26 55.9984 97.62L55.9784 100.38L55.9584 107.48V108.32C55.9584 110.24 55.0384 111.22 53.5784 111.22C51.8784 111.22 51.6384 110.26 52.4184 110.26C53.8984 110.26 54.1384 109.26 54.1384 107.48ZM67.9472 97.64L67.9272 100.4V104.38C67.9272 105.9 69.1072 105.44 69.1072 106.02C69.1072 106.22 68.9472 106.42 68.6072 106.6C68.0872 106.9 67.3072 107.2 66.8272 107.2C66.3472 107.2 66.1672 106.84 66.1472 106.16L66.1272 105.34C65.2472 106.58 63.8472 107.2 62.7472 107.2C60.7672 107.2 59.3672 106 59.3672 103.22V100.4C59.3672 98.64 58.3672 99 58.3672 98.38C58.3672 98.18 58.4672 98.08 58.9472 97.86C59.8272 97.44 60.5272 97.22 60.8072 97.2C61.0672 97.18 61.2072 97.28 61.2072 97.64L61.1872 100.4V103.02C61.1872 104.82 61.7872 106.04 63.3072 106C64.5872 105.98 66.1072 104.78 66.1072 102.82V100.4C66.1072 98.64 65.1072 99 65.1072 98.38C65.1072 98.18 65.2072 98.08 65.6872 97.86C66.5672 97.44 67.2472 97.22 67.5472 97.2C67.8072 97.18 67.9472 97.28 67.9472 97.64ZM79.5617 93.24L79.5417 96L79.5217 104.38C79.5217 105.88 80.7217 105.44 80.7217 106.02C80.7217 106.22 80.5617 106.4 80.2017 106.6C79.7017 106.88 78.9217 107.2 78.4417 107.2C77.9617 107.2 77.7817 106.84 77.7617 106.16L77.7417 105.44C77.0417 106.44 75.8217 107.22 74.2417 107.2C71.6217 107.18 69.9617 105.14 69.9617 102.58C69.9617 99.46 72.3417 97.2 74.9417 97.2C75.9217 97.2 76.9617 97.5 77.7217 98.16V96C77.7217 94.26 76.7417 94.6 76.7417 93.98C76.7417 93.78 76.8217 93.68 77.3017 93.46C78.2017 93.04 78.8817 92.82 79.1817 92.8C79.4217 92.78 79.5617 92.88 79.5617 93.24ZM74.9217 105.92C76.5817 105.92 77.5617 104.58 77.7017 103.4V102.4C77.6617 101.58 77.5417 100.54 77.0817 99.78C76.5017 98.74 75.6417 98.18 74.5017 98.18C72.7817 98.18 71.7417 99.64 71.7417 101.64C71.7417 104.54 73.4417 105.92 74.9217 105.92ZM91.38 105.76C91.6 105.76 91.78 105.78 91.78 106C91.78 106.5 91 107.14 90.1 107.14C89.16 107.14 88.9 106.56 88.72 105.6C87.88 106.64 86.5 107.2 85.34 107.2C82.9 107.2 81.5 105.84 81.5 104.14C81.5 102.22 83.22 100.9 85.66 100.9C86.5 100.9 87.06 100.98 87.82 101.16C87.42 99.56 87.16 98.42 85.42 98.42C84.28 98.42 83.54 98.78 82.7 99.26C82.32 99.5 82 99.2 82.26 98.8C82.74 98.1 84.18 97.22 86 97.22C88.2 97.22 89.06 98.6 89.44 100.34L90.36 104.68C90.58 105.7 91 105.76 91.38 105.76ZM85.8 106.2C87.18 106.2 88.62 105.14 88.46 104.26C88.38 103.8 88.22 103.28 88.04 102.4C87.96 101.92 86.64 101.74 86.02 101.74C84.26 101.74 83.32 102.58 83.34 103.92C83.4 105.22 84.3 106.2 85.8 106.2ZM103.06 97.2C105.56 97.2 107.12 99.22 107.12 101.96C107.12 104.98 105.26 107.18 102.78 107.2C101.6 107.22 100.38 106.78 99.6205 106.14L99.6405 108.36C99.6405 110.28 100.56 109.92 100.56 110.62C100.56 110.92 100.28 111 99.7805 111H97.6405C97.1805 111 96.8605 110.92 96.8605 110.62C96.8605 109.92 97.8205 110.28 97.8205 108.36L97.7805 100.26C97.7805 99.6 97.7005 99.1 97.1805 98.78C96.9605 98.64 96.8205 98.52 96.8205 98.32C96.8205 98.08 96.9205 97.96 97.4005 97.74C98.0805 97.44 98.7605 97.22 99.0405 97.2C99.3005 97.18 99.4405 97.28 99.4405 97.64L99.4205 99.26C100.06 98.18 101.26 97.2 103.06 97.2ZM102.78 106.3C104.52 106.28 105.32 104.68 105.32 102.76C105.32 99.88 103.92 98.46 102.4 98.46C100.56 98.46 99.6205 100.2 99.6205 101.66V103.06C99.6205 105.14 101.38 106.32 102.78 106.3ZM118.021 105.76C118.241 105.76 118.421 105.78 118.421 106C118.421 106.5 117.641 107.14 116.741 107.14C115.801 107.14 115.541 106.56 115.361 105.6C114.521 106.64 113.141 107.2 111.981 107.2C109.541 107.2 108.141 105.84 108.141 104.14C108.141 102.22 109.861 100.9 112.301 100.9C113.141 100.9 113.701 100.98 114.461 101.16C114.061 99.56 113.801 98.42 112.061 98.42C110.921 98.42 110.181 98.78 109.341 99.26C108.961 99.5 108.641 99.2 108.901 98.8C109.381 98.1 110.821 97.22 112.641 97.22C114.841 97.22 115.701 98.6 116.081 100.34L117.001 104.68C117.221 105.7 117.641 105.76 118.021 105.76ZM112.441 106.2C113.821 106.2 115.261 105.14 115.101 104.26C115.021 103.8 114.861 103.28 114.681 102.4C114.601 101.92 113.281 101.74 112.661 101.74C110.901 101.74 109.961 102.58 109.981 103.92C110.041 105.22 110.941 106.2 112.441 106.2ZM125.117 97.2C126.197 97.2 126.677 97.88 126.677 98.58C126.677 99.1 126.337 99.58 125.877 99.6C125.037 99.62 125.077 98.74 124.157 98.74C123.277 98.74 122.437 99.98 122.437 101.74V104.36C122.437 106.28 123.357 105.92 123.357 106.62C123.357 106.92 123.077 107 122.577 107H120.437C119.977 107 119.637 106.92 119.637 106.6C119.637 105.92 120.617 106.28 120.617 104.36V100.34C120.617 99.66 120.537 99.16 119.997 98.84C119.777 98.7 119.637 98.58 119.637 98.38C119.637 98.16 119.737 98.04 120.217 97.82C120.897 97.5 121.577 97.28 121.857 97.26C122.117 97.26 122.257 97.36 122.257 97.7L122.237 99.32C122.857 98.14 123.937 97.2 125.117 97.2ZM137.103 105.76C137.323 105.76 137.503 105.78 137.503 106C137.503 106.5 136.723 107.14 135.823 107.14C134.883 107.14 134.623 106.56 134.443 105.6C133.603 106.64 132.223 107.2 131.063 107.2C128.623 107.2 127.223 105.84 127.223 104.14C127.223 102.22 128.943 100.9 131.383 100.9C132.223 100.9 132.783 100.98 133.543 101.16C133.143 99.56 132.883 98.42 131.143 98.42C130.003 98.42 129.263 98.78 128.423 99.26C128.043 99.5 127.723 99.2 127.983 98.8C128.463 98.1 129.903 97.22 131.723 97.22C133.923 97.22 134.783 98.6 135.163 100.34L136.083 104.68C136.303 105.7 136.723 105.76 137.103 105.76ZM131.523 106.2C132.903 106.2 134.343 105.14 134.183 104.26C134.103 103.8 133.943 103.28 133.763 102.4C133.683 101.92 132.363 101.74 131.743 101.74C129.983 101.74 129.043 102.58 129.063 103.92C129.123 105.22 130.023 106.2 131.523 106.2ZM152.283 97.64L152.263 100.4V104.38C152.263 105.9 153.443 105.44 153.443 106.02C153.443 106.22 153.283 106.42 152.943 106.6C152.423 106.9 151.643 107.2 151.163 107.2C150.683 107.2 150.503 106.84 150.483 106.16L150.463 105.34C149.583 106.58 148.183 107.2 147.083 107.2C145.103 107.2 143.703 106 143.703 103.22V100.4C143.703 98.64 142.703 99 142.703 98.38C142.703 98.18 142.803 98.08 143.283 97.86C144.163 97.44 144.863 97.22 145.143 97.2C145.403 97.18 145.543 97.28 145.543 97.64L145.523 100.4V103.02C145.523 104.82 146.123 106.04 147.643 106C148.923 105.98 150.443 104.78 150.443 102.82V100.4C150.443 98.64 149.443 99 149.443 98.38C149.443 98.18 149.543 98.08 150.023 97.86C150.903 97.44 151.583 97.22 151.883 97.2C152.143 97.18 152.283 97.28 152.283 97.64ZM170.958 101.4L171.578 104.92C171.798 106.16 172.638 106.02 172.638 106.62C172.638 106.92 172.338 107 171.858 107H169.718C169.258 107 168.938 106.92 168.938 106.6C168.938 106.02 169.978 106.16 169.758 104.86L169.178 101.54C168.898 99.96 168.658 98.4 166.858 98.42C165.618 98.44 164.258 99.52 164.178 101.84L164.198 104.36C164.198 106.28 165.138 105.92 165.138 106.62C165.138 106.92 164.838 107 164.358 107H162.218C161.738 107 161.418 106.92 161.418 106.6C161.418 105.92 162.378 106.28 162.378 104.36V101.58C162.378 99.78 161.918 98.34 160.178 98.38C158.778 98.4 157.398 99.6 157.398 102.04V104.36C157.398 106.28 158.318 105.92 158.318 106.62C158.318 106.92 158.038 107 157.538 107H155.398C154.938 107 154.598 106.92 154.598 106.6C154.598 105.92 155.578 106.28 155.578 104.36V100.34C155.578 99.66 155.498 99.16 154.958 98.84C154.738 98.7 154.598 98.58 154.598 98.38C154.598 98.16 154.698 98.04 155.178 97.82C155.858 97.5 156.538 97.28 156.818 97.26C157.078 97.26 157.218 97.36 157.218 97.7L157.198 99.4C157.998 97.92 159.318 97.2 160.738 97.2C162.358 97.2 163.478 97.96 163.938 99.48C164.718 97.96 166.058 97.2 167.498 97.2C169.498 97.2 170.418 98.32 170.958 101.4ZM183.216 105.76C183.436 105.76 183.616 105.78 183.616 106C183.616 106.5 182.836 107.14 181.936 107.14C180.996 107.14 180.736 106.56 180.556 105.6C179.716 106.64 178.336 107.2 177.176 107.2C174.736 107.2 173.336 105.84 173.336 104.14C173.336 102.22 175.056 100.9 177.496 100.9C178.336 100.9 178.896 100.98 179.656 101.16C179.256 99.56 178.996 98.42 177.256 98.42C176.116 98.42 175.376 98.78 174.536 99.26C174.156 99.5 173.836 99.2 174.096 98.8C174.576 98.1 176.016 97.22 177.836 97.22C180.036 97.22 180.896 98.6 181.276 100.34L182.196 104.68C182.416 105.7 182.836 105.76 183.216 105.76ZM177.636 106.2C179.016 106.2 180.456 105.14 180.296 104.26C180.216 103.8 180.056 103.28 179.876 102.4C179.796 101.92 178.476 101.74 177.856 101.74C176.096 101.74 175.156 102.58 175.176 103.92C175.236 105.22 176.136 106.2 177.636 106.2ZM34.0577 123.4H35.1377C35.6177 123.4 35.9377 123.48 35.9377 123.78C35.9377 124.3 35.1977 124.2 34.5777 125.78L32.0177 132.46C31.8977 132.78 31.8177 132.92 31.1177 133.08C30.3577 133.26 30.1577 133.14 30.0177 132.78L27.2577 125.78C26.6377 124.2 25.9377 124.3 25.9377 123.78C25.9377 123.48 26.2177 123.4 26.7177 123.4H28.9577C29.4177 123.4 29.7377 123.48 29.7377 123.78C29.7377 124.3 28.5577 124.2 29.1777 125.78L31.4377 131.62L33.6777 125.78C34.2977 124.2 33.2577 124.3 33.2577 123.78C33.2577 123.48 33.5577 123.4 34.0577 123.4ZM38.346 121.7C37.806 121.66 37.406 121.26 37.446 120.7C37.486 119.98 38.386 119.14 39.186 119.24C39.726 119.28 40.106 119.78 40.086 120.28C40.026 120.98 39.126 121.76 38.346 121.7ZM38.166 130.36V126.4C38.166 124.66 37.186 125 37.186 124.38C37.186 124.18 37.266 124.08 37.746 123.86C38.646 123.44 39.326 123.22 39.606 123.2C39.866 123.18 40.006 123.28 40.006 123.64L39.986 126.4V130.36C39.986 132.28 40.926 131.92 40.926 132.62C40.926 132.92 40.626 133 40.146 133H38.006C37.526 133 37.206 132.92 37.206 132.6C37.206 131.92 38.166 132.28 38.166 130.36ZM44.0087 133.2C43.7287 133.2 43.6887 133.08 43.4487 132.52C43.1487 131.72 42.9487 131.2 42.7087 130.4C42.6487 130.12 42.7087 129.94 42.9287 129.86C43.1287 129.78 43.3487 129.94 43.6087 130.22C45.1687 131.9 46.2487 132.28 47.3287 132.28C48.2287 132.28 49.0087 131.84 49.0087 130.96C49.0087 130.1 47.8887 129.56 46.2687 128.9C44.5287 128.22 42.9087 127.52 42.9087 125.88C42.9087 124.06 44.5687 123.2 46.0887 123.2C47.1487 123.2 47.7887 123.42 48.3087 123.44C48.6287 123.46 48.7087 123.2 48.9687 123.2C49.2287 123.2 49.3487 123.46 49.5887 123.86C49.8887 124.42 50.0487 124.78 50.2087 125.14C50.3287 125.46 50.3287 125.72 50.1287 125.84C49.8087 126.02 49.5287 125.66 48.8487 125.14C48.0687 124.56 47.0887 124.08 46.1487 124.08C45.0687 124.08 44.4687 124.62 44.4687 125.32C44.4687 126.2 45.4087 126.64 47.2487 127.38C49.1687 128.14 50.7287 128.9 50.7287 130.4C50.7287 131.88 49.2887 133.2 47.0887 133.2C45.7687 133.2 45.1687 132.82 44.7687 132.82C44.4487 132.82 44.3687 133.2 44.0087 133.2ZM54.1409 121.92C54.1409 122.4 53.5609 122.12 53.5609 121.38C53.5609 120.68 54.0609 120.18 54.9409 120.18C56.2209 120.18 57.5209 121.02 58.2009 121.02C58.6809 121.02 58.9009 120.82 58.9009 120.44C58.9009 119.94 59.4809 120.22 59.4809 120.96C59.4809 121.66 58.9609 122.18 58.0809 122.18C57.1409 122.18 55.8409 121.34 54.8409 121.34C54.3809 121.34 54.1409 121.52 54.1409 121.92ZM61.7609 131.76C61.9809 131.76 62.1609 131.78 62.1609 132C62.1609 132.5 61.3809 133.14 60.4809 133.14C59.5409 133.14 59.2809 132.56 59.1009 131.6C58.2609 132.64 56.8809 133.2 55.7209 133.2C53.2809 133.2 51.8809 131.84 51.8809 130.14C51.8809 128.22 53.6009 126.9 56.0409 126.9C56.8809 126.9 57.4409 126.98 58.2009 127.16C57.8009 125.56 57.5409 124.42 55.8009 124.42C54.6609 124.42 53.9209 124.78 53.0809 125.26C52.7009 125.5 52.3809 125.2 52.6409 124.8C53.1209 124.1 54.5609 123.22 56.3809 123.22C58.5809 123.22 59.4409 124.6 59.8209 126.34L60.7409 130.68C60.9609 131.7 61.3809 131.76 61.7609 131.76ZM56.1809 132.2C57.5609 132.2 59.0009 131.14 58.8409 130.26C58.7609 129.8 58.6009 129.28 58.4209 128.4C58.3409 127.92 57.0209 127.74 56.4009 127.74C54.6409 127.74 53.7009 128.58 53.7209 129.92C53.7809 131.22 54.6809 132.2 56.1809 132.2ZM67.6207 133.2C64.9207 133.2 62.9207 131.4 62.9207 128.56C62.9207 125.54 65.1007 123.2 68.2007 123.2C70.8607 123.2 72.8007 125.26 72.8007 127.96C72.8007 130.92 70.6807 133.2 67.6207 133.2ZM68.2407 132.24C69.9407 132.24 71.0007 130.88 71.0007 128.96C71.0007 126.46 69.5007 124.22 67.5007 124.22C65.7207 124.22 64.7407 125.7 64.7407 127.6C64.7407 130.22 66.2007 132.24 68.2407 132.24ZM87.8527 119.24L87.8327 122L87.8127 130.38C87.8127 131.88 89.0127 131.44 89.0127 132.02C89.0127 132.22 88.8527 132.4 88.4927 132.6C87.9927 132.88 87.2127 133.2 86.7327 133.2C86.2527 133.2 86.0727 132.84 86.0527 132.16L86.0327 131.44C85.3327 132.44 84.1127 133.22 82.5327 133.2C79.9127 133.18 78.2527 131.14 78.2527 128.58C78.2527 125.46 80.6327 123.2 83.2327 123.2C84.2127 123.2 85.2527 123.5 86.0127 124.16V122C86.0127 120.26 85.0327 120.6 85.0327 119.98C85.0327 119.78 85.1127 119.68 85.5927 119.46C86.4927 119.04 87.1727 118.82 87.4727 118.8C87.7127 118.78 87.8527 118.88 87.8527 119.24ZM83.2127 131.92C84.8727 131.92 85.8527 130.58 85.9927 129.4V128.4C85.9527 127.58 85.8327 126.54 85.3727 125.78C84.7927 124.74 83.9327 124.18 82.7927 124.18C81.0727 124.18 80.0327 125.64 80.0327 127.64C80.0327 130.54 81.7327 131.92 83.2127 131.92ZM98.512 130.42C98.852 130.06 99.292 130.28 99.092 130.78C98.672 131.76 97.152 133.2 94.632 133.2C91.832 133.2 89.952 131.18 89.952 128.54C89.952 125.52 92.072 123.2 95.032 123.2C97.212 123.2 98.672 124.46 99.032 126.18C99.112 126.54 99.032 126.82 98.572 127C96.412 127.84 94.292 128.56 91.972 129.32C92.352 130.48 93.492 131.84 95.352 131.84C96.692 131.84 97.792 131.18 98.512 130.42ZM94.412 124.14C92.612 124.16 91.712 125.8 91.712 127.26C91.712 127.76 91.732 128.14 91.832 128.48C93.472 127.94 95.032 127.42 96.492 126.86C96.812 126.74 96.932 126.54 96.872 126.18C96.672 124.94 95.512 124.1 94.412 124.14ZM101.88 133.2C101.6 133.2 101.56 133.08 101.32 132.52C101.02 131.72 100.82 131.2 100.58 130.4C100.52 130.12 100.58 129.94 100.8 129.86C101 129.78 101.22 129.94 101.48 130.22C103.04 131.9 104.12 132.28 105.2 132.28C106.1 132.28 106.88 131.84 106.88 130.96C106.88 130.1 105.76 129.56 104.14 128.9C102.4 128.22 100.78 127.52 100.78 125.88C100.78 124.06 102.44 123.2 103.96 123.2C105.02 123.2 105.66 123.42 106.18 123.44C106.5 123.46 106.58 123.2 106.84 123.2C107.1 123.2 107.22 123.46 107.46 123.86C107.76 124.42 107.92 124.78 108.08 125.14C108.2 125.46 108.2 125.72 108 125.84C107.68 126.02 107.4 125.66 106.72 125.14C105.94 124.56 104.96 124.08 104.02 124.08C102.94 124.08 102.34 124.62 102.34 125.32C102.34 126.2 103.28 126.64 105.12 127.38C107.04 128.14 108.6 128.9 108.6 130.4C108.6 131.88 107.16 133.2 104.96 133.2C103.64 133.2 103.04 132.82 102.64 132.82C102.32 132.82 102.24 133.2 101.88 133.2ZM118.492 130.42C118.832 130.06 119.272 130.28 119.072 130.78C118.652 131.76 117.132 133.2 114.612 133.2C111.812 133.2 109.932 131.18 109.932 128.54C109.932 125.52 112.052 123.2 115.012 123.2C117.192 123.2 118.652 124.46 119.012 126.18C119.092 126.54 119.012 126.82 118.552 127C116.392 127.84 114.272 128.56 111.952 129.32C112.332 130.48 113.472 131.84 115.332 131.84C116.672 131.84 117.772 131.18 118.492 130.42ZM114.392 124.14C112.592 124.16 111.692 125.8 111.692 127.26C111.692 127.76 111.712 128.14 111.812 128.48C113.452 127.94 115.012 127.42 116.472 126.86C116.792 126.74 116.912 126.54 116.852 126.18C116.652 124.94 115.492 124.1 114.392 124.14ZM130.42 127.4L131.04 130.92C131.28 132.16 132.1 132.02 132.1 132.62C132.1 132.92 131.82 133 131.32 133H129.2C128.72 133 128.4 132.92 128.4 132.6C128.4 132.02 129.44 132.16 129.22 130.86L128.64 127.54C128.38 125.96 128.04 124.4 126.22 124.42C124.92 124.44 123.54 125.6 123.54 128.04V130.36C123.54 132.28 124.46 131.92 124.46 132.62C124.46 132.92 124.18 133 123.68 133H121.54C121.08 133 120.74 132.92 120.74 132.6C120.74 131.92 121.72 132.28 121.72 130.36V126.34C121.72 125.66 121.64 125.16 121.1 124.84C120.88 124.7 120.74 124.58 120.74 124.38C120.74 124.16 120.84 124.04 121.32 123.82C122 123.5 122.68 123.28 122.96 123.26C123.22 123.26 123.36 123.36 123.36 123.7L123.34 125.4C124.14 123.92 125.54 123.2 126.86 123.2C128.86 123.2 129.9 124.32 130.42 127.4ZM139.8 123.4H140.88C141.36 123.4 141.68 123.48 141.68 123.78C141.68 124.3 140.94 124.2 140.32 125.78L137.76 132.46C137.64 132.78 137.56 132.92 136.86 133.08C136.1 133.26 135.9 133.14 135.76 132.78L133 125.78C132.38 124.2 131.68 124.3 131.68 123.78C131.68 123.48 131.96 123.4 132.46 123.4H134.7C135.16 123.4 135.48 123.48 135.48 123.78C135.48 124.3 134.3 124.2 134.92 125.78L137.18 131.62L139.42 125.78C140.04 124.2 139 124.3 139 123.78C139 123.48 139.3 123.4 139.8 123.4ZM146.488 133.2C143.788 133.2 141.788 131.4 141.788 128.56C141.788 125.54 143.968 123.2 147.068 123.2C149.728 123.2 151.668 125.26 151.668 127.96C151.668 130.92 149.548 133.2 146.488 133.2ZM147.108 132.24C148.808 132.24 149.868 130.88 149.868 128.96C149.868 126.46 148.368 124.22 146.368 124.22C144.588 124.22 143.608 125.7 143.608 127.6C143.608 130.22 145.068 132.24 147.108 132.24ZM154.141 130.36L154.121 122C154.121 120.24 153.141 120.6 153.141 119.98C153.141 119.78 153.241 119.68 153.721 119.46C154.601 119.04 155.281 118.82 155.581 118.8C155.841 118.78 155.981 118.88 155.981 119.24L155.961 122V130.36C155.961 132.28 156.881 131.92 156.881 132.62C156.881 132.92 156.601 133 156.101 133H153.961C153.501 133 153.161 132.92 153.161 132.6C153.161 131.92 154.141 132.28 154.141 130.36ZM165.776 123.4H166.856C167.336 123.4 167.656 123.48 167.656 123.78C167.656 124.3 166.916 124.2 166.296 125.78L163.736 132.46C163.616 132.78 163.536 132.92 162.836 133.08C162.076 133.26 161.876 133.14 161.736 132.78L158.976 125.78C158.356 124.2 157.656 124.3 157.656 123.78C157.656 123.48 157.936 123.4 158.436 123.4H160.676C161.136 123.4 161.456 123.48 161.456 123.78C161.456 124.3 160.276 124.2 160.896 125.78L163.156 131.62L165.396 125.78C166.016 124.2 164.976 124.3 164.976 123.78C164.976 123.48 165.276 123.4 165.776 123.4ZM170.065 121.7C169.525 121.66 169.125 121.26 169.165 120.7C169.205 119.98 170.105 119.14 170.905 119.24C171.445 119.28 171.825 119.78 171.805 120.28C171.745 120.98 170.845 121.76 170.065 121.7ZM169.885 130.36V126.4C169.885 124.66 168.905 125 168.905 124.38C168.905 124.18 168.985 124.08 169.465 123.86C170.365 123.44 171.045 123.22 171.325 123.2C171.585 123.18 171.725 123.28 171.725 123.64L171.705 126.4V130.36C171.705 132.28 172.645 131.92 172.645 132.62C172.645 132.92 172.345 133 171.865 133H169.725C169.245 133 168.925 132.92 168.925 132.6C168.925 131.92 169.885 132.28 169.885 130.36ZM183.907 119.24L183.887 122L183.867 130.38C183.867 131.88 185.067 131.44 185.067 132.02C185.067 132.22 184.907 132.4 184.547 132.6C184.047 132.88 183.267 133.2 182.787 133.2C182.307 133.2 182.127 132.84 182.107 132.16L182.087 131.44C181.387 132.44 180.167 133.22 178.587 133.2C175.967 133.18 174.307 131.14 174.307 128.58C174.307 125.46 176.687 123.2 179.287 123.2C180.267 123.2 181.307 123.5 182.067 124.16V122C182.067 120.26 181.087 120.6 181.087 119.98C181.087 119.78 181.167 119.68 181.647 119.46C182.547 119.04 183.227 118.82 183.527 118.8C183.767 118.78 183.907 118.88 183.907 119.24ZM179.267 131.92C180.927 131.92 181.907 130.58 182.047 129.4V128.4C182.007 127.58 181.887 126.54 181.427 125.78C180.847 124.74 179.987 124.18 178.847 124.18C177.127 124.18 176.087 125.64 176.087 127.64C176.087 130.54 177.787 131.92 179.267 131.92ZM195.726 131.76C195.946 131.76 196.126 131.78 196.126 132C196.126 132.5 195.346 133.14 194.446 133.14C193.506 133.14 193.246 132.56 193.066 131.6C192.226 132.64 190.846 133.2 189.686 133.2C187.246 133.2 185.846 131.84 185.846 130.14C185.846 128.22 187.566 126.9 190.006 126.9C190.846 126.9 191.406 126.98 192.166 127.16C191.766 125.56 191.506 124.42 189.766 124.42C188.626 124.42 187.886 124.78 187.046 125.26C186.666 125.5 186.346 125.2 186.606 124.8C187.086 124.1 188.526 123.22 190.346 123.22C192.546 123.22 193.406 124.6 193.786 126.34L194.706 130.68C194.926 131.7 195.346 131.76 195.726 131.76ZM190.146 132.2C191.526 132.2 192.966 131.14 192.806 130.26C192.726 129.8 192.566 129.28 192.386 128.4C192.306 127.92 190.986 127.74 190.366 127.74C188.606 127.74 187.666 128.58 187.686 129.92C187.746 131.22 188.646 132.2 190.146 132.2Z" fill="#FFFFF3"/>
<path d="M89.4585 68.3954C97.1084 68.3954 103.31 62.1985 103.31 54.5541C103.31 46.9098 97.1084 40.7129 89.4585 40.7129C81.8086 40.7129 75.6072 46.9098 75.6072 54.5541C75.6072 62.1985 81.8086 68.3954 89.4585 68.3954Z" fill="white"/>
<path d="M89.4585 69.1105C81.4273 69.1105 74.8916 62.5817 74.8916 54.5542C74.8916 46.5267 81.4252 40 89.4585 40C97.4918 40 104.025 46.5288 104.025 54.5542C104.025 62.5796 97.4918 69.1105 89.4585 69.1105ZM89.4585 41.4301C82.2156 41.4301 76.3227 47.3187 76.3227 54.5542C76.3227 61.7897 82.2156 67.6804 89.4585 67.6804C96.7014 67.6804 102.594 61.7918 102.594 54.5542C102.594 47.3166 96.7014 41.4301 89.4585 41.4301Z" fill="#1A1A1A"/>
<path d="M75.6093 54.554C75.6093 62.1969 81.81 68.3953 89.4606 68.3953V40.7148C81.8121 40.7148 75.6093 46.9111 75.6093 54.5561V54.554Z" fill="#1A1A1A"/>
<path d="M132.257 68.3954C139.906 68.3954 146.108 62.1985 146.108 54.5541C146.108 46.9098 139.906 40.7129 132.257 40.7129C124.607 40.7129 118.405 46.9098 118.405 54.5541C118.405 62.1985 124.607 68.3954 132.257 68.3954Z" fill="white"/>
<path d="M132.256 69.1105C124.225 69.1105 117.69 62.5817 117.69 54.5542C117.69 46.5267 124.223 40 132.256 40C140.29 40 146.821 46.5288 146.821 54.5542C146.821 62.5796 140.288 69.1105 132.256 69.1105ZM132.256 41.4301C125.014 41.4301 119.121 47.3187 119.121 54.5542C119.121 61.7897 125.014 67.6804 132.256 67.6804C139.499 67.6804 145.392 61.7918 145.392 54.5542C145.392 47.3166 139.499 41.4301 132.256 41.4301Z" fill="#1A1A1A"/>
<path d="M118.405 54.554C118.405 62.1969 124.606 68.3953 132.257 68.3953V40.7148C124.608 40.7148 118.405 46.9111 118.405 54.5561V54.554Z" fill="#1A1A1A"/>
</svg>
