<svg width="223" height="154" viewBox="0 0 223 154" fill="none" xmlns="http://www.w3.org/2000/svg">
<rect width="222" height="154" transform="translate(0.108398)" fill="#9DC8FF"/>
<rect x="1" y="1" width="220" height="152" rx="15" stroke="#1A1A1A" stroke-width="2"/>
<path d="M109.653 36.2031L109.403 37.0078L110.153 37.3906L135.285 50.2236L102.639 76.7236L111.531 55.3848L111.878 54.5537L111.087 54.1221L84.9941 39.8896L115.155 18.5244L109.653 36.2031Z" fill="#FD86CD" stroke="#1A1A1A" stroke-width="2"/>
<path d="M27.6563 106.38V94.86C27.6563 94.34 28.0163 94 28.5563 94H28.9563C29.5963 94 29.7563 94.24 30.0163 94.84L33.5163 102.16L37.0163 94.84C37.2563 94.22 37.4563 94 38.0363 94H38.4163C38.9963 94 39.3363 94.34 39.3363 94.86V106.38C39.3363 106.82 39.1563 107.06 38.7163 107.06H38.5363C38.1163 107.06 37.9163 106.82 37.9163 106.38V102.86L37.9363 95.82L34.5163 102.98C34.3363 103.42 34.1363 103.7 33.4963 103.7C32.8163 103.7 32.6563 103.42 32.4563 102.98L29.0563 95.84L29.0763 102.82V106.38C29.0763 106.82 28.8963 107.06 28.4563 107.06H28.2363C27.8163 107.06 27.6563 106.82 27.6563 106.38ZM41.5052 104.54C41.5052 102.38 43.5452 101.46 48.0452 101.4H48.2652V101C48.2652 99.38 47.3252 98.48 45.6852 98.48C44.1652 98.48 43.2452 99.22 42.7652 100.18C42.7252 100.2 41.8852 100.16 41.8852 99.44C41.8852 99.16 42.0852 98.74 42.4652 98.38C43.0852 97.78 44.1852 97.24 45.7652 97.24C48.3052 97.24 49.6852 98.66 49.6852 101.02V106.92C49.6852 106.98 49.4252 107.08 49.1652 107.08C48.7452 107.08 48.4052 106.88 48.3252 106.16C48.3052 105.88 48.2852 105.58 48.2852 105.28C47.6452 106.44 46.3452 107.2 44.7452 107.2C42.7452 107.2 41.5052 106.16 41.5052 104.54ZM48.2652 103.26V102.34L47.9252 102.36C44.4452 102.44 42.9452 103.04 42.9452 104.5C42.9452 105.5 43.7452 106.12 45.0252 106.12C46.8652 106.12 48.2652 104.88 48.2652 103.26ZM52.0838 94.46C52.0838 93.86 52.4238 93.54 53.0038 93.54C53.5838 93.54 53.9238 93.86 53.9238 94.46C53.9238 95.04 53.5638 95.36 52.9838 95.36C52.4238 95.36 52.0838 95.04 52.0838 94.46ZM52.2638 106.38V98.08C52.2638 97.56 52.5238 97.38 52.9038 97.38H53.0638C53.4438 97.38 53.7038 97.54 53.7038 98.08V106.38C53.7038 106.9 53.4438 107.06 53.0638 107.06H52.9038C52.5238 107.06 52.2638 106.9 52.2638 106.38ZM56.223 106.22C55.823 105.88 55.643 105.56 55.643 105.26C55.643 104.76 56.203 104.54 56.263 104.56C56.863 105.42 57.943 106.06 59.503 106.06C61.003 106.06 61.883 105.42 61.883 104.48C61.883 103.36 60.843 103.14 59.223 102.78C57.763 102.48 55.923 102.06 55.923 100.12C55.923 98.42 57.343 97.24 59.543 97.24C61.083 97.24 62.123 97.74 62.663 98.32C62.883 98.54 63.023 98.84 63.023 99.08C63.023 99.58 62.443 99.84 62.403 99.8C61.883 99 60.843 98.38 59.563 98.38C58.103 98.38 57.263 99.04 57.263 99.96C57.263 101 58.263 101.24 59.843 101.6C61.403 101.94 63.283 102.36 63.283 104.32C63.283 106.06 61.823 107.22 59.483 107.22C57.923 107.22 56.843 106.76 56.223 106.22ZM72.4872 107.22C69.9672 107.22 68.0872 105.22 68.0872 102.22C68.0872 99.26 69.9672 97.24 72.5272 97.24C74.2272 97.24 75.4272 98.1 75.9672 99.08V93.52C75.9672 93.46 76.1872 93.36 76.4672 93.36C76.9472 93.36 77.4072 93.6 77.4072 94.64V106.38C77.4072 106.9 77.1472 107.06 76.7672 107.06H76.6272C76.2672 107.06 76.0072 106.9 76.0072 106.42C75.9872 106.02 75.9872 105.62 75.9872 105.18C75.3072 106.4 74.1672 107.22 72.4872 107.22ZM75.9672 102.88V100.74C75.4472 99.36 74.3872 98.46 72.7672 98.46C70.8472 98.46 69.5272 99.96 69.5272 102.22C69.5272 104.44 70.8672 106 72.7472 106C74.5272 106 75.9672 104.66 75.9672 102.88ZM79.9158 94.46C79.9158 93.86 80.2558 93.54 80.8358 93.54C81.4158 93.54 81.7558 93.86 81.7558 94.46C81.7558 95.04 81.3958 95.36 80.8158 95.36C80.2558 95.36 79.9158 95.04 79.9158 94.46ZM80.0958 106.38V98.08C80.0958 97.56 80.3558 97.38 80.7358 97.38H80.8958C81.2758 97.38 81.5358 97.54 81.5358 98.08V106.38C81.5358 106.9 81.2758 107.06 80.8958 107.06H80.7358C80.3558 107.06 80.0958 106.9 80.0958 106.38ZM84.055 106.22C83.655 105.88 83.475 105.56 83.475 105.26C83.475 104.76 84.035 104.54 84.095 104.56C84.695 105.42 85.775 106.06 87.335 106.06C88.835 106.06 89.715 105.42 89.715 104.48C89.715 103.36 88.675 103.14 87.055 102.78C85.595 102.48 83.755 102.06 83.755 100.12C83.755 98.42 85.175 97.24 87.375 97.24C88.915 97.24 89.955 97.74 90.495 98.32C90.715 98.54 90.855 98.84 90.855 99.08C90.855 99.58 90.275 99.84 90.235 99.8C89.715 99 88.675 98.38 87.395 98.38C85.935 98.38 85.095 99.04 85.095 99.96C85.095 101 86.095 101.24 87.675 101.6C89.235 101.94 91.115 102.36 91.115 104.32C91.115 106.06 89.655 107.22 87.315 107.22C85.755 107.22 84.675 106.76 84.055 106.22ZM98.0213 97.24C100.521 97.24 102.421 99.22 102.421 102.2C102.421 105.18 100.561 107.22 97.9813 107.22C96.2413 107.22 95.0413 106.26 94.5413 105.22V110.18C94.5413 110.68 94.2813 110.86 93.9213 110.86H93.7613C93.3813 110.86 93.1213 110.68 93.1213 110.18V97.54C93.1213 97.5 93.3413 97.38 93.6213 97.38C94.0413 97.38 94.4413 97.62 94.5013 98.46C94.5013 98.7 94.5213 99.02 94.5213 99.28C95.2213 98.04 96.3613 97.24 98.0213 97.24ZM97.7213 106C99.6813 106 101.001 104.48 101.001 102.22C101.001 100 99.6213 98.46 97.7613 98.46C96.1613 98.46 95.0613 99.38 94.5213 100.76V102.88C94.5213 104.64 95.9613 106 97.7213 106ZM103.79 102.22C103.79 99.32 105.79 97.24 108.65 97.24C111.47 97.24 113.47 99.34 113.47 102.26C113.47 105.14 111.47 107.22 108.63 107.22C105.77 107.22 103.79 105.12 103.79 102.22ZM112.07 102.26C112.07 100.06 110.65 98.46 108.65 98.46C106.65 98.46 105.19 100.02 105.19 102.22C105.19 104.42 106.65 106 108.65 106C110.63 106 112.07 104.44 112.07 102.26ZM115.305 106.22C114.905 105.88 114.725 105.56 114.725 105.26C114.725 104.76 115.285 104.54 115.345 104.56C115.945 105.42 117.025 106.06 118.585 106.06C120.085 106.06 120.965 105.42 120.965 104.48C120.965 103.36 119.925 103.14 118.305 102.78C116.845 102.48 115.005 102.06 115.005 100.12C115.005 98.42 116.425 97.24 118.625 97.24C120.165 97.24 121.205 97.74 121.745 98.32C121.965 98.54 122.105 98.84 122.105 99.08C122.105 99.58 121.525 99.84 121.485 99.8C120.965 99 119.925 98.38 118.645 98.38C117.185 98.38 116.345 99.04 116.345 99.96C116.345 101 117.345 101.24 118.925 101.6C120.485 101.94 122.365 102.36 122.365 104.32C122.365 106.06 120.905 107.22 118.565 107.22C117.005 107.22 115.925 106.76 115.305 106.22ZM124.271 94.46C124.271 93.86 124.611 93.54 125.191 93.54C125.771 93.54 126.111 93.86 126.111 94.46C126.111 95.04 125.751 95.36 125.171 95.36C124.611 95.36 124.271 95.04 124.271 94.46ZM124.451 106.38V98.08C124.451 97.56 124.711 97.38 125.091 97.38H125.251C125.631 97.38 125.891 97.54 125.891 98.08V106.38C125.891 106.9 125.631 107.06 125.251 107.06H125.091C124.711 107.06 124.451 106.9 124.451 106.38ZM132.211 111.4C130.991 111.4 130.271 110.62 130.271 110.06C130.271 109.66 130.451 109.48 130.771 109.44C130.951 109.68 131.391 110.22 132.071 110.22C132.691 110.22 133.251 109.94 133.251 109.14C133.251 108.32 132.251 107.38 131.411 107.04C129.331 106.5 127.951 104.64 127.951 102.2C127.951 99.34 129.951 97.24 132.771 97.24C134.271 97.24 135.311 97.78 135.951 98.4C136.491 98.9 136.731 99.48 136.731 99.84C136.731 100.48 135.871 100.6 135.811 100.52C135.391 99.42 134.531 98.48 132.791 98.48C130.791 98.48 129.371 100.04 129.371 102.2C129.371 104.4 130.771 105.98 132.791 105.98C134.511 105.98 135.391 105.04 135.811 103.94C135.851 103.86 136.731 103.96 136.731 104.64C136.731 104.96 136.511 105.5 135.991 106.02C135.491 106.52 134.771 106.96 133.771 107.14C133.531 107.18 133.291 107.2 133.031 107.2C133.751 107.68 134.431 108.5 134.431 109.5C134.431 110.86 133.291 111.4 132.211 111.4ZM140.009 95.68C139.829 95.68 139.689 95.62 139.549 95.5C139.489 95.38 139.489 95.18 139.489 95C139.589 94.04 140.149 93.26 141.029 93.26C141.629 93.26 142.069 93.6 142.469 93.94C142.909 94.34 143.209 94.6 143.549 94.78C144.129 94.52 144.089 93.38 144.649 93.38C144.829 93.38 144.989 93.44 145.089 93.54C145.149 93.7 145.169 93.9 145.169 94.08C145.069 95.04 144.509 95.78 143.629 95.78C143.029 95.78 142.609 95.48 142.189 95.12C141.769 94.76 141.489 94.46 141.129 94.28C140.589 94.56 140.569 95.68 140.009 95.68ZM138.009 104.54C138.009 102.38 140.049 101.46 144.549 101.4H144.769V101C144.769 99.38 143.829 98.48 142.189 98.48C140.669 98.48 139.749 99.22 139.269 100.18C139.229 100.2 138.389 100.16 138.389 99.44C138.389 99.16 138.589 98.74 138.969 98.38C139.589 97.78 140.689 97.24 142.269 97.24C144.809 97.24 146.189 98.66 146.189 101.02V106.92C146.189 106.98 145.929 107.08 145.669 107.08C145.249 107.08 144.909 106.88 144.829 106.16C144.809 105.88 144.789 105.58 144.789 105.28C144.149 106.44 142.849 107.2 141.249 107.2C139.249 107.2 138.009 106.16 138.009 104.54ZM144.769 103.26V102.34L144.429 102.36C140.949 102.44 139.449 103.04 139.449 104.5C139.449 105.5 140.249 106.12 141.529 106.12C143.369 106.12 144.769 104.88 144.769 103.26ZM148.068 102.22C148.068 99.32 150.068 97.24 152.928 97.24C155.748 97.24 157.748 99.34 157.748 102.26C157.748 105.14 155.748 107.22 152.908 107.22C150.048 107.22 148.068 105.12 148.068 102.22ZM156.348 102.26C156.348 100.06 154.928 98.46 152.928 98.46C150.928 98.46 149.468 100.02 149.468 102.22C149.468 104.42 150.928 106 152.928 106C154.908 106 156.348 104.44 156.348 102.26ZM162.54 102.28C162.54 99.38 164.52 97.24 167.26 97.24C169.92 97.24 171.64 99.12 171.64 101.94V102.08C171.64 102.42 171.5 102.54 171.14 102.54H163.92C163.92 102.62 163.92 102.72 163.94 102.82C164.12 104.74 165.5 106.02 167.42 106.02C169.2 106.02 170.04 105.18 170.52 104.26C170.6 104.22 171.34 104.38 171.34 105.02C171.34 105.32 171.1 105.78 170.58 106.2C169.98 106.72 168.88 107.22 167.4 107.22C164.5 107.22 162.54 105.2 162.54 102.28ZM170.22 101.5C170.14 99.64 169 98.4 167.26 98.4C165.52 98.4 164.22 99.68 163.96 101.5H170.22ZM176.188 106.52L179.448 102.22L176.228 97.92C176.188 97.84 176.468 97.38 176.968 97.38C177.428 97.38 177.668 97.6 177.928 98.02L180.388 101.4L182.808 98.04C183.108 97.54 183.408 97.38 183.748 97.38C184.268 97.38 184.568 97.86 184.508 97.92L181.268 102.22L184.468 106.52C184.528 106.62 184.248 107.08 183.708 107.08C183.268 107.08 183.028 106.84 182.788 106.44L180.308 103.04L177.888 106.42C177.628 106.84 177.348 107.08 176.948 107.08C176.448 107.08 176.128 106.6 176.188 106.52ZM188.386 96.02C188.086 96.02 187.846 95.8 187.846 95.52C187.846 94.68 189.926 92.82 190.486 92.62C191.046 92.82 193.126 94.68 193.126 95.52C193.126 95.8 192.906 96.02 192.606 96.02C192.226 96.02 191.786 95.68 190.486 93.78C189.166 95.68 188.766 96.02 188.386 96.02ZM185.646 102.22C185.646 99.32 187.646 97.24 190.506 97.24C193.326 97.24 195.326 99.34 195.326 102.26C195.326 105.14 193.326 107.22 190.486 107.22C187.626 107.22 185.646 105.12 185.646 102.22ZM193.926 102.26C193.926 100.06 192.506 98.46 190.506 98.46C188.506 98.46 187.046 100.02 187.046 102.22C187.046 104.42 188.506 106 190.506 106C192.486 106 193.926 104.44 193.926 102.26ZM78.6561 122.24C81.1561 122.24 83.0561 124.22 83.0561 127.2C83.0561 130.18 81.1961 132.22 78.6161 132.22C76.8761 132.22 75.6761 131.26 75.1761 130.22V135.18C75.1761 135.68 74.9161 135.86 74.5561 135.86H74.3961C74.0161 135.86 73.7561 135.68 73.7561 135.18V122.54C73.7561 122.5 73.9761 122.38 74.2561 122.38C74.6761 122.38 75.0761 122.62 75.1361 123.46C75.1361 123.7 75.1561 124.02 75.1561 124.28C75.8561 123.04 76.9961 122.24 78.6561 122.24ZM78.3561 131C80.3161 131 81.6361 129.48 81.6361 127.22C81.6361 125 80.2561 123.46 78.3961 123.46C76.7961 123.46 75.6961 124.38 75.1561 125.76V127.88C75.1561 129.64 76.5961 131 78.3561 131ZM88.9051 122.24C89.7651 122.24 90.3251 122.66 90.3251 123.28C90.3251 123.86 89.9251 124.1 89.8851 124.06C89.6451 123.82 89.2651 123.66 88.7451 123.66C87.1851 123.66 86.4651 125.2 86.4651 127.6V131.38C86.4651 131.88 86.2051 132.06 85.8451 132.06H85.6851C85.2851 132.06 85.0251 131.9 85.0251 131.38V122.54C85.0251 122.5 85.2451 122.38 85.5451 122.38C85.9451 122.38 86.3051 122.58 86.3851 123.34C86.4051 123.68 86.4251 124.02 86.4251 124.38C86.8051 122.94 87.6851 122.24 88.9051 122.24ZM90.8118 127.28C90.8118 124.38 92.7918 122.24 95.5318 122.24C98.1918 122.24 99.9118 124.12 99.9118 126.94V127.08C99.9118 127.42 99.7718 127.54 99.4118 127.54H92.1918C92.1918 127.62 92.1918 127.72 92.2118 127.82C92.3918 129.74 93.7718 131.02 95.6918 131.02C97.4718 131.02 98.3118 130.18 98.7918 129.26C98.8718 129.22 99.6118 129.38 99.6118 130.02C99.6118 130.32 99.3718 130.78 98.8518 131.2C98.2518 131.72 97.1518 132.22 95.6718 132.22C92.7718 132.22 90.8118 130.2 90.8118 127.28ZM98.4918 126.5C98.4118 124.64 97.2718 123.4 95.5318 123.4C93.7918 123.4 92.4918 124.68 92.2318 126.5H98.4918ZM105.021 136.2C102.041 136.2 100.561 135.32 100.561 133.6C100.561 132.2 101.941 131.22 103.681 130.9C103.341 130.7 103.081 130.4 103.081 129.94C103.081 129.52 103.321 129.16 103.661 128.92C102.201 128.46 101.241 127.26 101.241 125.78C101.241 123.8 102.881 122.24 105.101 122.24C105.941 122.24 106.741 122.48 107.361 122.9L108.081 121.82C108.361 121.34 108.681 121.2 109.021 121.24C109.481 121.3 109.741 121.76 109.721 121.88L108.141 123.56C108.661 124.14 109.001 124.88 109.001 125.72C109.001 127.66 107.361 129.14 105.121 129.14C104.941 129.14 104.781 129.14 104.601 129.12C104.401 129.26 104.361 129.44 104.361 129.64C104.381 130.28 105.341 130.38 106.961 130.78C108.341 131.12 109.821 131.8 109.821 133.34C109.821 135.12 108.061 136.2 105.021 136.2ZM105.101 128.14C106.541 128.14 107.561 127.18 107.561 125.74C107.561 124.32 106.581 123.32 105.081 123.32C103.641 123.32 102.641 124.3 102.641 125.74C102.641 127.18 103.661 128.14 105.101 128.14ZM105.061 135.16C107.161 135.16 108.421 134.56 108.421 133.44C108.421 132.56 107.421 132.16 106.321 131.88C105.921 131.78 105.521 131.7 105.141 131.6C103.441 131.74 101.961 132.46 101.961 133.58C101.961 134.6 103.041 135.16 105.061 135.16ZM118.68 122.38C119.06 122.38 119.32 122.54 119.32 123.06V131.92C119.32 131.96 119.08 132.08 118.8 132.08C118.4 132.08 118.04 131.88 117.96 131.14C117.94 130.88 117.92 130.62 117.92 130.36C117.28 131.42 116.18 132.22 114.64 132.22C112.18 132.22 110.98 130.52 110.98 128.06V123.06C110.98 122.54 111.24 122.38 111.62 122.38H111.78C112.16 122.38 112.42 122.54 112.42 123.06V127.96C112.42 129.8 113.32 130.94 114.94 130.94C116.32 130.94 117.36 130.16 117.88 129V123.06C117.88 122.54 118.14 122.38 118.5 122.38H118.68ZM121.801 119.46C121.801 118.86 122.141 118.54 122.721 118.54C123.301 118.54 123.641 118.86 123.641 119.46C123.641 120.04 123.281 120.36 122.701 120.36C122.141 120.36 121.801 120.04 121.801 119.46ZM121.981 131.38V123.08C121.981 122.56 122.241 122.38 122.621 122.38H122.781C123.161 122.38 123.421 122.54 123.421 123.08V131.38C123.421 131.9 123.161 132.06 122.781 132.06H122.621C122.241 132.06 121.981 131.9 121.981 131.38ZM129.74 136.4C128.52 136.4 127.8 135.62 127.8 135.06C127.8 134.66 127.98 134.48 128.3 134.44C128.48 134.68 128.92 135.22 129.6 135.22C130.22 135.22 130.78 134.94 130.78 134.14C130.78 133.32 129.78 132.38 128.94 132.04C126.86 131.5 125.48 129.64 125.48 127.2C125.48 124.34 127.48 122.24 130.3 122.24C131.8 122.24 132.84 122.78 133.48 123.4C134.02 123.9 134.26 124.48 134.26 124.84C134.26 125.48 133.4 125.6 133.34 125.52C132.92 124.42 132.06 123.48 130.32 123.48C128.32 123.48 126.9 125.04 126.9 127.2C126.9 129.4 128.3 130.98 130.32 130.98C132.04 130.98 132.92 130.04 133.34 128.94C133.38 128.86 134.26 128.96 134.26 129.64C134.26 129.96 134.04 130.5 133.52 131.02C133.02 131.52 132.3 131.96 131.3 132.14C131.06 132.18 130.82 132.2 130.56 132.2C131.28 132.68 131.96 133.5 131.96 134.5C131.96 135.86 130.82 136.4 129.74 136.4ZM135.538 129.54C135.538 127.38 137.578 126.46 142.078 126.4H142.298V126C142.298 124.38 141.358 123.48 139.718 123.48C138.198 123.48 137.278 124.22 136.798 125.18C136.758 125.2 135.918 125.16 135.918 124.44C135.918 124.16 136.118 123.74 136.498 123.38C137.118 122.78 138.218 122.24 139.798 122.24C142.338 122.24 143.718 123.66 143.718 126.02V131.92C143.718 131.98 143.458 132.08 143.198 132.08C142.778 132.08 142.438 131.88 142.358 131.16C142.338 130.88 142.318 130.58 142.318 130.28C141.678 131.44 140.378 132.2 138.778 132.2C136.778 132.2 135.538 131.16 135.538 129.54ZM142.298 128.26V127.34L141.958 127.36C138.478 127.44 136.978 128.04 136.978 129.5C136.978 130.5 137.778 131.12 139.058 131.12C140.898 131.12 142.298 129.88 142.298 128.26ZM147.257 128.36C147.017 128.36 146.937 128.18 146.917 127.84L146.457 119.88C146.397 119.26 146.657 118.96 147.097 118.96H147.557C148.017 118.96 148.277 119.26 148.217 119.88L147.777 127.86C147.737 128.18 147.677 128.36 147.417 128.36H147.257ZM147.237 132.12C146.677 132.12 146.377 131.8 146.377 131.22V131.04C146.377 130.46 146.657 130.14 147.237 130.14H147.437C148.017 130.14 148.297 130.46 148.297 131.04V131.22C148.297 131.8 148.017 132.12 147.437 132.12H147.237Z" fill="#1A1A1A"/>
</svg>
