<svg width="223" height="154" viewBox="0 0 223 154" fill="none" xmlns="http://www.w3.org/2000/svg">
<rect x="1" y="1" width="220" height="152" rx="15" fill="#9DC8FF" stroke="#1A1A1A" stroke-width="2"/>
<mask id="path-2-inside-1_2_1685" fill="white">
<path d="M143.108 48C143.108 65.6731 128.782 80 111.108 80C93.4353 80 79.1084 65.6731 79.1084 48C79.1084 30.3269 93.4353 16 111.108 16C128.782 16 143.108 30.3269 143.108 48ZM91.6951 48C91.6951 58.7217 100.387 67.4133 111.108 67.4133C121.83 67.4133 130.522 58.7217 130.522 48C130.522 37.2783 121.83 28.5867 111.108 28.5867C100.387 28.5867 91.6951 37.2783 91.6951 48Z"/>
</mask>
<path d="M143.108 48C143.108 65.6731 128.782 80 111.108 80C93.4353 80 79.1084 65.6731 79.1084 48C79.1084 30.3269 93.4353 16 111.108 16C128.782 16 143.108 30.3269 143.108 48ZM91.6951 48C91.6951 58.7217 100.387 67.4133 111.108 67.4133C121.83 67.4133 130.522 58.7217 130.522 48C130.522 37.2783 121.83 28.5867 111.108 28.5867C100.387 28.5867 91.6951 37.2783 91.6951 48Z" fill="#FD86CD" stroke="#1A1A1A" stroke-width="4" mask="url(#path-2-inside-1_2_1685)"/>
<circle cx="111" cy="48" r="11" fill="#FD86CD" stroke="#1A1A1A" stroke-width="2"/>
<path d="M110.5 48.0002L147.741 32.0698" stroke="#1A1A1A" stroke-width="2"/>
<path d="M26.0254 106.14V94.94C26.0254 94.42 26.3854 94.06 26.8454 94.06H29.9054C34.2254 94.06 36.7854 96.48 36.7854 100.5C36.7854 104.54 34.1454 107 29.7854 107H26.8854C26.3854 107 26.0254 106.62 26.0254 106.14ZM29.8454 105.7C33.2654 105.7 35.2254 103.82 35.2254 100.52C35.2254 97.26 33.2454 95.36 29.8654 95.36H27.5254V105.7H29.8454ZM41.2504 96.02C41.1104 96.02 41.0704 95.98 41.0704 95.94C41.0704 95.74 42.9304 92.72 44.1104 92.72C44.4704 92.72 44.7304 93 44.7304 93.36C44.7304 94.5 41.4504 96.02 41.2504 96.02ZM38.3704 104.54C38.3704 102.38 40.4104 101.46 44.9104 101.4H45.1304V101C45.1304 99.38 44.1904 98.48 42.5504 98.48C41.0304 98.48 40.1104 99.22 39.6304 100.18C39.5904 100.2 38.7504 100.16 38.7504 99.44C38.7504 99.16 38.9504 98.74 39.3304 98.38C39.9504 97.78 41.0504 97.24 42.6304 97.24C45.1704 97.24 46.5504 98.66 46.5504 101.02V106.92C46.5504 106.98 46.2904 107.08 46.0304 107.08C45.6104 107.08 45.2704 106.88 45.1904 106.16C45.1704 105.88 45.1504 105.58 45.1504 105.28C44.5104 106.44 43.2104 107.2 41.6104 107.2C39.6104 107.2 38.3704 106.16 38.3704 104.54ZM45.1304 103.26V102.34L44.7904 102.36C41.3104 102.44 39.8104 103.04 39.8104 104.5C39.8104 105.5 40.6104 106.12 41.8904 106.12C43.7304 106.12 45.1304 104.88 45.1304 103.26ZM60.067 97.38C60.447 97.38 60.707 97.54 60.707 98.06V106.92C60.707 106.96 60.467 107.08 60.187 107.08C59.787 107.08 59.427 106.88 59.347 106.14C59.327 105.88 59.307 105.62 59.307 105.36C58.667 106.42 57.567 107.22 56.027 107.22C53.567 107.22 52.367 105.52 52.367 103.06V98.06C52.367 97.54 52.627 97.38 53.007 97.38H53.167C53.547 97.38 53.807 97.54 53.807 98.06V102.96C53.807 104.8 54.707 105.94 56.327 105.94C57.707 105.94 58.747 105.16 59.267 104V98.06C59.267 97.54 59.527 97.38 59.887 97.38H60.067ZM74.1873 97.24C76.5273 97.24 77.7273 98.74 77.7273 101.26V106.38C77.7273 106.9 77.4673 107.06 77.0873 107.06H76.9273C76.5473 107.06 76.2873 106.9 76.2873 106.38V101.38C76.2873 99.54 75.4673 98.52 73.8873 98.52C72.7673 98.52 71.6873 99.24 71.2273 100.42V106.38C71.2273 106.9 70.9473 107.06 70.5873 107.06H70.4273C70.0473 107.06 69.7873 106.9 69.7873 106.38V101.26C69.7873 99.52 68.9873 98.52 67.3873 98.52C66.2873 98.52 65.2073 99.24 64.7073 100.42V106.38C64.7073 106.9 64.4473 107.06 64.0873 107.06H63.9073C63.5473 107.06 63.2673 106.9 63.2673 106.38V97.54C63.2673 97.5 63.5073 97.38 63.7873 97.38C64.2273 97.38 64.6273 97.6 64.6673 98.56L64.6873 99.04C65.3073 97.98 66.3873 97.24 67.7073 97.24C69.3273 97.24 70.4073 98.06 70.8673 99.36C71.4473 98.12 72.6073 97.24 74.1873 97.24ZM88.5389 97.24C91.0389 97.24 92.9389 99.22 92.9389 102.2C92.9389 105.18 91.0789 107.22 88.4989 107.22C86.7589 107.22 85.5589 106.26 85.0589 105.22V110.18C85.0589 110.68 84.7989 110.86 84.4389 110.86H84.2789C83.8989 110.86 83.6389 110.68 83.6389 110.18V97.54C83.6389 97.5 83.8589 97.38 84.1389 97.38C84.5589 97.38 84.9589 97.62 85.0189 98.46C85.0189 98.7 85.0389 99.02 85.0389 99.28C85.7389 98.04 86.8789 97.24 88.5389 97.24ZM88.2389 106C90.1989 106 91.5189 104.48 91.5189 102.22C91.5189 100 90.1389 98.46 88.2789 98.46C86.6789 98.46 85.5789 99.38 85.0389 100.76V102.88C85.0389 104.64 86.4789 106 88.2389 106ZM95.6479 107.06C95.2679 107.06 95.0079 106.9 95.0079 106.38V93.52C95.0079 93.46 95.2479 93.36 95.5279 93.36C95.9879 93.36 96.4479 93.6 96.4479 94.64V106.38C96.4479 106.9 96.1879 107.06 95.8079 107.06H95.6479ZM98.5071 104.54C98.5071 102.38 100.547 101.46 105.047 101.4H105.267V101C105.267 99.38 104.327 98.48 102.687 98.48C101.167 98.48 100.247 99.22 99.7671 100.18C99.7271 100.2 98.8871 100.16 98.8871 99.44C98.8871 99.16 99.0871 98.74 99.4671 98.38C100.087 97.78 101.187 97.24 102.767 97.24C105.307 97.24 106.687 98.66 106.687 101.02V106.92C106.687 106.98 106.427 107.08 106.167 107.08C105.747 107.08 105.407 106.88 105.327 106.16C105.307 105.88 105.287 105.58 105.287 105.28C104.647 106.44 103.347 107.2 101.747 107.2C99.7471 107.2 98.5071 106.16 98.5071 104.54ZM105.267 103.26V102.34L104.927 102.36C101.447 102.44 99.9471 103.04 99.9471 104.5C99.9471 105.5 100.747 106.12 102.027 106.12C103.867 106.12 105.267 104.88 105.267 103.26ZM111.406 110.84C111.006 110.84 110.646 110.54 110.666 110.44L112.306 106.46C111.926 106.44 111.726 106.34 111.586 106L108.126 97.8C108.106 97.68 108.466 97.36 108.906 97.36C109.266 97.38 109.586 97.6 109.806 98.22L112.726 105.52L115.306 98.28C115.526 97.54 115.926 97.36 116.286 97.38C116.646 97.38 117.006 97.68 116.986 97.78L112.346 109.98C112.126 110.66 111.786 110.84 111.406 110.84ZM126.58 97.24C129.04 97.24 130.24 98.94 130.24 101.38V106.38C130.24 106.9 129.98 107.06 129.62 107.06H129.44C129.06 107.06 128.8 106.9 128.8 106.38V101.5C128.8 99.66 127.92 98.52 126.3 98.52C124.9 98.52 123.86 99.3 123.34 100.44V106.38C123.34 106.9 123.08 107.06 122.72 107.06H122.54C122.16 107.06 121.9 106.9 121.9 106.38V97.54C121.9 97.5 122.14 97.38 122.42 97.38C122.86 97.38 123.26 97.6 123.3 98.58V99.14C123.94 98 125.06 97.24 126.58 97.24ZM132.12 102.22C132.12 99.32 134.12 97.24 136.98 97.24C139.8 97.24 141.8 99.34 141.8 102.26C141.8 105.14 139.8 107.22 136.96 107.22C134.1 107.22 132.12 105.12 132.12 102.22ZM140.4 102.26C140.4 100.06 138.98 98.46 136.98 98.46C134.98 98.46 133.52 100.02 133.52 102.22C133.52 104.42 134.98 106 136.98 106C138.96 106 140.4 104.44 140.4 102.26ZM147.702 106.38V98.68H146.362C145.902 98.68 145.742 98.48 145.742 98.12V98C145.742 97.64 145.902 97.46 146.362 97.46H147.702V96.5C147.702 94.28 148.722 93.18 150.482 93.18C151.242 93.18 151.762 93.36 152.102 93.66C152.322 93.84 152.422 94.08 152.422 94.34C152.422 94.78 152.102 95.02 152.062 94.98C151.782 94.66 151.202 94.4 150.622 94.4C149.582 94.4 149.082 95.06 149.082 96.62V97.46H150.922C151.382 97.46 151.562 97.66 151.562 98V98.12C151.562 98.48 151.382 98.68 150.922 98.68H149.122V106.38C149.122 106.88 148.882 107.06 148.502 107.06H148.342C147.962 107.06 147.702 106.9 147.702 106.38ZM152.277 102.22C152.277 99.32 154.277 97.24 157.137 97.24C159.957 97.24 161.957 99.34 161.957 102.26C161.957 105.14 159.957 107.22 157.117 107.22C154.257 107.22 152.277 105.12 152.277 102.22ZM160.557 102.26C160.557 100.06 159.137 98.46 157.137 98.46C155.137 98.46 153.677 100.02 153.677 102.22C153.677 104.42 155.137 106 157.137 106C159.117 106 160.557 104.44 160.557 102.26ZM163.331 102.2C163.331 99.34 165.331 97.24 168.151 97.24C169.651 97.24 170.691 97.78 171.331 98.4C171.871 98.9 172.111 99.48 172.111 99.84C172.111 100.48 171.251 100.6 171.191 100.52C170.771 99.42 169.911 98.48 168.171 98.48C166.171 98.48 164.751 100.04 164.751 102.2C164.751 104.4 166.151 105.98 168.171 105.98C169.891 105.98 170.771 105.04 171.191 103.94C171.231 103.86 172.111 103.96 172.111 104.64C172.111 104.96 171.871 105.52 171.331 106.04C170.711 106.7 169.651 107.22 168.131 107.22C165.331 107.22 163.331 105.12 163.331 102.2ZM173.409 102.22C173.409 99.32 175.409 97.24 178.269 97.24C181.089 97.24 183.089 99.34 183.089 102.26C183.089 105.14 181.089 107.22 178.249 107.22C175.389 107.22 173.409 105.12 173.409 102.22ZM181.689 102.26C181.689 100.06 180.269 98.46 178.269 98.46C176.269 98.46 174.809 100.02 174.809 102.22C174.809 104.42 176.269 106 178.269 106C180.249 106 181.689 104.44 181.689 102.26ZM187.882 102.28C187.882 99.38 189.862 97.24 192.602 97.24C195.262 97.24 196.982 99.12 196.982 101.94V102.08C196.982 102.42 196.842 102.54 196.482 102.54H189.262C189.262 102.62 189.262 102.72 189.282 102.82C189.462 104.74 190.842 106.02 192.762 106.02C194.542 106.02 195.382 105.18 195.862 104.26C195.942 104.22 196.682 104.38 196.682 105.02C196.682 105.32 196.442 105.78 195.922 106.2C195.322 106.72 194.222 107.22 192.742 107.22C189.842 107.22 187.882 105.2 187.882 102.28ZM195.562 101.5C195.482 99.64 194.342 98.4 192.602 98.4C190.862 98.4 189.562 99.68 189.302 101.5H195.562ZM56.3099 129.54C56.3099 127.38 58.3499 126.46 62.8499 126.4H63.0699V126C63.0699 124.38 62.1299 123.48 60.4899 123.48C58.9699 123.48 58.0499 124.22 57.5699 125.18C57.5299 125.2 56.6899 125.16 56.6899 124.44C56.6899 124.16 56.8899 123.74 57.2699 123.38C57.8899 122.78 58.9899 122.24 60.5699 122.24C63.1099 122.24 64.4899 123.66 64.4899 126.02V131.92C64.4899 131.98 64.2299 132.08 63.9699 132.08C63.5499 132.08 63.2099 131.88 63.1299 131.16C63.1099 130.88 63.0899 130.58 63.0899 130.28C62.4499 131.44 61.1499 132.2 59.5499 132.2C57.5499 132.2 56.3099 131.16 56.3099 129.54ZM63.0699 128.26V127.34L62.7299 127.36C59.2499 127.44 57.7499 128.04 57.7499 129.5C57.7499 130.5 58.5499 131.12 59.8299 131.12C61.6699 131.12 63.0699 129.88 63.0699 128.26ZM71.8885 122.24C74.3885 122.24 76.2885 124.22 76.2885 127.2C76.2885 130.18 74.4285 132.22 71.8485 132.22C70.1085 132.22 68.9085 131.26 68.4085 130.22V135.18C68.4085 135.68 68.1485 135.86 67.7885 135.86H67.6285C67.2485 135.86 66.9885 135.68 66.9885 135.18V122.54C66.9885 122.5 67.2085 122.38 67.4885 122.38C67.9085 122.38 68.3085 122.62 68.3685 123.46C68.3685 123.7 68.3885 124.02 68.3885 124.28C69.0885 123.04 70.2285 122.24 71.8885 122.24ZM71.5885 131C73.5485 131 74.8685 129.48 74.8685 127.22C74.8685 125 73.4885 123.46 71.6285 123.46C70.0285 123.46 68.9285 124.38 68.3885 125.76V127.88C68.3885 129.64 69.8285 131 71.5885 131ZM82.1375 122.24C82.9975 122.24 83.5575 122.66 83.5575 123.28C83.5575 123.86 83.1575 124.1 83.1175 124.06C82.8775 123.82 82.4975 123.66 81.9775 123.66C80.4175 123.66 79.6975 125.2 79.6975 127.6V131.38C79.6975 131.88 79.4375 132.06 79.0775 132.06H78.9175C78.5175 132.06 78.2575 131.9 78.2575 131.38V122.54C78.2575 122.5 78.4775 122.38 78.7775 122.38C79.1775 122.38 79.5375 122.58 79.6175 123.34C79.6375 123.68 79.6575 124.02 79.6575 124.38C80.0375 122.94 80.9175 122.24 82.1375 122.24ZM84.0443 127.28C84.0443 124.38 86.0243 122.24 88.7643 122.24C91.4243 122.24 93.1443 124.12 93.1443 126.94V127.08C93.1443 127.42 93.0043 127.54 92.6443 127.54H85.4243C85.4243 127.62 85.4243 127.72 85.4443 127.82C85.6243 129.74 87.0043 131.02 88.9243 131.02C90.7043 131.02 91.5443 130.18 92.0243 129.26C92.1043 129.22 92.8443 129.38 92.8443 130.02C92.8443 130.32 92.6043 130.78 92.0843 131.2C91.4843 131.72 90.3843 132.22 88.9043 132.22C86.0043 132.22 84.0443 130.2 84.0443 127.28ZM91.7243 126.5C91.6443 124.64 90.5043 123.4 88.7643 123.4C87.0243 123.4 85.7243 124.68 85.4643 126.5H91.7243ZM99.7735 122.24C102.233 122.24 103.433 123.94 103.433 126.38V131.38C103.433 131.9 103.173 132.06 102.813 132.06H102.633C102.253 132.06 101.993 131.9 101.993 131.38V126.5C101.993 124.66 101.113 123.52 99.4935 123.52C98.0935 123.52 97.0535 124.3 96.5335 125.44V131.38C96.5335 131.9 96.2735 132.06 95.9135 132.06H95.7335C95.3535 132.06 95.0935 131.9 95.0935 131.38V122.54C95.0935 122.5 95.3335 122.38 95.6135 122.38C96.0535 122.38 96.4535 122.6 96.4935 123.58V124.14C97.1335 123 98.2535 122.24 99.7735 122.24ZM109.714 132.22C107.194 132.22 105.314 130.22 105.314 127.22C105.314 124.26 107.194 122.24 109.754 122.24C111.454 122.24 112.654 123.1 113.194 124.08V118.52C113.194 118.46 113.414 118.36 113.694 118.36C114.174 118.36 114.634 118.6 114.634 119.64V131.38C114.634 131.9 114.374 132.06 113.994 132.06H113.854C113.494 132.06 113.234 131.9 113.234 131.42C113.214 131.02 113.214 130.62 113.214 130.18C112.534 131.4 111.394 132.22 109.714 132.22ZM113.194 127.88V125.74C112.674 124.36 111.614 123.46 109.994 123.46C108.074 123.46 106.754 124.96 106.754 127.22C106.754 129.44 108.094 131 109.974 131C111.754 131 113.194 129.66 113.194 127.88ZM117.142 119.46C117.142 118.86 117.482 118.54 118.062 118.54C118.642 118.54 118.982 118.86 118.982 119.46C118.982 120.04 118.622 120.36 118.042 120.36C117.482 120.36 117.142 120.04 117.142 119.46ZM117.322 131.38V123.08C117.322 122.56 117.582 122.38 117.962 122.38H118.122C118.502 122.38 118.762 122.54 118.762 123.08V131.38C118.762 131.9 118.502 132.06 118.122 132.06H117.962C117.582 132.06 117.322 131.9 117.322 131.38ZM120.842 131.42V131.28C120.842 130.98 120.962 130.8 121.302 130.38L126.702 123.66H121.542C121.082 123.66 120.882 123.48 120.882 123.12V122.98C120.882 122.64 121.082 122.46 121.542 122.46H127.902C128.382 122.46 128.542 122.72 128.542 123.02V123.12C128.542 123.38 128.422 123.56 128.102 123.98L122.602 130.8H128.022C128.502 130.8 128.702 130.98 128.702 131.34V131.46C128.702 131.82 128.502 132 128.022 132H121.482C121.022 132 120.842 131.74 120.842 131.42ZM130.021 129.54C130.021 127.38 132.061 126.46 136.561 126.4H136.781V126C136.781 124.38 135.841 123.48 134.201 123.48C132.681 123.48 131.761 124.22 131.281 125.18C131.241 125.2 130.401 125.16 130.401 124.44C130.401 124.16 130.601 123.74 130.981 123.38C131.601 122.78 132.701 122.24 134.281 122.24C136.821 122.24 138.201 123.66 138.201 126.02V131.92C138.201 131.98 137.941 132.08 137.681 132.08C137.261 132.08 136.921 131.88 136.841 131.16C136.821 130.88 136.801 130.58 136.801 130.28C136.161 131.44 134.861 132.2 133.261 132.2C131.261 132.2 130.021 131.16 130.021 129.54ZM136.781 128.26V127.34L136.441 127.36C132.961 127.44 131.461 128.04 131.461 129.5C131.461 130.5 132.261 131.12 133.541 131.12C135.381 131.12 136.781 129.88 136.781 128.26ZM144.479 132.22C141.959 132.22 140.079 130.22 140.079 127.22C140.079 124.26 141.959 122.24 144.519 122.24C146.219 122.24 147.419 123.1 147.959 124.08V118.52C147.959 118.46 148.179 118.36 148.459 118.36C148.939 118.36 149.399 118.6 149.399 119.64V131.38C149.399 131.9 149.139 132.06 148.759 132.06H148.619C148.259 132.06 147.999 131.9 147.999 131.42C147.979 131.02 147.979 130.62 147.979 130.18C147.299 131.4 146.159 132.22 144.479 132.22ZM147.959 127.88V125.74C147.439 124.36 146.379 123.46 144.759 123.46C142.839 123.46 141.519 124.96 141.519 127.22C141.519 129.44 142.859 131 144.739 131C146.519 131 147.959 129.66 147.959 127.88ZM151.368 127.22C151.368 124.32 153.368 122.24 156.228 122.24C159.048 122.24 161.048 124.34 161.048 127.26C161.048 130.14 159.048 132.22 156.208 132.22C153.348 132.22 151.368 130.12 151.368 127.22ZM159.648 127.26C159.648 125.06 158.228 123.46 156.228 123.46C154.228 123.46 152.768 125.02 152.768 127.22C152.768 129.42 154.228 131 156.228 131C158.208 131 159.648 129.44 159.648 127.26ZM164.083 128.36C163.843 128.36 163.763 128.18 163.743 127.84L163.283 119.88C163.223 119.26 163.483 118.96 163.923 118.96H164.383C164.843 118.96 165.103 119.26 165.043 119.88L164.603 127.86C164.563 128.18 164.503 128.36 164.243 128.36H164.083ZM164.063 132.12C163.503 132.12 163.203 131.8 163.203 131.22V131.04C163.203 130.46 163.483 130.14 164.063 130.14H164.263C164.843 130.14 165.123 130.46 165.123 131.04V131.22C165.123 131.8 164.843 132.12 164.263 132.12H164.063Z" fill="#1A1A1A"/>
</svg>
