<svg width="223" height="154" viewBox="0 0 223 154" fill="none" xmlns="http://www.w3.org/2000/svg">
<rect x="1" y="1" width="220" height="152" rx="15" fill="#FFE57B" stroke="#1A1A1A" stroke-width="2"/>
<rect x="107.108" y="54" width="17" height="17" rx="8.5" fill="#FC5B03"/>
<rect x="107.108" y="54" width="17" height="17" rx="8.5" stroke="#1A1A1A" stroke-width="2"/>
<mask id="path-3-inside-1_2_2025" fill="white">
<path d="M95.1084 62C95.1084 59.3736 95.6257 56.7728 96.6308 54.3463C97.6359 51.9198 99.1091 49.715 100.966 47.8579C102.823 46.0007 105.028 44.5275 107.455 43.5224C109.881 42.5173 112.482 42 115.108 42C117.735 42 120.336 42.5173 122.762 43.5224C125.189 44.5275 127.393 46.0007 129.251 47.8579C131.108 49.715 132.581 51.9198 133.586 54.3463C134.591 56.7729 135.108 59.3736 135.108 62L128.097 62C128.097 60.2944 127.761 58.6054 127.108 57.0296C126.455 55.4538 125.499 54.022 124.293 52.8159C123.086 51.6098 121.655 50.6531 120.079 50.0004C118.503 49.3477 116.814 49.0117 115.108 49.0117C113.403 49.0117 111.714 49.3477 110.138 50.0004C108.562 50.6531 107.13 51.6098 105.924 52.8159C104.718 54.022 103.762 55.4538 103.109 57.0296C102.456 58.6054 102.12 60.2944 102.12 62L95.1084 62Z"/>
</mask>
<path d="M95.1084 62C95.1084 59.3736 95.6257 56.7728 96.6308 54.3463C97.6359 51.9198 99.1091 49.715 100.966 47.8579C102.823 46.0007 105.028 44.5275 107.455 43.5224C109.881 42.5173 112.482 42 115.108 42C117.735 42 120.336 42.5173 122.762 43.5224C125.189 44.5275 127.393 46.0007 129.251 47.8579C131.108 49.715 132.581 51.9198 133.586 54.3463C134.591 56.7729 135.108 59.3736 135.108 62L128.097 62C128.097 60.2944 127.761 58.6054 127.108 57.0296C126.455 55.4538 125.499 54.022 124.293 52.8159C123.086 51.6098 121.655 50.6531 120.079 50.0004C118.503 49.3477 116.814 49.0117 115.108 49.0117C113.403 49.0117 111.714 49.3477 110.138 50.0004C108.562 50.6531 107.13 51.6098 105.924 52.8159C104.718 54.022 103.762 55.4538 103.109 57.0296C102.456 58.6054 102.12 60.2944 102.12 62L95.1084 62Z" fill="#FC5B03" stroke="#1A1A1A" stroke-width="4" mask="url(#path-3-inside-1_2_2025)"/>
<mask id="path-4-inside-2_2_2025" fill="white">
<path d="M83.1084 61C83.1084 56.929 83.9361 52.8979 85.5443 49.1368C87.1524 45.3757 89.5095 41.9583 92.481 39.0797C95.4525 36.2011 98.9801 33.9176 102.863 32.3597C106.745 30.8018 110.906 30 115.108 30C119.311 30 123.472 30.8018 127.354 32.3597C131.237 33.9176 134.764 36.2011 137.736 39.0797C140.707 41.9583 143.064 45.3757 144.673 49.1368C146.281 52.8979 147.108 56.929 147.108 61L140.331 61C140.331 57.7912 139.679 54.6138 138.412 51.6492C137.144 48.6846 135.286 45.9909 132.944 43.722C130.602 41.453 127.821 39.6531 124.761 38.4251C121.701 37.1972 118.421 36.5651 115.108 36.5651C111.796 36.5651 108.516 37.1972 105.456 38.4251C102.396 39.6531 99.6152 41.4529 97.273 43.7219C94.9308 45.9909 93.0729 48.6846 91.8053 51.6492C90.5377 54.6138 89.8853 57.7912 89.8853 61L83.1084 61Z"/>
</mask>
<path d="M83.1084 61C83.1084 56.929 83.9361 52.8979 85.5443 49.1368C87.1524 45.3757 89.5095 41.9583 92.481 39.0797C95.4525 36.2011 98.9801 33.9176 102.863 32.3597C106.745 30.8018 110.906 30 115.108 30C119.311 30 123.472 30.8018 127.354 32.3597C131.237 33.9176 134.764 36.2011 137.736 39.0797C140.707 41.9583 143.064 45.3757 144.673 49.1368C146.281 52.8979 147.108 56.929 147.108 61L140.331 61C140.331 57.7912 139.679 54.6138 138.412 51.6492C137.144 48.6846 135.286 45.9909 132.944 43.722C130.602 41.453 127.821 39.6531 124.761 38.4251C121.701 37.1972 118.421 36.5651 115.108 36.5651C111.796 36.5651 108.516 37.1972 105.456 38.4251C102.396 39.6531 99.6152 41.4529 97.273 43.7219C94.9308 45.9909 93.0729 48.6846 91.8053 51.6492C90.5377 54.6138 89.8853 57.7912 89.8853 61L83.1084 61Z" fill="#FC5B03" stroke="#1A1A1A" stroke-width="4" mask="url(#path-4-inside-2_2_2025)"/>
<path d="M31.9141 106.38V94.86C31.9141 94.34 32.2741 94 32.8141 94H33.2141C33.8541 94 34.0141 94.24 34.2741 94.84L37.7741 102.16L41.2741 94.84C41.5141 94.22 41.7141 94 42.2941 94H42.6741C43.2541 94 43.5941 94.34 43.5941 94.86V106.38C43.5941 106.82 43.4141 107.06 42.9741 107.06H42.7941C42.3741 107.06 42.1741 106.82 42.1741 106.38V102.86L42.1941 95.82L38.7741 102.98C38.5941 103.42 38.3941 103.7 37.7541 103.7C37.0741 103.7 36.9141 103.42 36.7141 102.98L33.3141 95.84L33.3341 102.82V106.38C33.3341 106.82 33.1541 107.06 32.7141 107.06H32.4941C32.0741 107.06 31.9141 106.82 31.9141 106.38ZM45.763 102.28C45.763 99.38 47.743 97.24 50.483 97.24C53.143 97.24 54.863 99.12 54.863 101.94V102.08C54.863 102.42 54.723 102.54 54.363 102.54H47.143C47.143 102.62 47.143 102.72 47.163 102.82C47.343 104.74 48.723 106.02 50.643 106.02C52.423 106.02 53.263 105.18 53.743 104.26C53.823 104.22 54.563 104.38 54.563 105.02C54.563 105.32 54.323 105.78 53.803 106.2C53.203 106.72 52.103 107.22 50.623 107.22C47.723 107.22 45.763 105.2 45.763 102.28ZM53.443 101.5C53.363 99.64 52.223 98.4 50.483 98.4C48.743 98.4 47.443 99.68 47.183 101.5H53.443ZM57.5522 107.06C57.1722 107.06 56.9122 106.9 56.9122 106.38V93.52C56.9122 93.46 57.1522 93.36 57.4322 93.36C57.8922 93.36 58.3522 93.6 58.3522 94.64V106.38C58.3522 106.9 58.0922 107.06 57.7122 107.06H57.5522ZM65.691 97.24C68.171 97.24 69.371 98.94 69.371 101.4V106.38C69.371 106.9 69.111 107.06 68.751 107.06H68.571C68.191 107.06 67.931 106.9 67.931 106.38V101.5C67.931 99.66 67.031 98.54 65.411 98.54C63.711 98.54 62.491 99.7 62.471 101.48V106.38C62.471 106.9 62.211 107.06 61.851 107.06H61.671C61.291 107.06 61.031 106.9 61.031 106.38V93.52C61.031 93.46 61.271 93.36 61.551 93.36C62.011 93.36 62.471 93.6 62.471 94.64V99.2C63.071 98.02 64.191 97.24 65.691 97.24ZM71.2513 102.22C71.2513 99.32 73.2513 97.24 76.1113 97.24C78.9313 97.24 80.9313 99.34 80.9313 102.26C80.9313 105.14 78.9313 107.22 76.0913 107.22C73.2313 107.22 71.2513 105.12 71.2513 102.22ZM79.5313 102.26C79.5313 100.06 78.1113 98.46 76.1113 98.46C74.1113 98.46 72.6513 100.02 72.6513 102.22C72.6513 104.42 74.1113 106 76.1113 106C78.0913 106 79.5313 104.44 79.5313 102.26ZM86.786 97.24C87.646 97.24 88.206 97.66 88.206 98.28C88.206 98.86 87.806 99.1 87.766 99.06C87.526 98.82 87.146 98.66 86.626 98.66C85.066 98.66 84.346 100.2 84.346 102.6V106.38C84.346 106.88 84.086 107.06 83.726 107.06H83.566C83.166 107.06 82.906 106.9 82.906 106.38V97.54C82.906 97.5 83.126 97.38 83.426 97.38C83.826 97.38 84.186 97.58 84.266 98.34C84.286 98.68 84.306 99.02 84.306 99.38C84.686 97.94 85.566 97.24 86.786 97.24ZM89.0052 104.54C89.0052 102.38 91.0452 101.46 95.5452 101.4H95.7652V101C95.7652 99.38 94.8252 98.48 93.1852 98.48C91.6652 98.48 90.7452 99.22 90.2652 100.18C90.2252 100.2 89.3852 100.16 89.3852 99.44C89.3852 99.16 89.5852 98.74 89.9652 98.38C90.5852 97.78 91.6852 97.24 93.2652 97.24C95.8052 97.24 97.1852 98.66 97.1852 101.02V106.92C97.1852 106.98 96.9252 107.08 96.6652 107.08C96.2452 107.08 95.9052 106.88 95.8252 106.16C95.8052 105.88 95.7852 105.58 95.7852 105.28C95.1452 106.44 93.8452 107.2 92.2452 107.2C90.2452 107.2 89.0052 106.16 89.0052 104.54ZM95.7652 103.26V102.34L95.4252 102.36C91.9452 102.44 90.4452 103.04 90.4452 104.5C90.4452 105.5 91.2452 106.12 92.5252 106.12C94.3652 106.12 95.7652 104.88 95.7652 103.26ZM102.482 104.54C102.482 102.38 104.522 101.46 109.022 101.4H109.242V101C109.242 99.38 108.302 98.48 106.662 98.48C105.142 98.48 104.222 99.22 103.742 100.18C103.702 100.2 102.862 100.16 102.862 99.44C102.862 99.16 103.062 98.74 103.442 98.38C104.062 97.78 105.162 97.24 106.742 97.24C109.282 97.24 110.662 98.66 110.662 101.02V106.92C110.662 106.98 110.402 107.08 110.142 107.08C109.722 107.08 109.382 106.88 109.302 106.16C109.282 105.88 109.262 105.58 109.262 105.28C108.622 106.44 107.322 107.2 105.722 107.2C103.722 107.2 102.482 106.16 102.482 104.54ZM109.242 103.26V102.34L108.902 102.36C105.422 102.44 103.922 103.04 103.922 104.5C103.922 105.5 104.722 106.12 106.002 106.12C107.842 106.12 109.242 104.88 109.242 103.26ZM127.478 97.24C129.818 97.24 131.018 98.74 131.018 101.26V106.38C131.018 106.9 130.758 107.06 130.378 107.06H130.218C129.838 107.06 129.578 106.9 129.578 106.38V101.38C129.578 99.54 128.758 98.52 127.178 98.52C126.058 98.52 124.978 99.24 124.518 100.42V106.38C124.518 106.9 124.238 107.06 123.878 107.06H123.718C123.338 107.06 123.078 106.9 123.078 106.38V101.26C123.078 99.52 122.278 98.52 120.678 98.52C119.578 98.52 118.498 99.24 117.998 100.42V106.38C117.998 106.9 117.738 107.06 117.378 107.06H117.198C116.838 107.06 116.558 106.9 116.558 106.38V97.54C116.558 97.5 116.798 97.38 117.078 97.38C117.518 97.38 117.918 97.6 117.958 98.56L117.978 99.04C118.598 97.98 119.678 97.24 120.998 97.24C122.618 97.24 123.698 98.06 124.158 99.36C124.738 98.12 125.898 97.24 127.478 97.24ZM132.892 102.28C132.892 99.38 134.872 97.24 137.612 97.24C140.272 97.24 141.992 99.12 141.992 101.94V102.08C141.992 102.42 141.852 102.54 141.492 102.54H134.272C134.272 102.62 134.272 102.72 134.292 102.82C134.472 104.74 135.852 106.02 137.772 106.02C139.552 106.02 140.392 105.18 140.872 104.26C140.952 104.22 141.692 104.38 141.692 105.02C141.692 105.32 141.452 105.78 140.932 106.2C140.332 106.72 139.232 107.22 137.752 107.22C134.852 107.22 132.892 105.2 132.892 102.28ZM140.572 101.5C140.492 99.64 139.352 98.4 137.612 98.4C135.872 98.4 134.572 99.68 134.312 101.5H140.572ZM154.861 97.24C157.201 97.24 158.401 98.74 158.401 101.26V106.38C158.401 106.9 158.141 107.06 157.761 107.06H157.601C157.221 107.06 156.961 106.9 156.961 106.38V101.38C156.961 99.54 156.141 98.52 154.561 98.52C153.441 98.52 152.361 99.24 151.901 100.42V106.38C151.901 106.9 151.621 107.06 151.261 107.06H151.101C150.721 107.06 150.461 106.9 150.461 106.38V101.26C150.461 99.52 149.661 98.52 148.061 98.52C146.961 98.52 145.881 99.24 145.381 100.42V106.38C145.381 106.9 145.121 107.06 144.761 107.06H144.581C144.221 107.06 143.941 106.9 143.941 106.38V97.54C143.941 97.5 144.181 97.38 144.461 97.38C144.901 97.38 145.301 97.6 145.341 98.56L145.361 99.04C145.981 97.98 147.061 97.24 148.381 97.24C150.001 97.24 151.081 98.06 151.541 99.36C152.121 98.12 153.281 97.24 154.861 97.24ZM163.735 96.02C163.595 96.02 163.555 95.98 163.555 95.94C163.555 95.74 165.415 92.72 166.595 92.72C166.955 92.72 167.215 93 167.215 93.36C167.215 94.5 163.935 96.02 163.735 96.02ZM160.275 102.22C160.275 99.32 162.275 97.24 165.135 97.24C167.955 97.24 169.955 99.34 169.955 102.26C169.955 105.14 167.955 107.22 165.115 107.22C162.255 107.22 160.275 105.12 160.275 102.22ZM168.555 102.26C168.555 100.06 167.135 98.46 165.135 98.46C163.135 98.46 161.675 100.02 161.675 102.22C161.675 104.42 163.135 106 165.135 106C167.115 106 168.555 104.44 168.555 102.26ZM175.809 97.24C176.669 97.24 177.229 97.66 177.229 98.28C177.229 98.86 176.829 99.1 176.789 99.06C176.549 98.82 176.169 98.66 175.649 98.66C174.089 98.66 173.369 100.2 173.369 102.6V106.38C173.369 106.88 173.109 107.06 172.749 107.06H172.589C172.189 107.06 171.929 106.9 171.929 106.38V97.54C171.929 97.5 172.149 97.38 172.449 97.38C172.849 97.38 173.209 97.58 173.289 98.34C173.309 98.68 173.329 99.02 173.329 99.38C173.709 97.94 174.589 97.24 175.809 97.24ZM178.705 94.46C178.705 93.86 179.045 93.54 179.625 93.54C180.205 93.54 180.545 93.86 180.545 94.46C180.545 95.04 180.185 95.36 179.605 95.36C179.045 95.36 178.705 95.04 178.705 94.46ZM178.885 106.38V98.08C178.885 97.56 179.145 97.38 179.525 97.38H179.685C180.065 97.38 180.325 97.54 180.325 98.08V106.38C180.325 106.9 180.065 107.06 179.685 107.06H179.525C179.145 107.06 178.885 106.9 178.885 106.38ZM182.384 104.54C182.384 102.38 184.424 101.46 188.924 101.4H189.144V101C189.144 99.38 188.204 98.48 186.564 98.48C185.044 98.48 184.124 99.22 183.644 100.18C183.604 100.2 182.764 100.16 182.764 99.44C182.764 99.16 182.964 98.74 183.344 98.38C183.964 97.78 185.064 97.24 186.644 97.24C189.184 97.24 190.564 98.66 190.564 101.02V106.92C190.564 106.98 190.304 107.08 190.044 107.08C189.624 107.08 189.284 106.88 189.204 106.16C189.184 105.88 189.164 105.58 189.164 105.28C188.524 106.44 187.224 107.2 185.624 107.2C183.624 107.2 182.384 106.16 182.384 104.54ZM189.144 103.26V102.34L188.804 102.36C185.324 102.44 183.824 103.04 183.824 104.5C183.824 105.5 184.624 106.12 185.904 106.12C187.744 106.12 189.144 104.88 189.144 103.26ZM44.5618 127.28C44.5618 124.38 46.5418 122.24 49.2818 122.24C51.9418 122.24 53.6618 124.12 53.6618 126.94V127.08C53.6618 127.42 53.5218 127.54 53.1618 127.54H45.9418C45.9418 127.62 45.9418 127.72 45.9618 127.82C46.1418 129.74 47.5218 131.02 49.4418 131.02C51.2218 131.02 52.0618 130.18 52.5418 129.26C52.6218 129.22 53.3618 129.38 53.3618 130.02C53.3618 130.32 53.1218 130.78 52.6018 131.2C52.0018 131.72 50.9018 132.22 49.4218 132.22C46.5218 132.22 44.5618 130.2 44.5618 127.28ZM52.2418 126.5C52.1618 124.64 51.0218 123.4 49.2818 123.4C47.5418 123.4 46.2418 124.68 45.9818 126.5H52.2418ZM58.429 127.22C58.429 124.32 60.429 122.24 63.289 122.24C66.109 122.24 68.109 124.34 68.109 127.26C68.109 130.14 66.109 132.22 63.269 132.22C60.409 132.22 58.429 130.12 58.429 127.22ZM66.709 127.26C66.709 125.06 65.289 123.46 63.289 123.46C61.289 123.46 59.829 125.02 59.829 127.22C59.829 129.42 61.289 131 63.289 131C65.269 131 66.709 129.44 66.709 127.26ZM72.9017 129.54C72.9017 127.38 74.9417 126.46 79.4417 126.4H79.6617V126C79.6617 124.38 78.7217 123.48 77.0817 123.48C75.5617 123.48 74.6417 124.22 74.1617 125.18C74.1217 125.2 73.2817 125.16 73.2817 124.44C73.2817 124.16 73.4817 123.74 73.8617 123.38C74.4817 122.78 75.5817 122.24 77.1617 122.24C79.7017 122.24 81.0817 123.66 81.0817 126.02V131.92C81.0817 131.98 80.8217 132.08 80.5617 132.08C80.1417 132.08 79.8017 131.88 79.7217 131.16C79.7017 130.88 79.6817 130.58 79.6817 130.28C79.0417 131.44 77.7417 132.2 76.1417 132.2C74.1417 132.2 72.9017 131.16 72.9017 129.54ZM79.6617 128.26V127.34L79.3217 127.36C75.8417 127.44 74.3417 128.04 74.3417 129.5C74.3417 130.5 75.1417 131.12 76.4217 131.12C78.2617 131.12 79.6617 129.88 79.6617 128.26ZM88.4803 122.24C90.9803 122.24 92.8803 124.22 92.8803 127.2C92.8803 130.18 91.0203 132.22 88.4403 132.22C86.7003 132.22 85.5003 131.26 85.0003 130.22V135.18C85.0003 135.68 84.7403 135.86 84.3803 135.86H84.2203C83.8403 135.86 83.5803 135.68 83.5803 135.18V122.54C83.5803 122.5 83.8003 122.38 84.0803 122.38C84.5003 122.38 84.9003 122.62 84.9603 123.46C84.9603 123.7 84.9803 124.02 84.9803 124.28C85.6803 123.04 86.8203 122.24 88.4803 122.24ZM88.1803 131C90.1403 131 91.4603 129.48 91.4603 127.22C91.4603 125 90.0803 123.46 88.2203 123.46C86.6203 123.46 85.5203 124.38 84.9803 125.76V127.88C84.9803 129.64 86.4203 131 88.1803 131ZM98.7293 122.24C99.5893 122.24 100.149 122.66 100.149 123.28C100.149 123.86 99.7493 124.1 99.7093 124.06C99.4693 123.82 99.0893 123.66 98.5693 123.66C97.0093 123.66 96.2893 125.2 96.2893 127.6V131.38C96.2893 131.88 96.0293 132.06 95.6693 132.06H95.5093C95.1093 132.06 94.8493 131.9 94.8493 131.38V122.54C94.8493 122.5 95.0693 122.38 95.3693 122.38C95.7693 122.38 96.1293 122.58 96.2093 123.34C96.2293 123.68 96.2493 124.02 96.2493 124.38C96.6293 122.94 97.5093 122.24 98.7293 122.24ZM100.636 127.28C100.636 124.38 102.616 122.24 105.356 122.24C108.016 122.24 109.736 124.12 109.736 126.94V127.08C109.736 127.42 109.596 127.54 109.236 127.54H102.016C102.016 127.62 102.016 127.72 102.036 127.82C102.216 129.74 103.596 131.02 105.516 131.02C107.296 131.02 108.136 130.18 108.616 129.26C108.696 129.22 109.436 129.38 109.436 130.02C109.436 130.32 109.196 130.78 108.676 131.2C108.076 131.72 106.976 132.22 105.496 132.22C102.596 132.22 100.636 130.2 100.636 127.28ZM108.316 126.5C108.236 124.64 107.096 123.4 105.356 123.4C103.616 123.4 102.316 124.68 102.056 126.5H108.316ZM116.365 122.24C118.825 122.24 120.025 123.94 120.025 126.38V131.38C120.025 131.9 119.765 132.06 119.405 132.06H119.225C118.845 132.06 118.585 131.9 118.585 131.38V126.5C118.585 124.66 117.705 123.52 116.085 123.52C114.685 123.52 113.645 124.3 113.125 125.44V131.38C113.125 131.9 112.865 132.06 112.505 132.06H112.325C111.945 132.06 111.685 131.9 111.685 131.38V122.54C111.685 122.5 111.925 122.38 112.205 122.38C112.645 122.38 113.045 122.6 113.085 123.58V124.14C113.725 123 114.845 122.24 116.365 122.24ZM126.306 132.22C123.786 132.22 121.906 130.22 121.906 127.22C121.906 124.26 123.786 122.24 126.346 122.24C128.046 122.24 129.246 123.1 129.786 124.08V118.52C129.786 118.46 130.006 118.36 130.286 118.36C130.766 118.36 131.226 118.6 131.226 119.64V131.38C131.226 131.9 130.966 132.06 130.586 132.06H130.446C130.086 132.06 129.826 131.9 129.826 131.42C129.806 131.02 129.806 130.62 129.806 130.18C129.126 131.4 127.986 132.22 126.306 132.22ZM129.786 127.88V125.74C129.266 124.36 128.206 123.46 126.586 123.46C124.666 123.46 123.346 124.96 123.346 127.22C123.346 129.44 124.686 131 126.566 131C128.346 131 129.786 129.66 129.786 127.88ZM133.734 119.46C133.734 118.86 134.074 118.54 134.654 118.54C135.234 118.54 135.574 118.86 135.574 119.46C135.574 120.04 135.214 120.36 134.634 120.36C134.074 120.36 133.734 120.04 133.734 119.46ZM133.914 131.38V123.08C133.914 122.56 134.174 122.38 134.554 122.38H134.714C135.094 122.38 135.354 122.54 135.354 123.08V131.38C135.354 131.9 135.094 132.06 134.714 132.06H134.554C134.174 132.06 133.914 131.9 133.914 131.38ZM137.433 131.42V131.28C137.433 130.98 137.553 130.8 137.893 130.38L143.293 123.66H138.133C137.673 123.66 137.473 123.48 137.473 123.12V122.98C137.473 122.64 137.673 122.46 138.133 122.46H144.493C144.973 122.46 145.133 122.72 145.133 123.02V123.12C145.133 123.38 145.013 123.56 144.693 123.98L139.193 130.8H144.613C145.093 130.8 145.293 130.98 145.293 131.34V131.46C145.293 131.82 145.093 132 144.613 132H138.073C137.613 132 137.433 131.74 137.433 131.42ZM146.613 129.54C146.613 127.38 148.653 126.46 153.153 126.4H153.373V126C153.373 124.38 152.433 123.48 150.793 123.48C149.273 123.48 148.353 124.22 147.873 125.18C147.833 125.2 146.993 125.16 146.993 124.44C146.993 124.16 147.193 123.74 147.573 123.38C148.193 122.78 149.293 122.24 150.873 122.24C153.413 122.24 154.793 123.66 154.793 126.02V131.92C154.793 131.98 154.533 132.08 154.273 132.08C153.853 132.08 153.513 131.88 153.433 131.16C153.413 130.88 153.393 130.58 153.393 130.28C152.753 131.44 151.453 132.2 149.853 132.2C147.853 132.2 146.613 131.16 146.613 129.54ZM153.373 128.26V127.34L153.033 127.36C149.553 127.44 148.053 128.04 148.053 129.5C148.053 130.5 148.853 131.12 150.133 131.12C151.973 131.12 153.373 129.88 153.373 128.26ZM161.071 132.22C158.551 132.22 156.671 130.22 156.671 127.22C156.671 124.26 158.551 122.24 161.111 122.24C162.811 122.24 164.011 123.1 164.551 124.08V118.52C164.551 118.46 164.771 118.36 165.051 118.36C165.531 118.36 165.991 118.6 165.991 119.64V131.38C165.991 131.9 165.731 132.06 165.351 132.06H165.211C164.851 132.06 164.591 131.9 164.591 131.42C164.571 131.02 164.571 130.62 164.571 130.18C163.891 131.4 162.751 132.22 161.071 132.22ZM164.551 127.88V125.74C164.031 124.36 162.971 123.46 161.351 123.46C159.431 123.46 158.111 124.96 158.111 127.22C158.111 129.44 159.451 131 161.331 131C163.111 131 164.551 129.66 164.551 127.88ZM167.96 127.22C167.96 124.32 169.96 122.24 172.82 122.24C175.64 122.24 177.64 124.34 177.64 127.26C177.64 130.14 175.64 132.22 172.8 132.22C169.94 132.22 167.96 130.12 167.96 127.22ZM176.24 127.26C176.24 125.06 174.82 123.46 172.82 123.46C170.82 123.46 169.36 125.02 169.36 127.22C169.36 129.42 170.82 131 172.82 131C174.8 131 176.24 129.44 176.24 127.26Z" fill="#1A1A1A"/>
</svg>
