<svg width="202" height="100" viewBox="0 0 202 100" fill="none" xmlns="http://www.w3.org/2000/svg">
<path d="M59.4365 1.00012C60.3001 14.0251 65.7839 24.8005 76.499 32.6906C84.1661 38.336 92.8936 40.8751 102.376 40.4884C122.519 39.667 140.557 23.6781 141.746 1.04309H200.188C200.193 1.46367 200.194 1.87659 200.176 2.30188C198.912 32.1539 186.936 56.7938 164.139 76.0812C150.59 87.5442 134.919 94.7943 117.401 97.5704C87.7192 102.274 60.9223 95.404 37.5195 76.4591C19.8572 62.161 8.62381 43.6954 3.38867 21.3976C1.84929 14.6125 1.06552 7.89505 1.00586 1.00012H59.4365Z" fill="#9DC8FF" stroke="#1A1A1A" stroke-width="2"/>
<path d="M38.0789 39.309C37.2825 38.0143 37.1373 37.2818 36.8229 36.7708C36.5819 36.3789 36.3146 36.4025 36.147 36.1299C35.9479 35.8062 36.0646 35.4997 36.7067 34.9403C37.189 34.5028 37.8272 33.8989 38.8611 33.0986C39.1809 32.855 39.4679 32.7489 39.6355 33.0215C39.7822 33.2599 39.7271 33.5521 39.444 34.008C38.6065 35.2041 37.7925 36.9727 39.0014 38.9764C40.0178 40.6288 41.4498 40.7811 42.5545 40.1721C44.0379 39.3771 43.636 37.4641 43.4334 35.5694C43.2098 33.3354 42.7661 31.0489 44.8445 29.7706C46.4288 28.7961 48.7596 29.2644 50.3732 31.8878C50.8343 32.6374 51.0241 33.3659 51.3175 33.8429C51.5585 34.2347 51.8087 34.2217 51.9764 34.4943C52.1755 34.8179 52.0405 35.0184 51.4298 35.6288C51.0091 36.0519 50.5071 36.572 49.7562 37.2217C49.464 37.4719 49.1941 37.5675 49.0264 37.2949C48.8797 37.0564 48.9243 36.7472 49.1629 36.2952C49.6964 35.2157 50.2746 33.5217 49.342 32.0055C48.4828 30.6086 47.2657 30.3476 46.2265 30.9868C44.9148 31.7936 45.2197 33.3201 45.4145 35.4309C45.6498 37.7986 46.1826 40.0772 44.1973 41.3923C42.0757 42.7912 39.479 41.5472 38.0789 39.309ZM55.1664 46.4573L53.0023 48.1704L49.8996 50.6631C48.7147 51.6151 49.8123 52.2469 49.3602 52.6102C49.2043 52.7354 48.9482 52.736 48.5949 52.5837C48.0353 52.3662 47.3129 51.946 47.0123 51.5718C46.7117 51.1976 46.8796 50.8318 47.3972 50.3903L48.0239 49.8612C46.506 49.9518 45.1459 49.2487 44.4569 48.3912C43.2168 46.8476 43.2754 45.0047 45.4426 43.2635L47.641 41.4973C49.0131 40.395 48.1061 39.8409 48.5894 39.4525C48.7453 39.3273 48.8859 39.3426 49.3581 39.579C50.2367 40.002 50.8466 40.4099 51.0375 40.6156C51.216 40.8058 51.2257 40.9776 50.9451 41.203L48.7809 42.9161L46.7385 44.557C45.3352 45.6844 44.76 46.9163 45.7431 48.0762C46.5604 49.0615 48.4479 49.4948 49.9759 48.2673L51.8624 46.7516C53.2344 45.6492 52.3275 45.0951 52.8108 44.7068C52.9667 44.5816 53.1073 44.5969 53.5795 44.8333C54.458 45.2563 55.0554 45.6486 55.2589 45.8699C55.4374 46.0601 55.4471 46.2319 55.1664 46.4573ZM57.0695 59.5807C57.2291 59.7321 57.3459 59.8705 57.1945 60.0301C56.8503 60.3929 55.844 60.3203 55.1911 59.7008C54.5092 59.0538 54.7198 58.4541 55.25 57.6338C53.9248 57.8101 52.5382 57.2665 51.6967 56.468C49.9267 54.7886 49.8472 52.8384 51.0173 51.6052C52.3388 50.2123 54.4951 50.4386 56.2651 52.1181C56.8745 52.6962 57.2257 53.1397 57.6531 53.7934C58.4642 52.3574 59.0603 51.3514 57.798 50.1538C56.971 49.3692 56.1864 49.121 55.2467 48.891C54.8058 48.8036 54.7802 48.3657 55.2441 48.2545C56.0741 48.077 57.7244 48.4298 59.0447 49.6825C60.6407 51.1968 60.3147 52.7898 59.3927 54.3136L57.0729 58.0952C56.5304 58.9866 56.7938 59.3192 57.0695 59.5807ZM52.7187 56.0592C53.7198 57.0091 55.494 57.2313 55.9837 56.4828C56.2423 56.094 56.4841 55.6066 56.9592 54.8444C57.2316 54.4411 56.3979 53.402 55.9481 52.9752C54.6714 51.7638 53.4113 51.7262 52.5035 52.712C51.6522 53.6964 51.6306 55.0268 52.7187 56.0592ZM77.7682 66.5155L76.6672 69.9159C76.2808 71.1145 77.0886 71.3842 76.8075 71.9143C76.667 72.1794 76.3645 72.1096 75.9404 71.8847L74.0496 70.8824C73.6432 70.6669 73.398 70.4464 73.5478 70.1637C73.8195 69.6512 74.6728 70.262 75.0873 69.0104L76.1299 65.8054C76.6226 64.2783 77.1412 62.7876 75.5415 61.9622C74.4365 61.3991 72.7291 61.7163 71.5718 63.7286L70.4091 65.9644C69.5098 67.6608 70.5089 67.783 70.1811 68.4015C70.0406 68.6665 69.738 68.5967 69.3139 68.3719L67.4232 67.3695C66.9991 67.1447 66.7538 66.9242 66.9037 66.6414C67.2222 66.0406 67.9018 66.8083 68.8011 65.112L70.1032 62.6558C70.9463 61.0654 71.2143 59.5777 69.6583 58.798C68.412 58.16 66.6306 58.5738 65.4878 60.7296L64.4011 62.7794C63.5018 64.4758 64.4833 64.5886 64.1554 65.2071C64.0149 65.4722 63.7301 65.4117 63.2883 65.1775L61.3975 64.1752C60.9911 63.9597 60.7282 63.7298 60.8781 63.4471C61.1966 62.8463 61.8938 63.6233 62.7931 61.927L64.676 58.3752C64.9945 57.7744 65.158 57.2952 64.8308 56.7595C64.702 56.5328 64.6345 56.3612 64.7282 56.1845C64.8312 55.9901 64.9758 55.9309 65.5029 55.9614C66.2536 55.9971 66.9574 56.1213 67.2142 56.2347C67.4439 56.3565 67.5208 56.5104 67.3615 56.8108L66.5476 58.3035C67.9476 57.3705 69.4511 57.3527 70.7057 58.0178C72.137 58.7766 72.7706 59.9726 72.4651 61.531C73.8662 60.5534 75.4061 60.5096 76.6784 61.184C78.4454 62.1208 78.7337 63.5413 77.7682 66.5155ZM86.239 72.1683C86.661 71.9093 87.0286 72.2362 86.7053 72.6669C86.0446 73.5038 84.2022 74.4984 81.7691 73.8423C79.0656 73.1133 77.7764 70.6736 78.4637 68.1246C79.2499 65.2087 81.9008 63.5207 84.7587 64.2913C86.8635 64.8588 87.9452 66.4555 87.845 68.2099C87.8285 68.5783 87.6783 68.8278 87.1873 68.8819C84.8831 69.1306 82.6488 69.2738 80.2109 69.4036C80.2758 70.6225 81.0225 72.2324 82.8183 72.7167C84.1121 73.0655 85.346 72.7147 86.239 72.1683ZM83.9154 65.0375C82.1722 64.5882 80.8763 65.9373 80.4962 67.3469C80.366 67.8297 80.2864 68.2018 80.2945 68.5561C82.0185 68.4617 83.6601 68.3658 85.2155 68.2052C85.5557 68.1726 85.7237 68.0108 85.7594 67.6476C85.8892 66.3983 84.9879 65.2852 83.9154 65.0375ZM89.0482 72.6519L90.2563 64.3796C90.5148 62.6387 89.4926 62.8509 89.5836 62.2376C89.613 62.0398 89.7266 61.9556 90.2337 61.8084C91.1659 61.5222 91.8708 61.4045 92.1705 61.4288C92.4306 61.4472 92.5544 61.5667 92.5015 61.9228L92.0764 64.6499L90.8485 72.9192C90.5665 74.8184 91.5294 74.5974 91.4266 75.2898C91.3825 75.5866 91.0938 75.6246 90.5992 75.5512L88.4825 75.2369C88.0274 75.1693 87.7029 75.0402 87.7499 74.7237C87.8498 74.0511 88.7663 74.5511 89.0482 72.6519ZM103.041 70.5038L103.56 74.04C103.764 75.2864 104.588 75.1698 104.571 75.7696C104.562 76.0695 104.28 76.1414 103.78 76.1272L101.661 76.0667C101.181 76.053 100.864 75.9639 100.873 75.644C100.89 75.0643 101.925 75.2339 101.742 73.9281L101.257 70.5929C101.042 69.0062 100.747 67.4371 98.9272 67.4052C97.6272 67.3881 96.2147 68.5082 96.1451 70.9472L96.0789 73.2663C96.0241 75.1855 96.954 74.8519 96.934 75.5516C96.9255 75.8515 96.6433 75.9235 96.1435 75.9092L94.0044 75.8482C93.5445 75.835 93.207 75.7454 93.2161 75.4255C93.2355 74.7458 94.2048 75.1336 94.2596 73.2144L94.4781 64.8572C94.5283 63.0979 93.5385 63.4298 93.5562 62.8101C93.5619 62.6101 93.6647 62.513 94.1508 62.3068C95.0424 61.9121 95.7284 61.7116 96.0288 61.7002C96.2893 61.6876 96.4264 61.7915 96.4161 62.1514L96.3174 64.9097L96.2295 67.9884C97.0851 66.7523 98.3823 66.1691 99.6018 66.2039C101.601 66.261 102.609 67.4102 103.041 70.5038ZM110.011 75.6717C107.332 76.0107 105.122 74.4762 104.765 71.6586C104.386 68.6625 106.255 66.0673 109.331 65.678C111.969 65.344 114.153 67.144 114.492 69.8227C114.864 72.7592 113.047 75.2874 110.011 75.6717ZM110.505 74.6414C112.192 74.4279 113.073 72.9456 112.832 71.0408C112.518 68.5606 110.748 66.5267 108.764 66.7778C106.998 67.0014 106.212 68.5927 106.45 70.4777C106.779 73.0769 108.482 74.8976 110.505 74.6414ZM119.497 63.5602C120.538 63.2731 121.181 63.801 121.367 64.4758C121.506 64.9771 121.305 65.5302 120.867 65.6718C120.063 65.9144 119.867 65.0554 118.981 65.3C118.132 65.534 117.652 66.9527 118.12 68.6493L118.817 71.175C119.327 73.0259 120.118 72.4343 120.304 73.1091C120.384 73.3983 120.136 73.5499 119.654 73.6828L117.591 74.2517C117.147 74.374 116.798 74.3873 116.713 74.0788C116.532 73.4233 117.573 73.5098 117.062 71.6589L115.993 67.7836C115.813 67.128 115.603 66.6673 114.997 66.5024C114.748 66.4259 114.581 66.3475 114.528 66.1547C114.469 65.9426 114.534 65.8003 114.938 65.4606C115.508 64.9713 116.105 64.5785 116.37 64.4848C116.621 64.4156 116.782 64.4748 116.872 64.8026L117.284 66.3696C117.568 65.0672 118.359 63.8739 119.497 63.5602ZM136.798 65.1207C136.994 65.0207 137.163 64.9567 137.263 65.1526C137.49 65.598 137.087 66.5226 136.285 66.9318C135.448 67.3591 134.952 66.9607 134.356 66.1875C134.08 67.4957 133.106 68.6219 132.073 69.1492C129.899 70.2585 128.034 69.6837 127.261 68.1695C126.388 66.4594 127.32 64.5017 129.493 63.3924C130.242 63.0106 130.777 62.8272 131.536 62.642C130.452 61.3988 129.702 60.5016 128.152 61.2927C127.137 61.8109 126.641 62.468 126.111 63.2774C125.882 63.6639 125.461 63.5422 125.51 63.0677C125.62 62.226 126.502 60.7876 128.123 59.9602C130.083 58.96 131.476 59.7982 132.606 61.1752L135.398 64.6225C136.058 65.431 136.459 65.2935 136.798 65.1207ZM132.028 68.0494C133.257 67.422 134.057 65.8233 133.515 65.1122C133.234 64.7388 132.856 64.3484 132.295 63.6465C132.006 63.2553 130.748 63.6951 130.196 63.977C128.628 64.7771 128.173 65.9526 128.8 67.137C129.444 68.2677 130.692 68.7314 132.028 68.0494ZM147.913 50.7262L150.6 53.0832C151.548 53.9125 152.115 53.2775 152.491 53.7454C152.678 53.9793 152.494 54.2295 152.12 54.53L150.451 55.8696C150.093 56.1575 149.793 56.2954 149.593 56.0459C149.23 55.5936 150.128 55.0517 149.143 54.1757L146.612 51.9497C145.405 50.8928 144.241 49.8265 142.85 50.9688C141.896 51.7606 141.511 53.4542 142.901 55.3135L144.494 57.2662C145.696 58.7635 146.204 57.8943 146.642 58.4402C146.83 58.6741 146.646 58.9243 146.271 59.2248L144.602 60.5644C144.228 60.8649 143.928 61.0028 143.728 60.7532C143.303 60.2229 144.277 59.9027 143.075 58.4054L141.334 56.2375C140.208 54.8338 138.948 53.9988 137.616 55.1191C136.536 56.0111 136.211 57.8108 137.739 59.7136L139.191 61.5228C140.393 63.0201 140.885 62.1635 141.323 62.7094C141.511 62.9433 141.343 63.181 140.953 63.494L139.284 64.8336C138.925 65.1215 138.61 65.2719 138.41 65.0224C137.984 64.4921 138.974 64.1594 137.772 62.6621L135.255 59.5271C134.83 58.9968 134.454 58.657 133.833 58.7455C133.574 58.774 133.389 58.7681 133.264 58.6121C133.126 58.4405 133.129 58.2844 133.366 57.8123C133.696 57.1371 134.088 56.5399 134.294 56.349C134.497 56.1863 134.669 56.1766 134.882 56.4417L135.93 57.78C135.628 56.1251 136.206 54.7373 137.314 53.8484C138.577 52.8343 139.926 52.7259 141.236 53.6233C140.893 51.9497 141.462 50.5182 142.585 49.6168C144.145 48.3648 145.564 48.6624 147.913 50.7262ZM145.98 44.7105C145.587 45.0824 145.022 45.1083 144.635 44.7012C144.13 44.1864 144.116 42.9553 144.729 42.4318C145.123 42.0599 145.748 42.1162 146.104 42.468C146.581 42.9842 146.55 44.1748 145.98 44.7105ZM152.256 50.6809L149.331 48.0116C148.045 46.8387 147.636 47.7918 147.178 47.3739C147.03 47.2391 147.01 47.1126 147.171 46.6097C147.468 45.6618 147.764 45.0112 147.938 44.7909C148.098 44.5854 148.266 44.5494 148.532 44.792L150.558 46.6672L153.483 49.3366C154.901 50.6308 155.269 49.6938 155.786 50.1656C156.007 50.3678 155.864 50.6434 155.541 50.9979L154.098 52.5787C153.775 52.9332 153.5 53.1157 153.263 52.9C152.761 52.4416 153.674 51.9751 152.256 50.6809ZM160.406 42.6403C161.596 41.0829 162.998 40.8954 163.983 41.6483C165.54 42.8382 165.438 45.2774 163.216 48.1857C161.856 49.9656 159.908 51.2962 158.494 50.2155C158.001 49.8391 157.637 49.0318 157.877 48.0579C157.234 48.3722 156.425 48.509 155.742 47.9868C155.297 47.6469 154.952 46.8797 155.318 45.675C154.311 46.038 153.321 45.8851 152.51 45.2658C150.794 43.9545 150.752 41.406 152.291 39.3597L152.4 39.2166C152.792 38.7361 152.974 38.5977 153.216 38.2799C153.496 37.9144 153.53 37.2106 153.249 36.3921C153.18 36.0875 153.143 35.8071 153.313 35.5846C153.531 35.2986 153.972 35.1825 154.322 35.4497C154.942 35.9232 154.945 36.9073 154.585 37.7401C155.511 37.5164 156.422 37.7085 157.137 38.2549C158.821 39.542 159.036 41.8961 157.425 44.0377C156.976 44.6257 156.492 45.0614 155.989 45.357C155.975 45.6728 156.039 46.0494 156.325 46.268C157.072 46.8387 157.991 46.0309 158.684 45.125C159.364 44.2351 159.981 43.1965 160.406 42.6403ZM152.659 40.195C151.87 41.228 152.026 42.6054 153.17 43.4797C154.438 44.423 156.069 44.4616 156.98 43.2697C157.818 42.1732 157.486 40.8621 156.405 40.0365C155.201 39.1417 153.606 38.9554 152.659 40.195ZM162.84 47.2943C164.03 45.7368 164.396 44.2041 163.411 43.4512C162.918 43.0748 162.108 42.8835 161.216 44.2156C160.774 44.8597 160.239 45.659 159.462 46.676C158.976 47.3117 158.803 48.2622 159.487 48.7844C160.393 49.4765 161.675 48.8199 162.84 47.2943ZM167.716 31.4643C167.83 31.2763 167.941 31.1329 168.129 31.2471C168.556 31.5067 168.698 32.5056 168.231 33.2748C167.743 34.0782 167.112 33.9992 166.198 33.6546C166.651 34.9125 166.413 36.3827 165.811 37.3741C164.544 39.4595 162.655 39.9499 161.202 39.0672C159.561 38.0704 159.326 35.915 160.592 33.8297C161.029 33.1118 161.388 32.6747 161.936 32.1186C160.361 31.6297 159.252 31.2601 158.348 32.7472C157.756 33.7215 157.68 34.5408 157.654 35.508C157.662 35.9573 157.239 36.0751 157.032 35.6452C156.683 34.8715 156.679 33.1839 157.624 31.6284C158.766 29.7482 160.392 29.7297 162.076 30.3083L166.263 31.7754C167.249 32.1169 167.519 31.7891 167.716 31.4643ZM165.195 36.4618C165.911 35.2823 165.753 33.5013 164.918 33.1811C164.483 33.0107 163.956 32.8774 163.11 32.5744C162.658 32.3935 161.819 33.4282 161.497 33.9581C160.583 35.4623 160.813 36.7018 161.969 37.3804C163.111 38.0041 164.416 37.7437 165.195 36.4618Z" fill="#1A1A1A"/>
</svg>
