<svg width="200" height="100" viewBox="0 0 200 100" fill="none" xmlns="http://www.w3.org/2000/svg">
<path d="M99.9288 1C154.232 1.00013 198.314 44.7526 198.851 98.9287H1.00595C1.54234 44.7525 45.6258 1 99.9288 1Z" fill="#FFE57B" stroke="#1A1A1A" stroke-width="2"/>
<path d="M59.68 54.7396C62.3919 54.7396 64.0841 56.9308 64.0841 59.903C64.0841 63.1789 62.0664 65.5654 59.3763 65.5871C58.0963 65.6088 56.7729 65.1315 55.9485 64.4372L55.9702 66.8454C55.9702 68.9281 56.9681 68.5376 56.9681 69.2969C56.9681 69.6223 56.6644 69.7091 56.122 69.7091H53.8007C53.3017 69.7091 52.9546 69.6223 52.9546 69.2969C52.9546 68.5376 53.9959 68.9281 53.9959 66.8454L53.9525 58.0589C53.9525 57.343 53.8658 56.8006 53.3017 56.4535C53.0631 56.3016 52.9112 56.1715 52.9112 55.9545C52.9112 55.6942 53.0197 55.564 53.5403 55.3254C54.278 54.9999 55.0156 54.7613 55.3193 54.7396C55.6014 54.7179 55.7532 54.8264 55.7532 55.2169L55.7315 56.9742C56.4258 55.8027 57.7275 54.7396 59.68 54.7396ZM59.3763 64.6108C61.2637 64.5891 62.1315 62.8535 62.1315 60.7708C62.1315 57.6467 60.6129 56.1064 58.9641 56.1064C56.9681 56.1064 55.9485 57.9938 55.9485 59.5776V61.0962C55.9485 63.3525 57.8576 64.6325 59.3763 64.6108ZM75.908 64.025C76.1466 64.025 76.3419 64.0467 76.3419 64.2854C76.3419 64.8277 75.4958 65.522 74.5195 65.522C73.4998 65.522 73.2178 64.8928 73.0225 63.8515C72.1114 64.9796 70.6144 65.5871 69.3561 65.5871C66.7093 65.5871 65.1907 64.1118 65.1907 62.2677C65.1907 60.185 67.0564 58.7532 69.7032 58.7532C70.6144 58.7532 71.2219 58.8399 72.0463 59.0352C71.6124 57.2996 71.3303 56.063 69.4429 56.063C68.2063 56.063 67.4036 56.4535 66.4924 56.9742C66.0802 57.2345 65.733 56.9091 66.0151 56.4752C66.5358 55.7159 68.0978 54.7613 70.072 54.7613C72.4585 54.7613 73.3914 56.2583 73.8036 58.1457L74.8015 62.8535C75.0402 63.9599 75.4958 64.025 75.908 64.025ZM69.8551 64.5023C71.352 64.5023 72.9141 63.3525 72.7405 62.3979C72.6537 61.8989 72.4802 61.3349 72.2849 60.3803C72.1981 59.8596 70.7663 59.6644 70.0937 59.6644C68.1846 59.6644 67.1649 60.5755 67.1866 62.0291C67.2517 63.4393 68.228 64.5023 69.8551 64.5023ZM83.6054 54.7396C84.7769 54.7396 85.2976 55.4772 85.2976 56.2366C85.2976 56.8006 84.9288 57.3213 84.4298 57.343C83.5186 57.3647 83.562 56.4101 82.5641 56.4101C81.6095 56.4101 80.6983 57.7552 80.6983 59.6644V62.5064C80.6983 64.5891 81.6963 64.1986 81.6963 64.9579C81.6963 65.2833 81.3925 65.3701 80.8502 65.3701H78.5288C78.0298 65.3701 77.661 65.2833 77.661 64.9362C77.661 64.1986 78.7241 64.5891 78.7241 62.5064V58.1457C78.7241 57.4081 78.6373 56.8657 78.0515 56.5186C77.8129 56.3667 77.661 56.2366 77.661 56.0196C77.661 55.781 77.7695 55.6508 78.2902 55.4122C79.0278 55.065 79.7654 54.8264 80.0692 54.8047C80.3512 54.8047 80.503 54.9132 80.503 55.282L80.4814 57.0393C81.1539 55.7593 82.3254 54.7396 83.6054 54.7396ZM96.6071 64.025C96.8458 64.025 97.041 64.0467 97.041 64.2854C97.041 64.8277 96.1949 65.522 95.2186 65.522C94.199 65.522 93.9169 64.8928 93.7217 63.8515C92.8105 64.9796 91.3136 65.5871 90.0553 65.5871C87.4085 65.5871 85.8898 64.1118 85.8898 62.2677C85.8898 60.185 87.7556 58.7532 90.4024 58.7532C91.3136 58.7532 91.921 58.8399 92.7454 59.0352C92.3115 57.2996 92.0295 56.063 90.142 56.063C88.9054 56.063 88.1027 56.4535 87.1915 56.9742C86.7793 57.2345 86.4322 56.9091 86.7142 56.4752C87.2349 55.7159 88.7969 54.7613 90.7712 54.7613C93.1576 54.7613 94.0905 56.2583 94.5027 58.1457L95.5007 62.8535C95.7393 63.9599 96.1949 64.025 96.6071 64.025ZM90.5542 64.5023C92.0512 64.5023 93.6132 63.3525 93.4397 62.3979C93.3529 61.8989 93.1793 61.3349 92.9841 60.3803C92.8973 59.8596 91.4654 59.6644 90.7929 59.6644C88.8837 59.6644 87.8641 60.5755 87.8858 62.0291C87.9508 63.4393 88.9271 64.5023 90.5542 64.5023ZM113.074 55.2169L113.052 58.2108V62.5281C113.052 64.1769 114.332 63.6779 114.332 64.3071C114.332 64.524 114.159 64.741 113.79 64.9362C113.226 65.2616 112.38 65.5871 111.859 65.5871C111.338 65.5871 111.143 65.1966 111.122 64.4589L111.1 63.5694C110.145 64.9145 108.627 65.5871 107.433 65.5871C105.286 65.5871 103.767 64.2854 103.767 61.2698V58.2108C103.767 56.3016 102.682 56.6922 102.682 56.0196C102.682 55.8027 102.791 55.6942 103.311 55.4555C104.266 54.9999 105.025 54.7613 105.329 54.7396C105.611 54.7179 105.763 54.8264 105.763 55.2169L105.741 58.2108V61.0528C105.741 63.0054 106.392 64.3288 108.041 64.2854C109.429 64.2637 111.078 62.962 111.078 60.8359V58.2108C111.078 56.3016 109.993 56.6922 109.993 56.0196C109.993 55.8027 110.102 55.6942 110.623 55.4555C111.577 54.9999 112.315 54.7613 112.64 54.7396C112.922 54.7179 113.074 54.8264 113.074 55.2169ZM133.331 59.2955L134.004 63.1138C134.242 64.4589 135.154 64.3071 135.154 64.9579C135.154 65.2833 134.828 65.3701 134.307 65.3701H131.986C131.487 65.3701 131.14 65.2833 131.14 64.9362C131.14 64.3071 132.268 64.4589 132.029 63.0488L131.4 59.4474C131.097 57.7335 130.836 56.0413 128.884 56.063C127.539 56.0847 126.063 57.2562 125.977 59.7728L125.998 62.5064C125.998 64.5891 127.018 64.1986 127.018 64.9579C127.018 65.2833 126.693 65.3701 126.172 65.3701H123.851C123.33 65.3701 122.983 65.2833 122.983 64.9362C122.983 64.1986 124.024 64.5891 124.024 62.5064V59.4908C124.024 57.5383 123.525 55.9762 121.638 56.0196C120.119 56.0413 118.622 57.343 118.622 59.9898V62.5064C118.622 64.5891 119.62 64.1986 119.62 64.9579C119.62 65.2833 119.316 65.3701 118.774 65.3701H116.453C115.954 65.3701 115.585 65.2833 115.585 64.9362C115.585 64.1986 116.648 64.5891 116.648 62.5064V58.1457C116.648 57.4081 116.561 56.8657 115.975 56.5186C115.737 56.3667 115.585 56.2366 115.585 56.0196C115.585 55.781 115.693 55.6508 116.214 55.4122C116.952 55.065 117.689 54.8264 117.993 54.8047C118.275 54.8047 118.427 54.9132 118.427 55.282L118.405 57.126C119.273 55.5206 120.705 54.7396 122.245 54.7396C124.002 54.7396 125.217 55.564 125.716 57.2128C126.562 55.564 128.016 54.7396 129.578 54.7396C131.747 54.7396 132.745 55.9545 133.331 59.2955ZM146.628 64.025C146.867 64.025 147.062 64.0467 147.062 64.2854C147.062 64.8277 146.216 65.522 145.24 65.522C144.22 65.522 143.938 64.8928 143.743 63.8515C142.832 64.9796 141.335 65.5871 140.076 65.5871C137.43 65.5871 135.911 64.1118 135.911 62.2677C135.911 60.185 137.777 58.7532 140.424 58.7532C141.335 58.7532 141.942 58.8399 142.767 59.0352C142.333 57.2996 142.051 56.063 140.163 56.063C138.927 56.063 138.124 56.4535 137.213 56.9742C136.801 57.2345 136.453 56.9091 136.735 56.4752C137.256 55.7159 138.818 54.7613 140.792 54.7613C143.179 54.7613 144.112 56.2583 144.524 58.1457L145.522 62.8535C145.761 63.9599 146.216 64.025 146.628 64.025ZM140.575 64.5023C142.072 64.5023 143.634 63.3525 143.461 62.3979C143.374 61.8989 143.201 61.3349 143.005 60.3803C142.918 59.8596 141.487 59.6644 140.814 59.6644C138.905 59.6644 137.885 60.5755 137.907 62.0291C137.972 63.4393 138.948 64.5023 140.575 64.5023Z" fill="#1A1A1A"/>
</svg>
