<svg width="129" height="100" viewBox="0 0 129 100" fill="none" xmlns="http://www.w3.org/2000/svg">
<path d="M105.37 1C106.116 1.08197 106.539 1.18786 107.358 1.32812L107.426 1.33984L107.493 1.3418C107.611 1.34576 107.693 1.35225 107.745 1.35742C107.763 1.35917 107.776 1.36022 107.784 1.36133L107.792 1.36328L107.816 1.36816C117.272 3.30068 124.328 8.24339 126.962 17.623C130.279 29.4373 125.466 40.5985 115.151 45.8047C113.621 46.5769 111.934 47.093 110.098 47.5605C108.302 48.0179 106.283 48.446 104.306 49.0146L104.503 50.9727C105.952 51.0878 106.924 51.0751 107.949 51.2559C120.961 53.5489 129.993 66.9284 127.438 80.1924C125.629 89.5772 118.113 96.9563 108.707 98.4863C106.733 98.8074 104.701 98.9477 102.683 98.9502C77.3983 98.9814 52.0984 98.9128 26.8076 99C17.4297 99.0323 9.93397 95.8893 4.89453 87.9072C4.31163 86.9839 3.84756 85.9613 3.38672 84.8428C2.95242 83.7886 2.50301 82.6074 1.9834 81.4463C0.769806 74.2229 1.61779 68.2643 4.36816 63.5117C7.04671 58.8833 11.6 55.277 18.1074 52.7695L18.7432 52.5303C19.1047 52.3975 20.2419 52.0427 21.2686 51.7002C21.5535 51.6051 23.1111 51.1458 24.6709 51.0312L24.748 49.0449C19.5478 48.2556 16.8963 47.3285 13.3633 46.043C11.0593 44.735 9.29514 44.1453 6.52539 40.7568C3.05926 36.5164 2.45188 33.8632 1.81445 31.3232C0.309795 25.3277 0.780482 19.4996 4.14551 13.5527C8.27052 6.26286 14.6113 2.23926 23.1631 1.13574C50.5946 1.0083 77.8275 1.02279 105.37 1Z" fill="#FD86CD" stroke="#1A1A1A" stroke-width="2"/>
<path d="M50.08 23.2C52.58 23.2 54.14 25.22 54.14 27.96C54.14 30.98 52.28 33.18 49.8 33.2C48.62 33.22 47.4 32.78 46.64 32.14L46.66 34.36C46.66 36.28 47.58 35.92 47.58 36.62C47.58 36.92 47.3 37 46.8 37H44.66C44.2 37 43.88 36.92 43.88 36.62C43.88 35.92 44.84 36.28 44.84 34.36L44.8 26.26C44.8 25.6 44.72 25.1 44.2 24.78C43.98 24.64 43.84 24.52 43.84 24.32C43.84 24.08 43.94 23.96 44.42 23.74C45.1 23.44 45.78 23.22 46.06 23.2C46.32 23.18 46.46 23.28 46.46 23.64L46.44 25.26C47.08 24.18 48.28 23.2 50.08 23.2ZM49.8 32.3C51.54 32.28 52.34 30.68 52.34 28.76C52.34 25.88 50.94 24.46 49.42 24.46C47.58 24.46 46.64 26.2 46.64 27.66V29.06C46.64 31.14 48.4 32.32 49.8 32.3ZM65.0402 31.76C65.2602 31.76 65.4402 31.78 65.4402 32C65.4402 32.5 64.6602 33.14 63.7602 33.14C62.8202 33.14 62.5602 32.56 62.3802 31.6C61.5402 32.64 60.1602 33.2 59.0002 33.2C56.5602 33.2 55.1602 31.84 55.1602 30.14C55.1602 28.22 56.8802 26.9 59.3202 26.9C60.1602 26.9 60.7202 26.98 61.4802 27.16C61.0802 25.56 60.8202 24.42 59.0802 24.42C57.9402 24.42 57.2002 24.78 56.3602 25.26C55.9802 25.5 55.6602 25.2 55.9202 24.8C56.4002 24.1 57.8402 23.22 59.6602 23.22C61.8602 23.22 62.7202 24.6 63.1002 26.34L64.0202 30.68C64.2402 31.7 64.6602 31.76 65.0402 31.76ZM59.4602 32.2C60.8402 32.2 62.2802 31.14 62.1202 30.26C62.0402 29.8 61.8802 29.28 61.7002 28.4C61.6202 27.92 60.3002 27.74 59.6802 27.74C57.9202 27.74 56.9802 28.58 57.0002 29.92C57.0602 31.22 57.9602 32.2 59.4602 32.2ZM72.1363 23.2C73.2163 23.2 73.6963 23.88 73.6963 24.58C73.6963 25.1 73.3563 25.58 72.8963 25.6C72.0563 25.62 72.0963 24.74 71.1763 24.74C70.2963 24.74 69.4563 25.98 69.4563 27.74V30.36C69.4563 32.28 70.3763 31.92 70.3763 32.62C70.3763 32.92 70.0963 33 69.5963 33H67.4563C66.9963 33 66.6563 32.92 66.6563 32.6C66.6563 31.92 67.6363 32.28 67.6363 30.36V26.34C67.6363 25.66 67.5563 25.16 67.0163 24.84C66.7963 24.7 66.6563 24.58 66.6563 24.38C66.6563 24.16 66.7563 24.04 67.2363 23.82C67.9163 23.5 68.5962 23.28 68.8763 23.26C69.1363 23.26 69.2763 23.36 69.2763 23.7L69.2563 25.32C69.8763 24.14 70.9563 23.2 72.1363 23.2ZM84.1222 31.76C84.3422 31.76 84.5222 31.78 84.5222 32C84.5222 32.5 83.7422 33.14 82.8422 33.14C81.9022 33.14 81.6422 32.56 81.4622 31.6C80.6222 32.64 79.2422 33.2 78.0822 33.2C75.6422 33.2 74.2422 31.84 74.2422 30.14C74.2422 28.22 75.9622 26.9 78.4022 26.9C79.2422 26.9 79.8022 26.98 80.5622 27.16C80.1622 25.56 79.9022 24.42 78.1622 24.42C77.0222 24.42 76.2822 24.78 75.4422 25.26C75.0622 25.5 74.7422 25.2 75.0022 24.8C75.4822 24.1 76.9222 23.22 78.7422 23.22C80.9422 23.22 81.8022 24.6 82.1822 26.34L83.1022 30.68C83.3222 31.7 83.7422 31.76 84.1222 31.76ZM78.5422 32.2C79.9222 32.2 81.3622 31.14 81.2022 30.26C81.1222 29.8 80.9622 29.28 80.7822 28.4C80.7022 27.92 79.3822 27.74 78.7622 27.74C77.0022 27.74 76.0622 28.58 76.0822 29.92C76.1422 31.22 77.0422 32.2 78.5422 32.2Z" fill="#FFFFF3"/>
<path d="M35.36 79.2C32.54 79.2 30.7 77.12 30.7 74.54C30.7 71.52 32.9 69.22 35.76 69.22C38.24 69.22 39.64 70.88 39.64 72.46C39.64 73.14 39.24 73.54 38.7 73.54C38.08 73.54 37.84 73.06 37.68 72.52C37.3 71.18 36.64 70.18 35.22 70.14C33.48 70.14 32.46 71.58 32.46 73.5C32.46 76.14 33.94 77.86 36.14 77.86C37.46 77.86 38.36 77.2 39.08 76.44C39.42 76.1 39.86 76.3 39.66 76.8C39.24 77.8 37.92 79.2 35.36 79.2ZM46.7925 69.2C47.8725 69.2 48.3525 69.88 48.3525 70.58C48.3525 71.1 48.0125 71.58 47.5525 71.6C46.7125 71.62 46.7525 70.74 45.8325 70.74C44.9525 70.74 44.1125 71.98 44.1125 73.74V76.36C44.1125 78.28 45.0325 77.92 45.0325 78.62C45.0325 78.92 44.7525 79 44.2525 79H42.1125C41.6525 79 41.3125 78.92 41.3125 78.6C41.3125 77.92 42.2925 78.28 42.2925 76.36V72.34C42.2925 71.66 42.2125 71.16 41.6725 70.84C41.4525 70.7 41.3125 70.58 41.3125 70.38C41.3125 70.16 41.4125 70.04 41.8925 69.82C42.5725 69.5 43.2525 69.28 43.5325 69.26C43.7925 69.26 43.9325 69.36 43.9325 69.7L43.9125 71.32C44.5325 70.14 45.6125 69.2 46.7925 69.2ZM57.7952 76.42C58.1352 76.06 58.5752 76.28 58.3752 76.78C57.9552 77.76 56.4352 79.2 53.9152 79.2C51.1152 79.2 49.2352 77.18 49.2352 74.54C49.2352 71.52 51.3552 69.2 54.3152 69.2C56.4952 69.2 57.9552 70.46 58.3152 72.18C58.3952 72.54 58.3152 72.82 57.8552 73C55.6952 73.84 53.5752 74.56 51.2552 75.32C51.6352 76.48 52.7752 77.84 54.6352 77.84C55.9752 77.84 57.0752 77.18 57.7952 76.42ZM53.6952 70.14C51.8952 70.16 50.9952 71.8 50.9952 73.26C50.9952 73.76 51.0152 74.14 51.1152 74.48C52.7552 73.94 54.3152 73.42 55.7752 72.86C56.0952 72.74 56.2152 72.54 56.1552 72.18C55.9552 70.94 54.7952 70.1 53.6952 70.14ZM61.163 79.2C60.883 79.2 60.843 79.08 60.603 78.52C60.303 77.72 60.103 77.2 59.863 76.4C59.803 76.12 59.863 75.94 60.083 75.86C60.283 75.78 60.503 75.94 60.763 76.22C62.323 77.9 63.403 78.28 64.483 78.28C65.383 78.28 66.163 77.84 66.163 76.96C66.163 76.1 65.043 75.56 63.423 74.9C61.683 74.22 60.063 73.52 60.063 71.88C60.063 70.06 61.723 69.2 63.243 69.2C64.303 69.2 64.943 69.42 65.463 69.44C65.783 69.46 65.863 69.2 66.123 69.2C66.383 69.2 66.503 69.46 66.743 69.86C67.043 70.42 67.203 70.78 67.363 71.14C67.483 71.46 67.483 71.72 67.283 71.84C66.963 72.02 66.683 71.66 66.003 71.14C65.223 70.56 64.243 70.08 63.303 70.08C62.223 70.08 61.623 70.62 61.623 71.32C61.623 72.2 62.563 72.64 64.403 73.38C66.323 74.14 67.883 74.9 67.883 76.4C67.883 77.88 66.443 79.2 64.243 79.2C62.923 79.2 62.323 78.82 61.923 78.82C61.603 78.82 61.523 79.2 61.163 79.2ZM73.8756 79.2C71.0556 79.2 69.2156 77.12 69.2156 74.54C69.2156 71.52 71.4156 69.22 74.2756 69.22C76.7556 69.22 78.1556 70.88 78.1556 72.46C78.1556 73.14 77.7556 73.54 77.2156 73.54C76.5956 73.54 76.3556 73.06 76.1956 72.52C75.8156 71.18 75.1556 70.18 73.7356 70.14C71.9956 70.14 70.9756 71.58 70.9756 73.5C70.9756 76.14 72.4556 77.86 74.6556 77.86C75.9756 77.86 76.8756 77.2 77.5956 76.44C77.9356 76.1 78.3756 76.3 78.1756 76.8C77.7556 77.8 76.4356 79.2 73.8756 79.2ZM88.0881 76.42C88.4281 76.06 88.8681 76.28 88.6681 76.78C88.2481 77.76 86.7281 79.2 84.2081 79.2C81.4081 79.2 79.5281 77.18 79.5281 74.54C79.5281 71.52 81.6481 69.2 84.6081 69.2C86.7881 69.2 88.2481 70.46 88.6081 72.18C88.6881 72.54 88.6081 72.82 88.1481 73C85.9881 73.84 83.8681 74.56 81.5481 75.32C81.9281 76.48 83.0681 77.84 84.9281 77.84C86.2681 77.84 87.3681 77.18 88.0881 76.42ZM83.9881 70.14C82.1881 70.16 81.2881 71.8 81.2881 73.26C81.2881 73.76 81.3081 74.14 81.4081 74.48C83.0481 73.94 84.6081 73.42 86.0681 72.86C86.3881 72.74 86.5081 72.54 86.4481 72.18C86.2481 70.94 85.0881 70.1 83.9881 70.14ZM95.8159 69.2C96.8959 69.2 97.3759 69.88 97.3759 70.58C97.3759 71.1 97.0359 71.58 96.5759 71.6C95.7359 71.62 95.7759 70.74 94.8559 70.74C93.9759 70.74 93.1359 71.98 93.1359 73.74V76.36C93.1359 78.28 94.0559 77.92 94.0559 78.62C94.0559 78.92 93.7759 79 93.2759 79H91.1359C90.6759 79 90.3359 78.92 90.3359 78.6C90.3359 77.92 91.3159 78.28 91.3159 76.36V72.34C91.3159 71.66 91.2359 71.16 90.6959 70.84C90.4759 70.7 90.3359 70.58 90.3359 70.38C90.3359 70.16 90.4359 70.04 90.9159 69.82C91.5959 69.5 92.2759 69.28 92.5559 69.26C92.8159 69.26 92.9559 69.36 92.9559 69.7L92.9359 71.32C93.5559 70.14 94.6359 69.2 95.8159 69.2Z" fill="#FFFFF3"/>
</svg>
