<svg width="122" height="51" viewBox="0 0 122 51" fill="none" xmlns="http://www.w3.org/2000/svg">
<rect x="1" y="1" width="120" height="49" rx="24.5" fill="#FFE47B"/>
<rect x="1" y="1" width="120" height="49" rx="24.5" stroke="#1A1A1A" stroke-width="2"/>
<path d="M19.4 32.7C17.88 32.7 17.18 32.44 16.58 32.44C16.12 32.44 16 32.68 15.68 32.68C15.3 32.68 15.1 32.42 14.96 31.58C14.84 30.94 14.66 30.08 14.52 28.78C14.48 28.38 14.54 28.08 14.86 28.08C15.14 28.08 15.36 28.28 15.6 28.76C16.18 30.1 17.26 31.72 19.6 31.74C21.54 31.74 22.42 30.6 22.48 29.34C22.58 27.66 20.74 27 19.02 26.18C17 25.2 14.82 24.38 14.82 21.94C14.82 20.08 16.44 18.34 19.52 18.34C20.4 18.34 21.12 18.56 21.68 18.56C22.14 18.56 22.26 18.34 22.58 18.34C22.96 18.34 23.06 18.56 23.26 19.4C23.4 19.98 23.58 20.68 23.74 21.66C23.8 22.04 23.74 22.32 23.42 22.32C23.14 22.32 22.9 22.12 22.64 21.68C22 20.66 20.86 19.28 19.08 19.28C17.44 19.28 16.58 20.18 16.58 21.4C16.58 22.94 18.04 23.48 19.94 24.42C22.08 25.46 24.3 26.2 24.38 28.58C24.46 31.12 22.04 32.68 19.4 32.7ZM34.3811 29.92C34.7211 29.56 35.1611 29.78 34.9611 30.28C34.5411 31.26 33.0211 32.7 30.5011 32.7C27.7011 32.7 25.8211 30.68 25.8211 28.04C25.8211 25.02 27.9411 22.7 30.9011 22.7C33.0811 22.7 34.5411 23.96 34.9011 25.68C34.9811 26.04 34.9011 26.32 34.4411 26.5C32.2811 27.34 30.1611 28.06 27.8411 28.82C28.2211 29.98 29.3611 31.34 31.2211 31.34C32.5611 31.34 33.6611 30.68 34.3811 29.92ZM30.2811 23.64C28.4811 23.66 27.5811 25.3 27.5811 26.76C27.5811 27.26 27.6011 27.64 27.7011 27.98C29.3411 27.44 30.9011 26.92 32.3611 26.36C32.6811 26.24 32.8011 26.04 32.7411 25.68C32.5411 24.44 31.3811 23.6 30.2811 23.64ZM46.2089 23.14L46.1889 25.9V29.88C46.1889 31.4 47.3689 30.94 47.3689 31.52C47.3689 31.72 47.2089 31.92 46.8689 32.1C46.3489 32.4 45.5689 32.7 45.0889 32.7C44.6089 32.7 44.4289 32.34 44.4089 31.66L44.3889 30.84C43.5089 32.08 42.1089 32.7 41.0089 32.7C39.0289 32.7 37.6289 31.5 37.6289 28.72V25.9C37.6289 24.14 36.6289 24.5 36.6289 23.88C36.6289 23.68 36.7289 23.58 37.2089 23.36C38.0889 22.94 38.7889 22.72 39.0689 22.7C39.3289 22.68 39.4689 22.78 39.4689 23.14L39.4489 25.9V28.52C39.4489 30.32 40.0489 31.54 41.5689 31.5C42.8489 31.48 44.3689 30.28 44.3689 28.32V25.9C44.3689 24.14 43.3689 24.5 43.3689 23.88C43.3689 23.68 43.4689 23.58 43.9489 23.36C44.8289 22.94 45.5089 22.72 45.8089 22.7C46.0689 22.68 46.2089 22.78 46.2089 23.14ZM61.9073 31.26C62.1273 31.26 62.3073 31.28 62.3073 31.5C62.3073 32 61.5273 32.64 60.6273 32.64C59.6873 32.64 59.4273 32.06 59.2473 31.1C58.4073 32.14 57.0273 32.7 55.8673 32.7C53.4273 32.7 52.0273 31.34 52.0273 29.64C52.0273 27.72 53.7473 26.4 56.1873 26.4C57.0273 26.4 57.5873 26.48 58.3473 26.66C57.9473 25.06 57.6873 23.92 55.9473 23.92C54.8073 23.92 54.0673 24.28 53.2273 24.76C52.8473 25 52.5273 24.7 52.7873 24.3C53.2673 23.6 54.7073 22.72 56.5273 22.72C58.7273 22.72 59.5873 24.1 59.9673 25.84L60.8873 30.18C61.1073 31.2 61.5273 31.26 61.9073 31.26ZM56.3273 31.7C57.7073 31.7 59.1473 30.64 58.9873 29.76C58.9073 29.3 58.7473 28.78 58.5673 27.9C58.4873 27.42 57.1673 27.24 56.5473 27.24C54.7873 27.24 53.8473 28.08 53.8673 29.42C53.9273 30.72 54.8273 31.7 56.3273 31.7ZM64.4239 29.86L64.4039 21.5C64.4039 19.74 63.4239 20.1 63.4239 19.48C63.4239 19.28 63.5239 19.18 64.0039 18.96C64.8839 18.54 65.5639 18.32 65.8639 18.3C66.1239 18.28 66.2639 18.38 66.2639 18.74L66.2439 21.5V29.86C66.2439 31.78 67.1639 31.42 67.1639 32.12C67.1639 32.42 66.8839 32.5 66.3839 32.5H64.2439C63.7839 32.5 63.4439 32.42 63.4439 32.1C63.4439 31.42 64.4239 31.78 64.4239 29.86ZM70.2503 21.2C69.7103 21.16 69.3103 20.76 69.3503 20.2C69.3903 19.48 70.2903 18.64 71.0903 18.74C71.6303 18.78 72.0103 19.28 71.9903 19.78C71.9303 20.48 71.0303 21.26 70.2503 21.2ZM70.0703 29.86V25.9C70.0703 24.16 69.0903 24.5 69.0903 23.88C69.0903 23.68 69.1703 23.58 69.6503 23.36C70.5503 22.94 71.2303 22.72 71.5103 22.7C71.7703 22.68 71.9103 22.78 71.9103 23.14L71.8903 25.9V29.86C71.8903 31.78 72.8303 31.42 72.8303 32.12C72.8303 32.42 72.5303 32.5 72.0503 32.5H69.9103C69.4303 32.5 69.1103 32.42 69.1103 32.1C69.1103 31.42 70.0703 31.78 70.0703 29.86ZM84.173 31.26C84.393 31.26 84.573 31.28 84.573 31.5C84.573 32 83.793 32.64 82.893 32.64C81.953 32.64 81.693 32.06 81.513 31.1C80.673 32.14 79.293 32.7 78.133 32.7C75.693 32.7 74.293 31.34 74.293 29.64C74.293 27.72 76.013 26.4 78.453 26.4C79.293 26.4 79.853 26.48 80.613 26.66C80.213 25.06 79.953 23.92 78.213 23.92C77.073 23.92 76.333 24.28 75.493 24.76C75.113 25 74.793 24.7 75.053 24.3C75.533 23.6 76.973 22.72 78.793 22.72C80.993 22.72 81.853 24.1 82.233 25.84L83.153 30.18C83.373 31.2 83.793 31.26 84.173 31.26ZM78.593 31.7C79.973 31.7 81.413 30.64 81.253 29.76C81.173 29.3 81.013 28.78 80.833 27.9C80.753 27.42 79.433 27.24 78.813 27.24C77.053 27.24 76.113 28.08 76.133 29.42C76.193 30.72 77.093 31.7 78.593 31.7ZM94.9328 18.74L94.9128 21.5L94.8928 29.88C94.8928 31.38 96.0928 30.94 96.0928 31.52C96.0928 31.72 95.9328 31.9 95.5728 32.1C95.0728 32.38 94.2928 32.7 93.8128 32.7C93.3328 32.7 93.1528 32.34 93.1328 31.66L93.1128 30.94C92.4128 31.94 91.1928 32.72 89.6128 32.7C86.9928 32.68 85.3328 30.64 85.3328 28.08C85.3328 24.96 87.7128 22.7 90.3128 22.7C91.2928 22.7 92.3328 23 93.0928 23.66V21.5C93.0928 19.76 92.1128 20.1 92.1128 19.48C92.1128 19.28 92.1928 19.18 92.6728 18.96C93.5728 18.54 94.2528 18.32 94.5528 18.3C94.7928 18.28 94.9328 18.38 94.9328 18.74ZM90.2928 31.42C91.9528 31.42 92.9328 30.08 93.0728 28.9V27.9C93.0328 27.08 92.9128 26.04 92.4528 25.28C91.8728 24.24 91.0128 23.68 89.8728 23.68C88.1528 23.68 87.1128 25.14 87.1128 27.14C87.1128 30.04 88.8128 31.42 90.2928 31.42ZM101.732 32.7C99.032 32.7 97.032 30.9 97.032 28.06C97.032 25.04 99.212 22.7 102.312 22.7C104.972 22.7 106.912 24.76 106.912 27.46C106.912 30.42 104.792 32.7 101.732 32.7ZM102.352 31.74C104.052 31.74 105.112 30.38 105.112 28.46C105.112 25.96 103.612 23.72 101.612 23.72C99.832 23.72 98.852 25.2 98.852 27.1C98.852 29.72 100.312 31.74 102.352 31.74Z" fill="#1A1A1A"/>
</svg>
